<?xml version="1.0" standalone="no"?>
<!DOCTYPE svg PUBLIC "-//W3C//DTD SVG 1.1//EN" "http://www.w3.org/Graphics/SVG/1.1/DTD/svg11.dtd" >
<svg xmlns="http://www.w3.org/2000/svg">
<metadata></metadata>
<defs>
<font id="lato_latin_blackregular" horiz-adv-x="1187" >
<font-face units-per-em="2048" ascent="1649" descent="-399" />
<missing-glyph horiz-adv-x="473" />
<glyph unicode="ff" horiz-adv-x="1429" d="M37 935v125h149v40q0 91 29.5 165t84 126.5t133.5 80.5t179 28q39 0 72 -4.5t69 -13.5l-7 -155q-2 -33 -27 -45.5t-51 -12.5q-42 0 -75 -8.5t-55 -29t-33 -54.5t-11 -86v-31h372v80q0 91 29.5 164.5t84 126t133.5 81t179 28.5q39 0 72 -4.5t69 -14.5l-7 -155 q-1 -16 -8 -27t-18.5 -17.5t-25 -9.5t-26.5 -3q-42 0 -75 -8.5t-55 -29.5t-33 -55t-11 -87v-69h248v-217h-238v-843h-318v843h-362v-843h-318v844l-69 14q-36 8 -58 25.5t-22 51.5z" />
<glyph unicode="fi" horiz-adv-x="1283" d="M37 935v125h149v15q0 96 33.5 181.5t103 148.5t177.5 100t258 37q46 0 95 -4.5t85 -13.5l-10 -161q-2 -26 -25.5 -34t-50.5 -8q-106 0 -176 -16.5t-110.5 -48.5t-56 -80.5t-15.5 -110.5v-5h673v-1060h-317v843h-346v-843h-318v844l-69 14q-36 8 -58 25.5t-22 51.5z" />
<glyph unicode="fl" horiz-adv-x="1295" d="M37 935v125h149v37q0 81 27 158t82 137t141 96.5t205 36.5q100 0 189 -6.5t180 -6.5h178v-1512h-316v1299q-52 2 -100.5 5t-79.5 3q-97 0 -147.5 -54t-50.5 -156v-37h229v-217h-219v-843h-318v844l-69 14q-36 8 -58 25.5t-22 51.5z" />
<glyph unicode="ffi" horiz-adv-x="1963" d="M37 935v125h149v40q0 91 29.5 165t84 126.5t133.5 80.5t179 28q39 0 72 -4.5t69 -13.5l-7 -155q-2 -33 -27 -45.5t-51 -12.5q-42 0 -75 -8.5t-55 -29t-33 -54.5t-11 -86v-31h372v15q0 96 33.5 181.5t103 148.5t177.5 100t258 37q46 0 95 -4.5t85 -13.5l-10 -161 q-2 -26 -25.5 -34t-50.5 -8q-106 0 -176 -16.5t-110.5 -48.5t-56 -80.5t-15.5 -110.5v-5h673v-1060h-317v843h-346v-843h-318v843h-362v-843h-318v844l-69 14q-36 8 -58 25.5t-22 51.5z" />
<glyph unicode="ffl" horiz-adv-x="1975" d="M37 935v125h149v40q0 91 29.5 165t84 126.5t133.5 80.5t179 28q39 0 72 -4.5t69 -13.5l-7 -155q-2 -33 -27 -45.5t-51 -12.5q-42 0 -75 -8.5t-55 -29t-33 -54.5t-11 -86v-31h372v37q0 81 27 158t82 137t141 96.5t205 36.5q92 0 175 -6t166 -7h206v-1512h-316v1299 q-52 2 -100.5 5t-79.5 3q-97 0 -147.5 -54t-50.5 -156v-37h248v-217h-238v-843h-318v843h-362v-843h-318v844l-69 14q-36 8 -58 25.5t-22 51.5z" />
<glyph unicode="fb" horiz-adv-x="1948" d="M37 935v125h149v58q0 95 31.5 176t99 140t173.5 92.5t256 33.5q56 0 105 -4.5t101 -9.5t110 -9t135 -4v-585q61 59 134 94.5t164 35.5q90 0 164 -36.5t126 -105t80 -164.5t28 -215q0 -129 -32.5 -234.5t-92.5 -180.5t-143 -116.5t-183 -41.5q-48 0 -86 9t-70 26t-58 40.5 t-50 51.5l-12 -54q-8 -33 -26.5 -45t-48.5 -12h-211v1329q-36 14 -75.5 23.5t-78.5 9.5q-54 0 -97.5 -18.5t-73.5 -51t-45.5 -77.5t-15.5 -97v-58h248v-217h-238v-843h-318v844l-69 14q-36 8 -58 25.5t-22 51.5zM1197 289q36 -40 78 -56t85 -16q45 0 83 17t65 55.5 t42.5 101.5t15.5 155q0 80 -12 135.5t-35 91t-57.5 51.5t-78.5 16q-58 0 -101 -26t-85 -75v-450z" />
<glyph unicode="ffb" horiz-adv-x="2628" d="M37 935v125h149v40q0 91 29.5 165t84 126.5t133.5 80.5t179 28q39 0 72 -4.5t69 -13.5l-7 -155q-2 -33 -27 -45.5t-51 -12.5q-42 0 -75 -8.5t-55 -29t-33 -54.5t-11 -86v-31h372v58q0 95 31.5 176t99 140t173.5 92.5t256 33.5q56 0 105 -4.5t100.5 -9.5t110 -9t135.5 -4 v-585q61 59 134 94.5t164 35.5q90 0 164 -36.5t126 -105t80 -164.5t28 -215q0 -129 -32.5 -234.5t-92.5 -180.5t-143 -116.5t-183 -41.5q-48 0 -86 9t-70 26t-58 40.5t-50 51.5l-12 -54q-8 -33 -26.5 -45t-49.5 -12h-210v1329q-36 14 -75.5 23.5t-78.5 9.5 q-54 0 -97.5 -18.5t-73.5 -51t-45.5 -77.5t-15.5 -97v-58h248v-217h-238v-843h-318v843h-362v-843h-318v844l-69 14q-36 8 -58 25.5t-22 51.5zM1877 289q36 -40 78 -56t85 -16q45 0 83 17t65 55.5t42.5 101.5t15.5 155q0 80 -12 135.5t-35 91t-57.5 51.5t-78.5 16 q-58 0 -101 -26t-85 -75v-450z" />
<glyph unicode="fh" horiz-adv-x="1939" d="M37 935v125h149v58q0 95 31.5 176t99 140t173.5 92.5t256 33.5q53 0 100 -4.5t95 -9t102.5 -8.5t123.5 -5h30v-564q57 49 124.5 79t160.5 30q87 0 154 -30t113 -84t69.5 -128t23.5 -161v-675h-317v675q0 78 -36 121.5t-106 43.5q-52 0 -98 -22.5t-88 -60.5v-757h-317 v1329q-36 14 -75.5 23.5t-78.5 9.5q-54 0 -97.5 -18.5t-73.5 -51t-45.5 -77.5t-15.5 -97v-58h248v-217h-238v-843h-318v844l-69 14q-36 8 -58 25.5t-22 51.5z" />
<glyph unicode="ffh" horiz-adv-x="2619" d="M37 935v125h149v40q0 91 29.5 165t84 126.5t133.5 80.5t179 28q39 0 72 -4.5t69 -13.5l-7 -155q-2 -33 -27 -45.5t-51 -12.5q-42 0 -75 -8.5t-55 -29t-33 -54.5t-11 -86v-31h372v58q0 95 31.5 176t99 140t173.5 92.5t256 33.5q56 0 105 -4.5t100.5 -9.5t110 -9t135.5 -4 v-564q57 49 124 79t161 30q87 0 154 -30t113 -84t69.5 -128t23.5 -161v-675h-317v675q0 78 -36 121.5t-106 43.5q-52 0 -98 -22.5t-88 -60.5v-757h-317v1329q-36 14 -75.5 23.5t-78.5 9.5q-54 0 -97.5 -18.5t-73.5 -51t-45.5 -77.5t-15.5 -97v-58h248v-217h-238v-843h-318 v843h-362v-843h-318v844l-69 14q-36 8 -58 25.5t-22 51.5z" />
<glyph unicode="f&#xec;" horiz-adv-x="1283" d="M37 935v125h149v15q0 96 31.5 181.5t103.5 148.5t191.5 100t296.5 37q84 0 134.5 -26t74.5 -69l139 -251h-180q-36 0 -57.5 9.5t-45.5 33.5l-80 81q-88 -3 -145.5 -21t-92.5 -49.5t-48.5 -78.5t-13.5 -106v-5h673v-1060h-317v843h-346v-843h-318v844l-69 14 q-36 8 -58 25.5t-22 51.5z" />
<glyph unicode="f&#xee;" horiz-adv-x="1282" d="M37 935v125h149v107q0 83 22.5 150t66 114t107 72t146.5 25q31 0 56 -3t50 -12v-166q0 -24 -18 -32.5t-39 -8.5q-48 0 -65.5 -31.5t-17.5 -106.5v-108h673v-1060h-317v843h-346v-843h-318v844l-69 14q-36 8 -58 25.5t-22 51.5zM629 1196l239 296h299l240 -296h-211 q-18 0 -35.5 5.5t-35.5 23.5l-76 85q-6 6 -13 12.5t-13 14.5q-6 -8 -12.5 -15t-13.5 -12l-78 -85q-15 -14 -34 -21.5t-37 -7.5h-219z" />
<glyph unicode="f&#x129;" horiz-adv-x="1282" d="M37 0zM37 935v125h149v107q0 83 22.5 150t66 114t107 72t146.5 25q31 0 56 -3t50 -12v-166q0 -24 -18 -32.5t-39 -8.5q-48 0 -65.5 -31.5t-17.5 -106.5v-108h673v-1060h-317v843h-346v-843h-318v844l-69 14q-36 8 -58 25.5t-22 51.5zM658 1214q0 65 18.5 116.5t50.5 88.5 t75 57t92 20q38 0 71 -11.5t61 -26t51 -26.5t40 -12q25 0 40 13t15 55h193q0 -65 -18 -116.5t-49.5 -88t-74.5 -56t-94 -19.5q-38 0 -70.5 12t-60.5 26.5t-51 26t-41 11.5q-25 0 -39 -14t-14 -56h-195z" />
<glyph unicode="f&#xef;" horiz-adv-x="1282" d="M37 935v125h149v107q0 83 22.5 150t66 114t107 72t146.5 25q31 0 56 -3t50 -12v-166q0 -24 -18 -32.5t-39 -8.5q-48 0 -65.5 -31.5t-17.5 -106.5v-108h673v-1060h-317v843h-346v-843h-318v844l-69 14q-36 8 -58 25.5t-22 51.5zM658 1326q0 34 13.5 63.5t35.5 51.5t51 35 t62 13q35 0 65 -13t53.5 -35t36.5 -51.5t13 -63.5q0 -33 -13 -61.5t-36.5 -49.5t-53.5 -33.5t-65 -12.5q-33 0 -62 12.5t-51 33.5t-35.5 49.5t-13.5 61.5zM1033 1326q0 34 13 63.5t35.5 51.5t52 35t63.5 13q35 0 65 -13t52.5 -35t35.5 -51.5t13 -63.5q0 -33 -13 -61.5 t-35.5 -49.5t-52.5 -33.5t-65 -12.5q-34 0 -63.5 12.5t-52 33.5t-35.5 49.5t-13 61.5z" />
<glyph unicode="f&#x12b;" horiz-adv-x="1282" d="M37 0zM37 935v125h149v107q0 83 22.5 150t66 114t107 72t146.5 25q31 0 56 -3t50 -12v-166q0 -24 -18 -32.5t-39 -8.5q-48 0 -65.5 -31.5t-17.5 -106.5v-108h673v-1060h-317v843h-346v-843h-318v844l-69 14q-36 8 -58 25.5t-22 51.5zM693 1230v194h635v-194h-635z" />
<glyph unicode="f&#x12f;" horiz-adv-x="1282" d="M37 935v125h149v15q0 96 33.5 181.5t103 148.5t177.5 100t258 37q46 0 95 -4.5t85 -13.5l-10 -161q-2 -26 -25.5 -34t-50.5 -8q-106 0 -176 -16.5t-110.5 -48.5t-56 -80.5t-15.5 -110.5v-5h673v-1060h-38q-40 -22 -68 -54t-28 -71q0 -25 14 -39.5t42 -14.5q15 0 24 1 t15.5 2.5t10.5 3t9 1.5q22 0 29 -19l47 -114q-36 -22 -89.5 -36.5t-113.5 -14.5q-110 0 -166.5 43t-56.5 109q0 52 34 104.5t111 98.5h-93v843h-346v-843h-318v844l-69 14q-36 8 -58 25.5t-22 51.5z" />
<glyph unicode="f&#x131;" horiz-adv-x="1283" d="M37 935v125h149v107q0 83 22.5 150t66 114t107 72t146.5 25q31 0 56 -3t50 -12v-166q0 -24 -18 -32.5t-39 -8.5q-48 0 -65.5 -31.5t-17.5 -106.5v-108h673v-1060h-317v843h-346v-843h-318v844l-69 14q-36 8 -58 25.5t-22 51.5z" />
<glyph unicode="ff&#xec;" horiz-adv-x="1963" d="M37 935v125h149v40q0 91 29.5 165t84 126.5t133.5 80.5t179 28q39 0 72 -4.5t69 -13.5l-7 -155q-2 -33 -27 -45.5t-51 -12.5q-42 0 -75 -8.5t-55 -29t-33 -54.5t-11 -86v-31h372v80q0 91 35 165t105.5 126.5t179 80.5t256.5 28q55 0 95.5 -4t68 -11t43.5 -18.5t24 -24.5 l160 -286h-180q-36 0 -57.5 9.5t-45.5 33.5l-93 94h-11q-79 0 -131 -12.5t-83.5 -38.5t-44.5 -64t-13 -89v-69h673v-1060h-317v843h-346v-843h-318v843h-362v-843h-318v844l-69 14q-36 8 -58 25.5t-22 51.5z" />
<glyph unicode="ff&#xee;" horiz-adv-x="1961" d="M37 0zM37 935v125h149v40q0 91 29.5 165t84 126.5t133.5 80.5t179 28q39 0 72 -4.5t69 -13.5l-7 -155q-2 -33 -27 -45.5t-51 -12.5q-42 0 -75 -8.5t-55 -29t-33 -54.5t-11 -86v-31h372v107q0 83 22.5 150t66 114t107 72t146.5 25q31 0 56 -3t50 -12v-166q0 -24 -18 -32.5 t-40 -8.5q-48 0 -65 -31.5t-17 -106.5v-108h673v-1060h-317v843h-346v-843h-318v843h-362v-843h-318v844l-69 14q-36 8 -58 25.5t-22 51.5zM1305 1196l240 296h299l240 -296h-211q-18 0 -35.5 5.5t-35.5 23.5l-77 85l-12.5 12.5t-12.5 14.5q-6 -8 -13 -15t-13 -12l-79 -85 q-15 -14 -33.5 -21.5t-36.5 -7.5h-220z" />
<glyph unicode="ff&#x129;" horiz-adv-x="1961" d="M37 0zM37 935v125h149v40q0 91 29.5 165t84 126.5t133.5 80.5t179 28q39 0 72 -4.5t69 -13.5l-7 -155q-2 -33 -27 -45.5t-51 -12.5q-42 0 -75 -8.5t-55 -29t-33 -54.5t-11 -86v-31h372v107q0 83 22.5 150t66 114t107 72t146.5 25q31 0 56 -3t50 -12v-166q0 -24 -18 -32.5 t-40 -8.5q-48 0 -65 -31.5t-17 -106.5v-108h673v-1060h-317v843h-346v-843h-318v843h-362v-843h-318v844l-69 14q-36 8 -58 25.5t-22 51.5zM1341 1214q0 65 18.5 116.5t50.5 88.5t75 57t92 20q38 0 71 -11.5t61 -26t51 -26.5t40 -12q25 0 40 13t15 55h193q0 -65 -18 -116.5 t-49.5 -88t-74.5 -56t-94 -19.5q-38 0 -70.5 12t-60.5 26.5t-51 26t-41 11.5q-25 0 -39 -14t-14 -56h-195z" />
<glyph unicode="ff&#xef;" horiz-adv-x="1961" d="M37 935v125h149v40q0 91 29.5 165t84 126.5t133.5 80.5t179 28q39 0 72 -4.5t69 -13.5l-7 -155q-2 -33 -27 -45.5t-51 -12.5q-42 0 -75 -8.5t-55 -29t-33 -54.5t-11 -86v-31h372v107q0 83 22.5 150t66 114t107 72t146.5 25q31 0 56 -3t50 -12v-166q0 -24 -18 -32.5 t-40 -8.5q-48 0 -65 -31.5t-17 -106.5v-108h673v-1060h-317v843h-346v-843h-318v843h-362v-843h-318v844l-69 14q-36 8 -58 25.5t-22 51.5zM1339 1326q0 34 13.5 63.5t35.5 51.5t51 35t62 13q35 0 65 -13t53 -35t36.5 -51.5t13.5 -63.5q0 -33 -13.5 -61.5t-36.5 -49.5 t-53 -33.5t-65 -12.5q-33 0 -62 12.5t-51 33.5t-35.5 49.5t-13.5 61.5zM1714 1326q0 34 13 63.5t35.5 51.5t52 35t63.5 13q35 0 65 -13t52.5 -35t35.5 -51.5t13 -63.5q0 -33 -13 -61.5t-35.5 -49.5t-52.5 -33.5t-65 -12.5q-34 0 -63.5 12.5t-52 33.5t-35.5 49.5t-13 61.5z " />
<glyph unicode="ff&#x12b;" horiz-adv-x="1961" d="M37 0zM37 935v125h149v40q0 91 29.5 165t84 126.5t133.5 80.5t179 28q39 0 72 -4.5t69 -13.5l-7 -155q-2 -33 -27 -45.5t-51 -12.5q-42 0 -75 -8.5t-55 -29t-33 -54.5t-11 -86v-31h372v107q0 83 22.5 150t66 114t107 72t146.5 25q31 0 56 -3t50 -12v-166q0 -24 -18 -32.5 t-40 -8.5q-48 0 -65 -31.5t-17 -106.5v-108h673v-1060h-317v843h-346v-843h-318v843h-362v-843h-318v844l-69 14q-36 8 -58 25.5t-22 51.5zM1376 1230v194h635v-194h-635z" />
<glyph unicode="ff&#x12f;" horiz-adv-x="1961" d="M37 935v125h149v40q0 91 29.5 165t84 126.5t133.5 80.5t179 28q39 0 72 -4.5t69 -13.5l-7 -155q-2 -33 -27 -45.5t-51 -12.5q-42 0 -75 -8.5t-55 -29t-33 -54.5t-11 -86v-31h372v15q0 96 33.5 181.5t103 148.5t177.5 100t258 37q46 0 95 -4.5t85 -13.5l-10 -161 q-2 -26 -25.5 -34t-50.5 -8q-106 0 -176 -16.5t-110.5 -48.5t-56 -80.5t-15.5 -110.5v-5h673v-1060h-32q-40 -22 -68.5 -54t-28.5 -71q0 -25 14 -39.5t42 -14.5q15 0 24 1t15.5 2.5t10.5 3t9 1.5q22 0 29 -19l47 -114q-36 -22 -89.5 -36.5t-113.5 -14.5q-110 0 -166.5 43 t-56.5 109q0 52 34 104.5t111 98.5h-98v843h-346v-843h-318v843h-362v-843h-318v844l-69 14q-36 8 -58 25.5t-22 51.5z" />
<glyph unicode="ff&#x131;" horiz-adv-x="1963" d="M37 935v125h149v40q0 91 29.5 165t84 126.5t133.5 80.5t179 28q39 0 72 -4.5t69 -13.5l-7 -155q-2 -33 -27 -45.5t-51 -12.5q-42 0 -75 -8.5t-55 -29t-33 -54.5t-11 -86v-31h372v107q0 83 22.5 150t66 114t107 72t146.5 25q31 0 56 -3t50 -12v-166q0 -24 -18 -32.5 t-40 -8.5q-48 0 -65 -31.5t-17 -106.5v-108h673v-1060h-317v843h-346v-843h-318v843h-362v-843h-318v844l-69 14q-36 8 -58 25.5t-22 51.5z" />
<glyph unicode="fj" horiz-adv-x="1283" d="M37 935v125h149v15q0 96 33.5 181.5t103 148.5t177.5 100t258 37q46 0 95 -4.5t85 -13.5l-10 -161q-2 -26 -25.5 -34t-50.5 -8q-106 0 -176 -16.5t-110.5 -48.5t-56 -80.5t-15.5 -110.5v-5h673v-1062q0 -75 -19 -141t-62.5 -115.5t-114.5 -78.5t-176 -29q-39 0 -72.5 5 t-69.5 14l11 167q2 22 14 32t49 10t60.5 6t37.5 21.5t19.5 41.5t5.5 67v845h-346v-843h-318v844l-69 14q-36 8 -58 25.5t-22 51.5z" />
<glyph unicode="ffj" horiz-adv-x="1963" d="M37 935v125h149v40q0 91 29.5 165t84 126.5t133.5 80.5t179 28q39 0 72 -4.5t69 -13.5l-7 -155q-2 -33 -27 -45.5t-51 -12.5q-42 0 -75 -8.5t-55 -29t-33 -54.5t-11 -86v-31h372v15q0 96 33.5 181.5t103 148.5t177.5 100t258 37q46 0 95 -4.5t85 -13.5l-10 -161 q-2 -26 -25.5 -34t-50.5 -8q-106 0 -176 -16.5t-110.5 -48.5t-56 -80.5t-15.5 -110.5v-5h673v-1062q0 -75 -19 -141t-62.5 -115.5t-114.5 -78.5t-176 -29q-39 0 -72.5 5t-69.5 14l10 167q2 22 14.5 32t49.5 10t60.5 6t37.5 21.5t19.5 41.5t5.5 67v845h-346v-843h-318v843 h-362v-843h-318v844l-69 14q-36 8 -58 25.5t-22 51.5z" />
<glyph unicode="fk" horiz-adv-x="1915" d="M37 935v125h149v58q0 95 31.5 176t99 140t173.5 92.5t256 33.5q53 0 100 -4.5t95 -9t102.5 -8.5t123.5 -5h30v-859h47q30 0 45.5 8.5t30.5 29.5l201 299q18 26 41.5 38.5t60.5 12.5h291l-275 -378q-39 -51 -92 -84q24 -17 43.5 -40t36.5 -52l299 -508h-287 q-36 0 -61.5 12t-42.5 41l-201 376q-14 26 -29.5 33.5t-46.5 7.5h-61v-470h-317v1329q-36 14 -75.5 23.5t-78.5 9.5q-54 0 -97.5 -18.5t-73.5 -51t-45.5 -77.5t-15.5 -97v-58h248v-217h-238v-843h-318v844l-69 14q-36 8 -58 25.5t-22 51.5z" />
<glyph unicode="ffk" horiz-adv-x="2595" d="M37 935v125h149v40q0 91 29.5 165t84 126.5t133.5 80.5t179 28q39 0 72 -4.5t69 -13.5l-7 -155q-2 -33 -27 -45.5t-51 -12.5q-42 0 -75 -8.5t-55 -29t-33 -54.5t-11 -86v-31h372v58q0 95 31.5 176t99 140t173.5 92.5t256 33.5q53 0 100 -4.5t95 -9t102.5 -8.5t123.5 -5 h30v-859h47q30 0 45.5 8.5t30.5 29.5l201 299q18 26 41.5 38.5t60.5 12.5h291l-275 -378q-39 -51 -92 -84q24 -17 43.5 -40t36.5 -52l299 -508h-287q-36 0 -61.5 12t-42.5 41l-201 376q-14 26 -29.5 33.5t-46.5 7.5h-61v-470h-317v1329q-36 14 -75.5 23.5t-78.5 9.5 q-54 0 -97.5 -18.5t-73.5 -51t-45.5 -77.5t-15.5 -97v-58h248v-217h-238v-843h-318v843h-362v-843h-318v844l-69 14q-36 8 -58 25.5t-22 51.5z" />
<glyph unicode="ft" horiz-adv-x="1491" d="M37 935v125h149v60q0 91 29.5 165t84 126t133.5 81t179 29q39 0 72 -5t69 -15l-7 -154q-1 -16 -8 -27t-18.5 -18t-25 -10t-26.5 -3q-42 0 -75 -8t-55 -29t-33 -55.5t-11 -86.5v-50h406l64 261q12 49 69 49h166v-310h263v-217h-263v-528q0 -37 18 -61t52 -24q17 0 29 4 t20.5 8.5t16 8t18.5 3.5q14 0 22.5 -6.5t18.5 -21.5l96 -150q-61 -46 -138 -69t-159 -23q-76 0 -134 22t-97 62.5t-59.5 97.5t-20.5 128v549h-378v-843h-318v844l-69 14q-36 8 -58 25.5t-22 51.5z" />
<glyph unicode="fft" horiz-adv-x="2171" d="M37 935v125h149v40q0 91 29.5 165t84 126.5t133.5 80.5t179 28q39 0 72 -4.5t69 -13.5l-7 -155q-2 -33 -27 -45.5t-51 -12.5q-42 0 -75 -8.5t-55 -29t-33 -54.5t-11 -86v-31h372v60q0 91 29.5 165t84 126t133.5 81t179 29q39 0 72 -5t69 -15l-7 -154q-1 -16 -8 -27 t-18.5 -18t-25 -10t-26.5 -3q-42 0 -75 -8t-55 -29t-33 -55.5t-11 -86.5v-50h406l64 261q12 49 69 49h166v-310h263v-217h-263v-528q0 -37 18 -61t52 -24q17 0 29 4t20.5 8.5t16 8t18.5 3.5q14 0 22.5 -6.5t18.5 -21.5l96 -150q-61 -46 -138 -69t-159 -23q-76 0 -134 22 t-97 62.5t-59.5 97.5t-20.5 128v549h-378v-843h-318v843h-362v-843h-318v844l-69 14q-36 8 -58 25.5t-22 51.5z" />
<glyph unicode="tf" horiz-adv-x="1468" d="M27 905v124l169 33l62 259q12 49 70 49h166v-310h409v60q0 91 29.5 165t84 126t133.5 81t179 29q39 0 72 -5t68 -15l-6 -154q-1 -16 -8 -27t-19 -18t-25 -10t-27 -3q-42 0 -74.5 -8t-54.5 -29t-33.5 -55.5t-11.5 -86.5v-50h249v-217h-238v-843h-318v843h-409v-528 q0 -37 17.5 -61t51.5 -24q17 0 29 4t21 8.5t16.5 8t17.5 3.5q14 0 23 -6.5t18 -21.5l96 -150q-61 -46 -138 -69t-159 -23q-76 0 -133.5 22t-97 62.5t-60 97.5t-20.5 128v549h-90q-25 0 -42 15.5t-17 46.5z" />
<glyph unicode="t&#x12f;" horiz-adv-x="1372" d="M29 905v124l169 33l62 259q12 49 70 49h166v-310h761v-1060h-28q-40 -22 -68 -54t-28 -71q0 -25 13.5 -39.5t41.5 -14.5q15 0 24.5 1t15.5 2.5t10 3t9 1.5q22 0 29 -19l47 -114q-36 -22 -89 -36.5t-114 -14.5q-110 0 -166.5 43t-56.5 109q0 52 34.5 104.5t110.5 98.5 h-102v843h-444v-528q0 -37 17.5 -61t51.5 -24q17 0 29 4t21 8.5t16.5 8t17.5 3.5q14 0 23 -6.5t18 -21.5l96 -150q-61 -46 -138 -69t-159 -23q-76 0 -133.5 22t-97 62.5t-60 97.5t-20.5 128v549h-90q-25 0 -42 15.5t-17 46.5zM907 1353q0 39 15 72.5t41 59t60 40t73 14.5 q40 0 75 -14.5t62 -40t42 -59t15 -72.5q0 -38 -15 -71.5t-42 -58.5t-62 -40t-75 -15q-39 0 -73 15t-60 40t-41 58.5t-15 71.5z" />
<glyph unicode="t&#x131;" horiz-adv-x="1371" d="M27 905v124l169 33l62 259q12 49 70 49h166v-310h761v-1060h-317v843h-444v-528q0 -37 17.5 -61t51.5 -24q17 0 29 4t21 8.5t16.5 8t17.5 3.5q14 0 23 -6.5t18 -21.5l96 -150q-61 -46 -138 -69t-159 -23q-76 0 -133.5 22t-97 62.5t-60 97.5t-20.5 128v549h-90 q-25 0 -42 15.5t-17 46.5z" />
<glyph unicode="tt" horiz-adv-x="1477" d="M27 905v124l169 33l62 259q12 49 70 49h166v-310h392l63 261q12 49 70 49h166v-310h263v-217h-263v-528q0 -37 18 -61t51 -24q17 0 29 4t21 8.5t16.5 8t17.5 3.5q14 0 23 -6.5t18 -21.5l97 -150q-61 -46 -138 -69t-159 -23q-76 0 -134 22t-97.5 62.5t-60 97.5t-20.5 128 v549h-373v-528q0 -37 17.5 -61t51.5 -24q17 0 29 4t21 8.5t16.5 8t17.5 3.5q14 0 23 -6.5t18 -21.5l96 -150q-61 -46 -138 -69t-159 -23q-76 0 -133.5 22t-97 62.5t-60 97.5t-20.5 128v549h-90q-25 0 -42 15.5t-17 46.5z" />
<glyph unicode="ttf" horiz-adv-x="2159" d="M27 905v124l169 33l62 259q12 49 70 49h166v-310h392l63 261q12 49 70 49h166v-310h409v60q0 91 29.5 165t84 126t133.5 81t179 29q39 0 72 -5t69 -15l-7 -154q-1 -16 -8 -27t-18.5 -18t-25 -10t-26.5 -3q-42 0 -75 -8t-55 -29t-33 -55.5t-11 -86.5v-50h248v-217h-238 v-843h-318v843h-409v-528q0 -37 18 -61t51 -24q17 0 29 4t21 8.5t16.5 8t17.5 3.5q14 0 23 -6.5t18 -21.5l97 -150q-61 -46 -138 -69t-159 -23q-76 0 -134 22t-97.5 62.5t-60 97.5t-20.5 128v549h-373v-528q0 -37 17.5 -61t51.5 -24q17 0 29 4t21 8.5t16.5 8t17.5 3.5 q14 0 23 -6.5t18 -21.5l96 -150q-61 -46 -138 -69t-159 -23q-76 0 -133.5 22t-97 62.5t-60 97.5t-20.5 128v549h-90q-25 0 -42 15.5t-17 46.5z" />
<glyph unicode="tt&#x12f;" horiz-adv-x="2042" d="M29 905v124l169 33l62 259q12 49 70 49h166v-310h392l63 261q12 49 70 49h166v-310h741v-1060h-25q-40 -22 -68.5 -54t-28.5 -71q0 -25 14 -39.5t42 -14.5q15 0 24 1t15.5 2.5t10.5 3t9 1.5q22 0 29 -19l47 -114q-36 -22 -89.5 -36.5t-113.5 -14.5q-110 0 -166.5 43 t-56.5 109q0 52 34 104.5t111 98.5h-105v843h-424v-528q0 -37 18 -61t51 -24q17 0 29 4t21 8.5t16.5 8t17.5 3.5q14 0 23 -6.5t18 -21.5l97 -150q-61 -46 -138 -69t-159 -23q-76 0 -134 22t-97.5 62.5t-60 97.5t-20.5 128v549h-373v-528q0 -37 17.5 -61t51.5 -24q17 0 29 4 t21 8.5t16.5 8t17.5 3.5q14 0 23 -6.5t18 -21.5l96 -150q-61 -46 -138 -69t-159 -23q-76 0 -133.5 22t-97 62.5t-60 97.5t-20.5 128v549h-90q-25 0 -42 15.5t-17 46.5zM1578 1353q0 39 15 72.5t41 59t59.5 40t72.5 14.5q40 0 75.5 -14.5t62 -40t42 -59t15.5 -72.5 q0 -38 -15.5 -71.5t-42 -58.5t-62 -40t-75.5 -15q-39 0 -72.5 15t-59.5 40t-41 58.5t-15 71.5z" />
<glyph unicode="tt&#x131;" horiz-adv-x="2041" d="M27 905v124l169 33l62 259q12 49 70 49h166v-310h392l63 261q12 49 70 49h166v-310h741v-1060h-317v843h-424v-528q0 -37 18 -61t51 -24q17 0 29 4t21 8.5t16.5 8t17.5 3.5q14 0 23 -6.5t18 -21.5l97 -150q-61 -46 -138 -69t-159 -23q-76 0 -134 22t-97.5 62.5t-60 97.5 t-20.5 128v549h-373v-528q0 -37 17.5 -61t51.5 -24q17 0 29 4t21 8.5t16.5 8t17.5 3.5q14 0 23 -6.5t18 -21.5l96 -150q-61 -46 -138 -69t-159 -23q-76 0 -133.5 22t-97 62.5t-60 97.5t-20.5 128v549h-90q-25 0 -42 15.5t-17 46.5z" />
<glyph unicode="f&#x237;" horiz-adv-x="1283" d="M37 935v125h149v107q0 83 22.5 150t66 114t107 72t146.5 25q31 0 56 -3t50 -12v-166q0 -24 -18 -32.5t-39 -8.5q-48 0 -65.5 -31.5t-17.5 -106.5v-108h673v-1062q0 -75 -19 -141t-62.5 -115.5t-114.5 -78.5t-176 -29q-39 0 -72.5 5t-69.5 14l11 167q2 22 14 32t49 10 t60.5 6t37.5 21.5t19.5 41.5t5.5 67v845h-346v-843h-318v844l-69 14q-36 8 -58 25.5t-22 51.5z" />
<glyph unicode="ff&#x237;" horiz-adv-x="1963" d="M37 935v125h149v40q0 91 29.5 165t84 126.5t133.5 80.5t179 28q39 0 72 -4.5t69 -13.5l-7 -155q-2 -33 -27 -45.5t-51 -12.5q-42 0 -75 -8.5t-55 -29t-33 -54.5t-11 -86v-31h372v107q0 83 22.5 150t66 114t107 72t146.5 25q31 0 56 -3t50 -12v-166q0 -24 -18 -32.5 t-40 -8.5q-48 0 -65 -31.5t-17 -106.5v-108h673v-1062q0 -75 -19 -141t-62.5 -115.5t-114.5 -78.5t-176 -29q-39 0 -72.5 5t-69.5 14l10 167q2 22 14.5 32t49.5 10t60.5 6t37.5 21.5t19.5 41.5t5.5 67v845h-346v-843h-318v843h-362v-843h-318v844l-69 14q-36 8 -58 25.5 t-22 51.5z" />
<glyph unicode="f&#x135;" horiz-adv-x="1282" d="M37 0zM37 935v125h149v107q0 83 22.5 150t66 114t107 72t146.5 25q31 0 56 -3t50 -12v-166q0 -24 -18 -32.5t-39 -8.5q-48 0 -65.5 -31.5t-17.5 -106.5v-108h673v-1062q0 -75 -19 -141t-62.5 -115.5t-114.5 -78.5t-176 -29q-39 0 -72.5 5t-69.5 14l11 167q2 22 14 32 t49 10t60.5 6t37.5 21.5t19.5 41.5t5.5 67v845h-346v-843h-318v844l-69 14q-36 8 -58 25.5t-22 51.5zM621 1196l240 296h299l240 -296h-211q-18 0 -35.5 5.5t-35.5 23.5l-77 85l-12.5 12.5t-12.5 14.5q-6 -8 -13 -15t-13 -12l-79 -85q-15 -14 -33.5 -21.5t-36.5 -7.5h-220z " />
<glyph unicode="f&#x13e;" horiz-adv-x="1294" d="M37 0zM37 935v125h149v37q0 81 27 158t82 137t141 96.5t205 36.5q100 0 189 -6.5t180 -6.5h178v-1512h-316v1299q-52 2 -100.5 5t-79.5 3q-97 0 -147.5 -54t-50.5 -156v-37h229v-217h-219v-843h-318v844l-69 14q-36 8 -58 25.5t-22 51.5zM1276 1164l68 371h215 q16 0 26 -4t15 -11t6.5 -14t1.5 -13q0 -8 -3.5 -23.5t-15.5 -45t-34 -79.5t-58 -127q-17 -34 -42.5 -44t-65.5 -10h-113z" />
<glyph unicode="f&#x13c;" horiz-adv-x="1295" d="M37 0zM37 935v125h149v37q0 81 27 158t82 137t141 96.5t205 36.5q100 0 189 -6.5t180 -6.5h178v-1512h-316v1299q-52 2 -100.5 5t-79.5 3q-97 0 -147.5 -54t-50.5 -156v-37h229v-217h-219v-843h-318v844l-69 14q-36 8 -58 25.5t-22 51.5zM873 -397l54 310h194 q16 0 26.5 -4t15 -11t6 -14t1.5 -13q0 -9 -2 -24.5t-9.5 -41t-23 -62t-41.5 -87.5q-17 -34 -42.5 -43.5t-65.5 -9.5h-113z" />
<glyph unicode="f&#x21b;" horiz-adv-x="1491" d="M37 0zM37 935v125h149v60q0 91 29.5 165t84 126t133.5 81t179 29q39 0 72 -5t69 -15l-7 -154q-1 -16 -8 -27t-18.5 -18t-25 -10t-26.5 -3q-42 0 -75 -8t-55 -29t-33 -55.5t-11 -86.5v-50h406l64 261q12 49 69 49h166v-310h263v-217h-263v-528q0 -37 18 -61t52 -24 q17 0 29 4t20.5 8.5t16 8t18.5 3.5q14 0 22.5 -6.5t18.5 -21.5l96 -150q-61 -46 -138 -69t-159 -23q-76 0 -134 22t-97 62.5t-59.5 97.5t-20.5 128v549h-378v-843h-318v844l-69 14q-36 8 -58 25.5t-22 51.5zM1006 -397l54 310h194q16 0 26.5 -4t15 -11t6 -14t1.5 -13 q0 -9 -2 -24.5t-9.5 -41t-23 -62t-41.5 -87.5q-17 -34 -42.5 -43.5t-65.5 -9.5h-113z" />
<glyph unicode="f&#x165;" horiz-adv-x="1491" d="M37 0zM37 935v125h149v60q0 91 29.5 165t84 126t133.5 81t179 29q39 0 72 -5t69 -15l-7 -154q-1 -16 -8 -27t-18.5 -18t-25 -10t-26.5 -3q-42 0 -75 -8t-55 -29t-33 -55.5t-11 -86.5v-50h406l64 261q12 49 69 49h166v-310h263v-217h-263v-528q0 -37 18 -61t52 -24 q17 0 29 4t20.5 8.5t16 8t18.5 3.5q14 0 22.5 -6.5t18.5 -21.5l96 -150q-61 -46 -138 -69t-159 -23q-76 0 -134 22t-97 62.5t-59.5 97.5t-20.5 128v549h-378v-843h-318v844l-69 14q-36 8 -58 25.5t-22 51.5zM1322 1164l68 371h215q16 0 26 -4t15 -11t6.5 -14t1.5 -13 q0 -8 -3.5 -23.5t-15.5 -45t-34 -79.5t-58 -127q-17 -34 -42.5 -44t-65.5 -10h-113z" />
<glyph unicode="f&#xed;" horiz-adv-x="1282" d="M37 0zM37 935v125h149v107q0 83 22.5 150t66 114t107 72t146.5 25q31 0 56 -3t50 -12v-166q0 -24 -18 -32.5t-39 -8.5q-48 0 -65.5 -31.5t-17.5 -106.5v-108h673v-1060h-317v843h-346v-843h-318v844l-69 14q-36 8 -58 25.5t-22 51.5zM854 1196l139 251q17 30 41 45.5 t72 15.5h307l-266 -269q-24 -24 -45.5 -33.5t-57.5 -9.5h-190z" />
<glyph unicode="ff&#xed;" horiz-adv-x="1961" d="M37 0zM37 935v125h149v40q0 91 29.5 165t84 126.5t133.5 80.5t179 28q39 0 72 -4.5t69 -13.5l-7 -155q-2 -33 -27 -45.5t-51 -12.5q-42 0 -75 -8.5t-55 -29t-33 -54.5t-11 -86v-31h372v107q0 83 22.5 150t66 114t107 72t146.5 25q31 0 56 -3t50 -12v-166q0 -24 -18 -32.5 t-40 -8.5q-48 0 -65 -31.5t-17 -106.5v-108h673v-1060h-317v843h-346v-843h-318v843h-362v-843h-318v844l-69 14q-36 8 -58 25.5t-22 51.5zM1539 1196l139 251q17 30 41 45.5t72 15.5h307l-266 -269q-24 -24 -45.5 -33.5t-57.5 -9.5h-190z" />
<glyph unicode="f&#x13a;" horiz-adv-x="1295" d="M37 0zM37 935v125h149v37q0 81 27 158t82 137t141 96.5t205 36.5q100 0 189 -6.5t180 -6.5h178v-1512h-316v1299q-52 2 -100.5 5t-79.5 3q-97 0 -147.5 -54t-50.5 -156v-37h229v-217h-219v-843h-318v844l-69 14q-36 8 -58 25.5t-22 51.5zM835 1588l194 277q12 16 24 26 t25.5 14.5t31.5 5.5t42 1h350l-331 -292q-12 -11 -23 -17.5t-23.5 -9.5t-26.5 -4t-31 -1h-232z" />
<glyph unicode="ti" horiz-adv-x="1370" d="M27 0zM27 905v124l169 33l62 259q12 49 70 49h166v-310h761v-1060h-317v843h-444v-528q0 -37 17.5 -61t51.5 -24q17 0 29 4t21 8.5t16.5 8t17.5 3.5q14 0 23 -6.5t18 -21.5l96 -150q-61 -46 -138 -69t-159 -23q-76 0 -133.5 22t-97 62.5t-60 97.5t-20.5 128v549h-90 q-25 0 -42 15.5t-17 46.5zM916 1354q0 38 15 72t41 59t60 40t73 15q40 0 75 -15t61.5 -40t42 -59t15.5 -72t-15.5 -72t-42 -59t-62 -39.5t-74.5 -14.5t-73 14.5t-60 39.5t-41 59t-15 72z" />
<glyph unicode="t&#xec;" horiz-adv-x="1370" d="M27 0zM27 905v124l169 33l62 259q12 49 70 49h166v-310h761v-1060h-317v843h-444v-528q0 -37 17.5 -61t51.5 -24q17 0 29 4t21 8.5t16.5 8t17.5 3.5q14 0 23 -6.5t18 -21.5l96 -150q-61 -46 -138 -69t-159 -23q-76 0 -133.5 22t-97 62.5t-60 97.5t-20.5 128v549h-90 q-25 0 -42 15.5t-17 46.5zM730 1508h297q48 0 71.5 -15.5t40.5 -45.5l140 -251h-181q-36 0 -57 9.5t-45 33.5z" />
<glyph unicode="t&#xed;" horiz-adv-x="1370" d="M27 0zM27 905v124l169 33l62 259q12 49 70 49h166v-310h761v-1060h-317v843h-444v-528q0 -37 17.5 -61t51.5 -24q17 0 29 4t21 8.5t16.5 8t17.5 3.5q14 0 23 -6.5t18 -21.5l96 -150q-61 -46 -138 -69t-159 -23q-76 0 -133.5 22t-97 62.5t-60 97.5t-20.5 128v549h-90 q-25 0 -42 15.5t-17 46.5zM953 1196l139 251q17 30 41 45.5t72 15.5h307l-266 -269q-24 -24 -45.5 -33.5t-57.5 -9.5h-190z" />
<glyph unicode="t&#xee;" horiz-adv-x="1370" d="M27 0zM27 905v124l169 33l62 259q12 49 70 49h166v-310h761v-1060h-317v843h-444v-528q0 -37 17.5 -61t51.5 -24q17 0 29 4t21 8.5t16.5 8t17.5 3.5q14 0 23 -6.5t18 -21.5l96 -150q-61 -46 -138 -69t-159 -23q-76 0 -133.5 22t-97 62.5t-60 97.5t-20.5 128v549h-90 q-25 0 -42 15.5t-17 46.5zM717 1196l240 296h299l240 -296h-211q-18 0 -35.5 5.5t-35.5 23.5l-77 85l-12.5 12.5t-12.5 14.5q-6 -8 -13 -15t-13 -12l-79 -85q-15 -14 -33.5 -21.5t-36.5 -7.5h-220z" />
<glyph unicode="t&#xef;" horiz-adv-x="1370" d="M27 0zM27 905v124l169 33l62 259q12 49 70 49h166v-310h761v-1060h-317v843h-444v-528q0 -37 17.5 -61t51.5 -24q17 0 29 4t21 8.5t16.5 8t17.5 3.5q14 0 23 -6.5t18 -21.5l96 -150q-61 -46 -138 -69t-159 -23q-76 0 -133.5 22t-97 62.5t-60 97.5t-20.5 128v549h-90 q-25 0 -42 15.5t-17 46.5zM754 1326q0 34 13.5 63.5t35.5 51.5t51 35t62 13q35 0 65 -13t53 -35t36.5 -51.5t13.5 -63.5q0 -33 -13.5 -61.5t-36.5 -49.5t-53 -33.5t-65 -12.5q-33 0 -62 12.5t-51 33.5t-35.5 49.5t-13.5 61.5zM1129 1326q0 34 13 63.5t35.5 51.5t52 35 t63.5 13q35 0 65 -13t52.5 -35t35.5 -51.5t13 -63.5q0 -33 -13 -61.5t-35.5 -49.5t-52.5 -33.5t-65 -12.5q-34 0 -63.5 12.5t-52 33.5t-35.5 49.5t-13 61.5z" />
<glyph unicode="t&#x12b;" horiz-adv-x="1370" d="M27 0zM27 905v124l169 33l62 259q12 49 70 49h166v-310h761v-1060h-317v843h-444v-528q0 -37 17.5 -61t51.5 -24q17 0 29 4t21 8.5t16.5 8t17.5 3.5q14 0 23 -6.5t18 -21.5l96 -150q-61 -46 -138 -69t-159 -23q-76 0 -133.5 22t-97 62.5t-60 97.5t-20.5 128v549h-90 q-25 0 -42 15.5t-17 46.5zM789 1230v194h635v-194h-635z" />
<glyph unicode="t&#x129;" horiz-adv-x="1370" d="M27 0zM27 905v124l169 33l62 259q12 49 70 49h166v-310h761v-1060h-317v843h-444v-528q0 -37 17.5 -61t51.5 -24q17 0 29 4t21 8.5t16.5 8t17.5 3.5q14 0 23 -6.5t18 -21.5l96 -150q-61 -46 -138 -69t-159 -23q-76 0 -133.5 22t-97 62.5t-60 97.5t-20.5 128v549h-90 q-25 0 -42 15.5t-17 46.5zM754 1214q0 65 18.5 116.5t50.5 88.5t75 57t92 20q38 0 71 -11.5t61 -26t51 -26.5t40 -12q25 0 40 13t15 55h193q0 -65 -18 -116.5t-49.5 -88t-74.5 -56t-94 -19.5q-38 0 -70.5 12t-60.5 26.5t-51 26t-41 11.5q-25 0 -39 -14t-14 -56h-195z" />
<glyph unicode="tti" horiz-adv-x="2040" d="M27 0zM27 905v124l169 33l62 259q12 49 70 49h166v-310h392l63 261q12 49 70 49h166v-310h741v-1060h-317v843h-424v-528q0 -37 18 -61t51 -24q17 0 29 4t21 8.5t16.5 8t17.5 3.5q14 0 23 -6.5t18 -21.5l97 -150q-61 -46 -138 -69t-159 -23q-76 0 -134 22t-97.5 62.5 t-60 97.5t-20.5 128v549h-373v-528q0 -37 17.5 -61t51.5 -24q17 0 29 4t21 8.5t16.5 8t17.5 3.5q14 0 23 -6.5t18 -21.5l96 -150q-61 -46 -138 -69t-159 -23q-76 0 -133.5 22t-97 62.5t-60 97.5t-20.5 128v549h-90q-25 0 -42 15.5t-17 46.5zM1581 1354q0 38 15 72t41 59 t60 40t73 15q40 0 75 -15t61.5 -40t42 -59t15.5 -72t-15.5 -72t-42 -59t-62 -39.5t-74.5 -14.5t-73 14.5t-60 39.5t-41 59t-15 72z" />
<glyph unicode="tt&#xec;" horiz-adv-x="2040" d="M27 0zM27 905v124l169 33l62 259q12 49 70 49h166v-310h392l63 261q12 49 70 49h166v-310h741v-1060h-317v843h-424v-528q0 -37 18 -61t51 -24q17 0 29 4t21 8.5t16.5 8t17.5 3.5q14 0 23 -6.5t18 -21.5l97 -150q-61 -46 -138 -69t-159 -23q-76 0 -134 22t-97.5 62.5 t-60 97.5t-20.5 128v549h-373v-528q0 -37 17.5 -61t51.5 -24q17 0 29 4t21 8.5t16.5 8t17.5 3.5q14 0 23 -6.5t18 -21.5l96 -150q-61 -46 -138 -69t-159 -23q-76 0 -133.5 22t-97 62.5t-60 97.5t-20.5 128v549h-90q-25 0 -42 15.5t-17 46.5zM1395 1508h297q48 0 71.5 -15.5 t40.5 -45.5l140 -251h-181q-36 0 -57 9.5t-45 33.5z" />
<glyph unicode="tt&#xed;" horiz-adv-x="2040" d="M27 0zM27 905v124l169 33l62 259q12 49 70 49h166v-310h392l63 261q12 49 70 49h166v-310h741v-1060h-317v843h-424v-528q0 -37 18 -61t51 -24q17 0 29 4t21 8.5t16.5 8t17.5 3.5q14 0 23 -6.5t18 -21.5l97 -150q-61 -46 -138 -69t-159 -23q-76 0 -134 22t-97.5 62.5 t-60 97.5t-20.5 128v549h-373v-528q0 -37 17.5 -61t51.5 -24q17 0 29 4t21 8.5t16.5 8t17.5 3.5q14 0 23 -6.5t18 -21.5l96 -150q-61 -46 -138 -69t-159 -23q-76 0 -133.5 22t-97 62.5t-60 97.5t-20.5 128v549h-90q-25 0 -42 15.5t-17 46.5zM1618 1196l139 251 q17 30 41 45.5t72 15.5h307l-266 -269q-24 -24 -45.5 -33.5t-57.5 -9.5h-190z" />
<glyph unicode="tt&#xee;" horiz-adv-x="2040" d="M27 0zM27 905v124l169 33l62 259q12 49 70 49h166v-310h392l63 261q12 49 70 49h166v-310h741v-1060h-317v843h-424v-528q0 -37 18 -61t51 -24q17 0 29 4t21 8.5t16.5 8t17.5 3.5q14 0 23 -6.5t18 -21.5l97 -150q-61 -46 -138 -69t-159 -23q-76 0 -134 22t-97.5 62.5 t-60 97.5t-20.5 128v549h-373v-528q0 -37 17.5 -61t51.5 -24q17 0 29 4t21 8.5t16.5 8t17.5 3.5q14 0 23 -6.5t18 -21.5l96 -150q-61 -46 -138 -69t-159 -23q-76 0 -133.5 22t-97 62.5t-60 97.5t-20.5 128v549h-90q-25 0 -42 15.5t-17 46.5zM1382 1196l240 296h299l240 -296 h-211q-18 0 -35.5 5.5t-35.5 23.5l-77 85l-12.5 12.5t-12.5 14.5q-6 -8 -13 -15t-13 -12l-79 -85q-15 -14 -33.5 -21.5t-36.5 -7.5h-220z" />
<glyph unicode="tt&#xef;" horiz-adv-x="2040" d="M27 0zM27 905v124l169 33l62 259q12 49 70 49h166v-310h392l63 261q12 49 70 49h166v-310h741v-1060h-317v843h-424v-528q0 -37 18 -61t51 -24q17 0 29 4t21 8.5t16.5 8t17.5 3.5q14 0 23 -6.5t18 -21.5l97 -150q-61 -46 -138 -69t-159 -23q-76 0 -134 22t-97.5 62.5 t-60 97.5t-20.5 128v549h-373v-528q0 -37 17.5 -61t51.5 -24q17 0 29 4t21 8.5t16.5 8t17.5 3.5q14 0 23 -6.5t18 -21.5l96 -150q-61 -46 -138 -69t-159 -23q-76 0 -133.5 22t-97 62.5t-60 97.5t-20.5 128v549h-90q-25 0 -42 15.5t-17 46.5zM1419 1326q0 34 13.5 63.5 t35.5 51.5t51 35t62 13q35 0 65 -13t53 -35t36.5 -51.5t13.5 -63.5q0 -33 -13.5 -61.5t-36.5 -49.5t-53 -33.5t-65 -12.5q-33 0 -62 12.5t-51 33.5t-35.5 49.5t-13.5 61.5zM1794 1326q0 34 13 63.5t35.5 51.5t52 35t63.5 13q35 0 65 -13t52.5 -35t35.5 -51.5t13 -63.5 q0 -33 -13 -61.5t-35.5 -49.5t-52.5 -33.5t-65 -12.5q-34 0 -63.5 12.5t-52 33.5t-35.5 49.5t-13 61.5z" />
<glyph unicode="tt&#x12b;" horiz-adv-x="2040" d="M27 0zM27 905v124l169 33l62 259q12 49 70 49h166v-310h392l63 261q12 49 70 49h166v-310h741v-1060h-317v843h-424v-528q0 -37 18 -61t51 -24q17 0 29 4t21 8.5t16.5 8t17.5 3.5q14 0 23 -6.5t18 -21.5l97 -150q-61 -46 -138 -69t-159 -23q-76 0 -134 22t-97.5 62.5 t-60 97.5t-20.5 128v549h-373v-528q0 -37 17.5 -61t51.5 -24q17 0 29 4t21 8.5t16.5 8t17.5 3.5q14 0 23 -6.5t18 -21.5l96 -150q-61 -46 -138 -69t-159 -23q-76 0 -133.5 22t-97 62.5t-60 97.5t-20.5 128v549h-90q-25 0 -42 15.5t-17 46.5zM1454 1230v194h635v-194h-635z " />
<glyph unicode="tt&#x129;" horiz-adv-x="2040" d="M27 0zM27 905v124l169 33l62 259q12 49 70 49h166v-310h392l63 261q12 49 70 49h166v-310h741v-1060h-317v843h-424v-528q0 -37 18 -61t51 -24q17 0 29 4t21 8.5t16.5 8t17.5 3.5q14 0 23 -6.5t18 -21.5l97 -150q-61 -46 -138 -69t-159 -23q-76 0 -134 22t-97.5 62.5 t-60 97.5t-20.5 128v549h-373v-528q0 -37 17.5 -61t51.5 -24q17 0 29 4t21 8.5t16.5 8t17.5 3.5q14 0 23 -6.5t18 -21.5l96 -150q-61 -46 -138 -69t-159 -23q-76 0 -133.5 22t-97 62.5t-60 97.5t-20.5 128v549h-90q-25 0 -42 15.5t-17 46.5zM1419 1214q0 65 18.5 116.5 t50.5 88.5t75 57t92 20q38 0 71 -11.5t61 -26t51 -26.5t40 -12q25 0 40 13t15 55h193q0 -65 -18 -116.5t-49.5 -88t-74.5 -56t-94 -19.5q-38 0 -70.5 12t-60.5 26.5t-51 26t-41 11.5q-25 0 -39 -14t-14 -56h-195z" />
<glyph horiz-adv-x="0" />
<glyph horiz-adv-x="0" />
<glyph unicode="&#xd;" horiz-adv-x="0" />
<glyph unicode=" "  horiz-adv-x="473" />
<glyph unicode="&#x09;" horiz-adv-x="473" />
<glyph unicode="&#xa0;" horiz-adv-x="473" />
<glyph unicode="!" horiz-adv-x="598" d="M117 161q0 37 13.5 68.5t38 55t57 37.5t71.5 14q38 0 70.5 -14t57.5 -37.5t38.5 -55t13.5 -68.5t-13.5 -69.5t-38.5 -56t-57.5 -36.5t-70.5 -13q-39 0 -71.5 13t-57 36.5t-38 56t-13.5 69.5zM152 906v586h297v-586q0 -94 -11.5 -186.5t-29.5 -189.5h-215 q-18 96 -29.5 189t-11.5 187z" />
<glyph unicode="&#x22;" horiz-adv-x="856" d="M85 924zM85 1199v293h276v-293l-28 -162q-9 -55 -33 -84t-78 -29q-46 0 -71.5 29t-36.5 84zM495 1199v293h276v-293l-28 -162q-9 -55 -33 -84t-78 -29q-46 0 -71.5 29t-36.5 84z" />
<glyph unicode="#" d="M22 528l16 99h181l43 241h-204l25 129q9 47 40.5 70t98.5 23h70l53 300q9 48 46.5 75t86.5 27h146l-72 -402h170l72 402h141q25 0 44.5 -8t33.5 -22t20 -33t2 -41l-53 -298h199l-25 -129q-9 -48 -40.5 -70.5t-98.5 -22.5h-65l-43 -241h112q48 0 68.5 -28.5t9.5 -95.5 l-17 -99h-202l-72 -404h-148q-22 0 -40.5 10t-31.5 27.5t-18 40t0 48.5l50 278h-169l-51 -293q-5 -30 -18.5 -51t-32.5 -34.5t-42 -19.5t-48 -6h-141l71 404h-90q-48 0 -68.5 28.5t-8.5 95.5zM479 627h170l43 241h-170z" />
<glyph unicode="$" d="M40 180l98 143q12 17 33.5 29t44.5 12q25 0 50.5 -13t55.5 -31.5t66 -37.5t82 -31l38 387q-74 20 -146.5 48t-131 75t-95 119.5t-36.5 182.5q0 81 33 157.5t96 138t155 101t211 45.5l11 114q2 29 25 52t59 23h117l-21 -202q111 -20 191 -66t135 -98l-78 -114 q-17 -26 -35 -37.5t-43 -11.5q-16 0 -36.5 7.5t-45 18t-52.5 23t-60 21.5l-36 -364q49 -14 98 -31t95 -39t85 -50.5t68.5 -67.5t46 -89.5t16.5 -115.5q0 -97 -33 -182.5t-96.5 -151t-155.5 -107t-211 -50.5l-12 -128q-2 -29 -25 -52t-59 -23h-117l20 211q-118 19 -224.5 68 t-180.5 117zM398 1094q0 -60 38.5 -98t101.5 -63l30 309q-47 -7 -79 -21t-52 -33.5t-29.5 -43t-9.5 -50.5zM664 245q169 29 169 186q0 58 -37.5 93t-99.5 59z" />
<glyph unicode="%" horiz-adv-x="1712" d="M70 1130q0 85 26.5 154.5t74 118.5t112.5 76t143 27t144 -27t113.5 -76t74 -118.5t26.5 -154.5q0 -82 -29.5 -149.5t-78.5 -116t-114 -75t-136 -26.5q-78 0 -143 26.5t-112.5 75t-74 116.5t-26.5 149zM129 0l1124 1445q15 17 38 32t63 15h231l-1124 -1447 q-15 -19 -38.5 -32t-55.5 -13h-238zM315 1130q0 -49 8.5 -81.5t22.5 -52t34.5 -27.5t45.5 -8t46 8t36 27.5t24 52t9 81.5q0 52 -9 86.5t-24 55t-36 29t-46 8.5t-45.5 -8.5t-34.5 -29t-22.5 -54.5t-8.5 -87zM928 350q0 85 26.5 154t74 118.5t112.5 76.5t143 27t144 -27 t113.5 -76.5t74 -118.5t26.5 -154q0 -82 -29.5 -150t-78.5 -116.5t-114 -75t-136 -26.5q-78 0 -143 26.5t-112.5 75t-74 116.5t-26.5 150zM1174 350q0 -49 8 -81.5t22.5 -52t35 -28t44.5 -8.5q25 0 46 8.5t36 28t24 52t9 81.5q0 51 -9 85.5t-24 55t-36 28.5t-46 8t-45 -8 t-34.5 -28.5t-22.5 -55t-8 -85.5z" />
<glyph unicode="&#x26;" horiz-adv-x="1502" d="M60 421q0 68 21 128t59 112t91 94.5t115 73.5q-48 75 -69.5 147t-21.5 139q0 80 29 151t85 125t137.5 85.5t186.5 31.5q99 0 175 -29t128.5 -76.5t82 -110t36.5 -128.5l-205 -41q-54 -12 -80 43q-24 53 -55 81t-82 28q-36 0 -62.5 -13.5t-44.5 -35t-27 -50t-9 -59.5 q0 -27 4.5 -51t16 -49t30.5 -51.5t47 -58.5l369 -389q28 61 45 128t22 138q3 29 19.5 45.5t44.5 16.5h201q0 -150 -40 -279.5t-114 -236.5l313 -330h-313q-24 0 -42 2.5t-34 8.5t-30.5 17.5t-30.5 28.5l-65 68q-97 -68 -212 -104.5t-245 -36.5q-89 0 -175 30.5t-152.5 87.5 t-107.5 138t-41 181zM384 446q0 -49 15 -89t42.5 -68.5t66 -44.5t85.5 -16q69 0 127.5 18t109.5 51l-343 363q-56 -46 -79.5 -100t-23.5 -114z" />
<glyph unicode="'" horiz-adv-x="446" d="M85 1199v293h276v-293l-28 -162q-9 -55 -33 -84t-78 -29q-46 0 -71.5 29t-36.5 84z" />
<glyph unicode="(" horiz-adv-x="575" d="M59 641q0 131 16 258t50 249.5t87 241t128 234.5l141 -82q13 -8 24 -18.5t16.5 -24.5t3.5 -33t-15 -44q-42 -86 -74.5 -180.5t-55.5 -194.5t-34.5 -202.5t-11.5 -203.5t11.5 -203.5t34.5 -202t55.5 -194t74.5 -180.5q13 -25 15 -44t-3.5 -33t-16 -24.5t-24.5 -18.5 l-141 -82q-75 115 -128 233.5t-87 241t-50 249.5t-16 258z" />
<glyph unicode=")" horiz-adv-x="575" d="M50 -183q2 19 16 44q41 86 73.5 180.5t55.5 194t35 202t12 203.5t-12 203.5t-35 202.5t-56 194.5t-73 180.5q-13 25 -15.5 44t3 33t16.5 24.5t24 18.5l142 82q148 -231 214 -476t66 -507q0 -263 -66 -507.5t-214 -474.5l-142 82q-13 8 -24 18.5t-16.5 24.5t-3.5 33z" />
<glyph unicode="*" horiz-adv-x="870" d="M84 1078l149 87q19 11 39 19.5t40 12.5q-40 7 -79 33l-149 89l74 123l149 -90q18 -11 35 -23t31 -26q-12 35 -13 78v180h150v-178q0 -22 -2.5 -42t-8.5 -38q13 14 29.5 25.5t34.5 23.5l150 88l73 -123l-149 -87q-20 -11 -39.5 -19.5t-40.5 -12.5q20 -4 40 -12.5t40 -20.5 l149 -89l-73 -122l-150 89q-19 11 -35.5 23t-30.5 27q13 -36 13 -79v-179h-150v177q0 20 3 41t9 39q-26 -27 -65 -49l-149 -87z" />
<glyph unicode="+" d="M87 574v228h377v405h258v-405h379v-228h-379v-407h-258v407h-377z" />
<glyph unicode="," horiz-adv-x="491" d="M69 180q0 33 12 61t35 49t54.5 33.5t70.5 12.5q46 0 79.5 -16t56 -43t33.5 -62.5t11 -74.5q0 -51 -16.5 -109t-48.5 -116t-80.5 -114.5t-110.5 -102.5l-55 49q-23 18 -23 45q0 10 7 22t18 21q12 12 28.5 30t32 39.5t30 46.5t21.5 54q-36 3 -64.5 17.5t-48.5 38t-31 53.5 t-11 66z" />
<glyph unicode="-" horiz-adv-x="765" d="M106 495v256h553v-256h-553z" />
<glyph unicode="&#xad;" horiz-adv-x="765" d="M106 495v256h553v-256h-553z" />
<glyph unicode="." horiz-adv-x="489" d="M65 161q0 37 13.5 68.5t37.5 55t57 37.5t72 14q38 0 70.5 -14t57 -37.5t38.5 -55t14 -68.5t-14 -69.5t-38.5 -56t-57 -36.5t-70.5 -13q-39 0 -72 13t-57 36.5t-37.5 56t-13.5 69.5z" />
<glyph unicode="/" horiz-adv-x="980" d="M52 -101l582 1526q20 52 62 80t98 28h135l-576 -1521q-11 -28 -29 -49t-40 -35.5t-47 -21.5t-50 -7h-135z" />
<glyph unicode="0" d="M41 746q0 196 41.5 339.5t115 237.5t174.5 139.5t220 45.5t220.5 -45.5t176 -139.5t116.5 -237.5t42 -339.5t-42 -339t-116.5 -237t-176 -140t-220.5 -46t-220 46t-174.5 140t-115 237.5t-41.5 338.5zM369 746q0 -156 19 -254t50 -154.5t71.5 -77.5t82.5 -21t83 21 t73 77.5t51.5 154.5t19.5 254q0 155 -19.5 254t-51.5 155t-73 77t-83 21t-82.5 -21t-71.5 -77t-50 -155t-19 -254z" />
<glyph unicode="1" d="M103 1103l465 390h262v-1264h246v-229h-850v229h287v753q0 55 3 116l-169 -141q-23 -17 -44.5 -20.5t-41 0t-35 13t-22.5 20.5z" />
<glyph unicode="2" d="M61 0v102q0 30 12.5 64t43.5 61l430 433q55 55 96 105.5t67.5 99t40 97.5t13.5 103q0 89 -42.5 136.5t-129.5 47.5q-71 0 -119.5 -37t-66.5 -93q-22 -56 -57 -74.5t-99 -8.5l-168 30q16 112 62.5 194.5t116 138t158.5 82.5t191 27q111 0 199.5 -32t151 -89.5t96 -137 t33.5 -174.5q0 -82 -23.5 -151.5t-63 -132.5t-92.5 -122t-112 -119l-292 -299q56 16 111 26t103 10h278q51 0 81 -28.5t30 -74.5v-184h-1049z" />
<glyph unicode="3" d="M49 383l141 57q55 22 102.5 11.5t67.5 -47.5q46 -85 98 -123t122 -38q53 0 92.5 18t65.5 46t39.5 64t13.5 72q0 48 -7 86.5t-37.5 66.5t-92.5 42.5t-173 14.5v219q93 0 150.5 14.5t89 39.5t41.5 61t10 79q0 88 -42.5 135.5t-129.5 47.5q-71 0 -119.5 -37t-66.5 -93 q-22 -56 -56.5 -74.5t-99.5 -8.5l-168 30q16 112 63 194.5t116 138t158 82.5t191 27q111 0 197 -31t145.5 -84.5t90 -123.5t30.5 -148q0 -71 -14 -124.5t-42.5 -93t-70 -67t-94.5 -45.5q248 -86 248 -337q0 -119 -43 -207t-115 -146.5t-167.5 -87.5t-198.5 -29 q-106 0 -189.5 23t-148 71.5t-113 124.5t-84.5 180z" />
<glyph unicode="4" d="M-5 564l690 928h303v-912h154v-179q0 -24 -16 -41t-46 -17h-92v-343h-276v343h-600q-30 0 -54 18.5t-30 46.5zM328 580h384v389q0 36 2.5 77t7.5 86z" />
<glyph unicode="5" d="M65 174l98 131q15 20 35.5 31t44.5 11q31 0 58 -17t59 -37t75 -36t107 -16q63 0 108 21t73.5 57t41 85t12.5 104q0 109 -61.5 165.5t-173.5 56.5q-100 0 -197 -38l-197 53l127 747h764v-131q0 -33 -10 -59.5t-32 -46.5t-58 -31t-86 -11h-356l-42 -246q42 7 80.5 10.5 t75.5 3.5q118 0 208 -36t151.5 -98t93 -145.5t31.5 -178.5q0 -120 -42.5 -218.5t-118.5 -170.5t-181 -111t-230 -39q-73 0 -139 15t-123.5 41.5t-107 60.5t-88.5 73z" />
<glyph unicode="6" d="M63 518q0 220 170 448l336 453q24 30 68.5 51.5t101.5 21.5h283l-442 -528q-10 -11 -20 -23t-19 -23q36 13 75 20t84 7q81 0 160 -26.5t141.5 -82t101 -140t38.5 -198.5q0 -104 -39 -198t-110 -164t-171.5 -111t-222.5 -41q-125 0 -224.5 39t-168.5 110t-105.5 169 t-36.5 216zM369 475q0 -55 13 -99t41 -76t70 -49t99 -17q49 0 91.5 18.5t73 51t48.5 76t18 94.5q0 57 -16.5 102.5t-47.5 76t-74.5 47t-96.5 16.5q-48 0 -88 -17t-69.5 -49t-45.5 -76t-16 -99z" />
<glyph unicode="7" d="M81 1283v209h1048v-133q0 -59 -13 -95.5t-25 -61.5l-519 -1098q-22 -43 -61 -73.5t-104 -30.5h-232l533 1068q24 43 47.5 78.5t53.5 66.5h-656q-14 0 -27 6t-23 15.5t-16 22.5t-6 26z" />
<glyph unicode="8" d="M61 427q0 60 14 114t44.5 98.5t78 79.5t114.5 58q-102 46 -151.5 128t-49.5 197q0 87 35.5 161t100 128.5t153 85.5t194.5 31q105 0 194 -31t153.5 -85.5t100 -128.5t35.5 -161q0 -115 -50 -197t-151 -128q67 -24 114 -58.5t77.5 -79t44.5 -98.5t14 -114q0 -100 -38 -182 t-108.5 -140t-168.5 -89.5t-217 -31.5t-217 31.5t-168.5 89.5t-109 140t-38.5 182zM389 433q0 -44 12 -82.5t37 -66.5t63.5 -44.5t92.5 -16.5q53 0 92 16.5t64 44.5t37 66.5t12 82.5q0 48 -10.5 88t-34 68t-63 44t-97.5 16t-97.5 -16t-63 -44t-34 -68t-10.5 -88zM420 1096 q0 -39 7 -76t26.5 -65.5t53.5 -46t87 -17.5t87 17.5t53.5 46t26.5 65.5t7 76q0 35 -9 67.5t-30 57.5t-54.5 40.5t-80.5 15.5q-48 0 -81 -15.5t-54 -40.5t-30 -58t-9 -67z" />
<glyph unicode="9" d="M65 1013q0 101 37 191t106.5 158t165.5 107t215 39q121 0 216 -36.5t161 -103t101.5 -158.5t35.5 -202q0 -146 -44 -262t-118 -219l-321 -456q-22 -30 -65.5 -50.5t-98.5 -20.5h-293l473 565q14 17 27 33t25 33q-46 -25 -100 -37t-114 -12q-73 0 -145.5 26t-131.5 79 t-95.5 134t-36.5 192zM382 1036q0 -223 207 -223q101 0 156 61t55 162q0 54 -16 96t-44 69.5t-68 41.5t-87 14q-48 0 -85.5 -16.5t-63.5 -46.5t-40 -70.5t-14 -87.5z" />
<glyph unicode=":" horiz-adv-x="542" d="M91 0zM92 161q0 37 13.5 68.5t37.5 55t57 37.5t72 14q38 0 70.5 -14t57 -37.5t38.5 -55t14 -68.5t-14 -69.5t-38.5 -56t-57 -36.5t-70.5 -13q-39 0 -72 13t-57 36.5t-37.5 56t-13.5 69.5zM92 860q0 37 13.5 68.5t37.5 55t57 37.5t72 14q38 0 70.5 -14t57 -37.5t38.5 -55 t14 -68.5t-14 -69.5t-38.5 -56t-57 -36.5t-70.5 -13q-39 0 -72 13t-57 36.5t-37.5 56t-13.5 69.5z" />
<glyph unicode=";" horiz-adv-x="571" d="M102 0zM103 860q0 37 13.5 68.5t37.5 55t57 37.5t72 14q38 0 70.5 -14t57 -37.5t38.5 -55t14 -68.5t-14 -69.5t-38.5 -56t-57 -36.5t-70.5 -13q-39 0 -72 13t-57 36.5t-37.5 56t-13.5 69.5zM111 180q0 33 12 61t35 49t54.5 33.5t70.5 12.5q46 0 79.5 -16t56 -43 t33.5 -62.5t11 -74.5q0 -51 -16.5 -109t-48.5 -116t-80.5 -114.5t-110.5 -102.5l-55 49q-23 18 -23 45q0 10 7 22t18 21q12 12 28.5 30t32 39.5t30 46.5t21.5 54q-36 3 -64.5 17.5t-48.5 38t-31 53.5t-11 66z" />
<glyph unicode="&#x3c;" d="M145 629v124l830 434v-220q0 -24 -12 -44t-39 -34l-291 -157q-27 -13 -56.5 -23.5t-62.5 -18.5q33 -8 62.5 -17t56.5 -23l291 -157q28 -13 39.5 -33.5t11.5 -43.5v-220z" />
<glyph unicode="=" d="M128 386v227h932v-227h-932zM128 761v228h932v-228h-932z" />
<glyph unicode="&#x3e;" d="M213 196v220q0 24 12 43.5t39 33.5l291 157q27 13 56.5 22.5t62.5 17.5q-66 15 -119 42l-291 157q-28 14 -39.5 34t-11.5 44v220l829 -434v-124z" />
<glyph unicode="?" horiz-adv-x="965" d="M62 1356q38 32 82.5 59.5t96 48.5t110.5 32.5t127 11.5q96 0 173.5 -25.5t132 -73t83.5 -114.5t29 -149q0 -78 -21.5 -135t-54.5 -99t-72 -72.5t-74.5 -56.5t-61.5 -51.5t-33 -57.5l-29 -144h-217l-23 165q-8 50 10.5 87.5t50.5 68t72 57.5t75 58t59 69.5t24 91.5 q0 61 -40.5 98t-110.5 37q-54 0 -90.5 -11.5t-63 -25.5t-46 -25t-38.5 -11q-44 0 -66 38zM251 161q0 37 14 68.5t38 55t56.5 37.5t71.5 14q38 0 71 -14t57.5 -37.5t38 -55t13.5 -68.5t-13.5 -69.5t-38 -56t-57.5 -36.5t-71 -13q-39 0 -71.5 13t-56.5 36.5t-38 56t-14 69.5z " />
<glyph unicode="@" horiz-adv-x="1739" d="M81 609q0 108 28.5 211.5t82 194.5t128 168t167 132.5t200 86.5t225.5 31q99 0 194 -22.5t179.5 -65.5t155.5 -105.5t122.5 -142t80 -175.5t28.5 -204q0 -110 -33 -206.5t-93 -169t-142.5 -114.5t-179.5 -42q-33 0 -64 7t-58 21.5t-49 39t-35 58.5q-61 -68 -128 -96.5 t-144 -28.5q-67 0 -116.5 23t-83.5 64t-51 97.5t-17 123.5q0 58 15 118.5t44.5 116t75 105.5t107 86t140 57.5t173.5 21.5q45 0 82 -3.5t68.5 -9.5t60 -15.5t58.5 -22.5l-101 -388q-13 -55 -13.5 -91t9 -57t28.5 -29.5t46 -8.5q37 0 69 26t55.5 72t37.5 108.5t14 136.5 q0 127 -38 223.5t-108 162t-169 99.5t-220 34q-132 0 -242.5 -49t-190.5 -134.5t-124.5 -200t-44.5 -244.5q0 -164 50 -287.5t137.5 -206.5t207.5 -124.5t261 -41.5q81 0 149 8.5t123 22.5t98 31.5t74 34.5q33 17 57 10t35 -36l43 -110q-51 -34 -113 -62.5t-134 -50 t-155 -33.5t-177 -12q-193 0 -354.5 60t-280 171.5t-184.5 270.5t-66 355zM722 503q0 -60 23 -90t65 -30q23 0 45 7t41 24t35 44.5t26 68.5l72 280q-25 3 -49 3q-51 0 -98 -24.5t-82.5 -66.5t-56.5 -98t-21 -118z" />
<glyph unicode="A" horiz-adv-x="1456" d="M-27 0l578 1492h354l578 -1492h-269q-45 0 -72.5 21t-41.5 54l-88 260h-568l-88 -260q-11 -29 -40 -52t-72 -23h-271zM524 570h408l-137 409q-15 39 -33 91.5t-35 114.5q-16 -62 -33 -115.5t-32 -92.5z" />
<glyph unicode="B" horiz-adv-x="1371" d="M144 0v1492h549q155 0 263.5 -28.5t177 -81t100 -127t31.5 -166.5q0 -50 -14.5 -97t-45 -88t-79 -74t-115.5 -58q147 -36 217.5 -116.5t70.5 -205.5q0 -95 -36.5 -177.5t-108 -143t-176 -95t-238.5 -34.5h-596zM490 261h244q69 0 112.5 17.5t68 45t33.5 62.5t9 71 q0 41 -10.5 73.5t-36.5 55t-69 35t-109 12.5h-242v-372zM490 864h181q57 0 103 8.5t78.5 29t49.5 56t17 90.5q0 53 -13.5 88t-41 56.5t-70 31t-101.5 9.5h-203v-369z" />
<glyph unicode="C" horiz-adv-x="1342" d="M61 746q0 167 54.5 307t153 241.5t235.5 157.5t302 56q84 0 158 -14.5t138.5 -41t119 -63t96.5 -79.5l-117 -157q-11 -14 -26.5 -26t-42.5 -12q-18 0 -35 8.5t-35.5 20t-40.5 25.5t-52 25.5t-70.5 20t-94.5 8.5q-86 0 -157.5 -32t-123 -93t-79.5 -149.5t-28 -202.5 q0 -115 31 -203.5t85 -149.5t125.5 -93t153.5 -32q47 0 86 5t73 15.5t63.5 28.5t60.5 45q12 10 26.5 17t29.5 7q12 0 24.5 -4.5t23.5 -15.5l137 -145q-90 -118 -225.5 -177.5t-321.5 -59.5q-170 0 -304.5 57.5t-228 159.5t-144 242t-50.5 303z" />
<glyph unicode="D" horiz-adv-x="1558" d="M144 0v1492h580q174 0 317 -56.5t244 -155.5t157 -236t56 -298q0 -162 -56 -298.5t-157 -236t-244 -155.5t-317 -56h-580zM493 266h231q99 0 177 33.5t131.5 95.5t82.5 150.5t29 200.5q0 111 -29 200t-82.5 151t-131.5 95.5t-177 33.5h-231v-960z" />
<glyph unicode="E" horiz-adv-x="1173" d="M144 0v1492h961v-266h-612v-348h469v-256h-469v-356h612v-266h-961z" />
<glyph unicode="F" horiz-adv-x="1160" d="M144 0v1492h961v-266h-612v-378h509v-267h-509v-581h-349z" />
<glyph unicode="G" horiz-adv-x="1479" d="M58 746q0 167 55.5 307t158.5 241.5t249 157.5t326 56q93 0 175 -15t151 -42t126.5 -63.5t102.5 -79.5l-100 -153q-24 -36 -62 -44q-8 -2 -17 -2q-30 0 -63 20q-41 25 -77 43t-74 29t-80 16.5t-94 5.5q-97 0 -175 -34.5t-133 -97t-84.5 -150t-29.5 -195.5 q0 -119 32.5 -211t92.5 -155.5t143.5 -96.5t184.5 -33q62 0 113 12t99 33v226h-147q-33 0 -51.5 17.5t-18.5 44.5v190h531v-630q-115 -84 -244.5 -121.5t-270.5 -37.5q-184 0 -335.5 57.5t-259 159.5t-166 242t-58.5 303z" />
<glyph unicode="H" horiz-adv-x="1591" d="M144 0v1492h349v-624h606v624h348v-1492h-348v631h-606v-631h-349z" />
<glyph unicode="I" horiz-adv-x="636" d="M144 0v1492h349v-1492h-349z" />
<glyph unicode="J" horiz-adv-x="891" d="M20 10l19 202q3 27 21.5 43t52.5 16q17 0 42.5 -5.5t61.5 -5.5q50 0 87.5 14t62 46t37 84.5t12.5 129.5v958h346v-951q0 -125 -31.5 -227.5t-94.5 -175.5t-158 -113.5t-224 -40.5q-58 0 -115 6t-119 20z" />
<glyph unicode="K" horiz-adv-x="1446" d="M144 0v1492h346v-604h56q77 0 110 48l336 487q30 39 64.5 54t85.5 15h301l-443 -603q-47 -62 -101 -90q39 -14 70.5 -40t59.5 -67l451 -692h-310q-30 0 -50.5 4t-36 12.5t-26.5 20t-22 26.5l-338 520q-18 29 -46 40.5t-77 11.5h-84v-635h-346z" />
<glyph unicode="L" horiz-adv-x="1075" d="M144 0v1492h346v-1216h553v-276h-899z" />
<glyph unicode="M" horiz-adv-x="1966" d="M144 0v1492h265q23 0 39.5 -1t30 -6t24 -16t20.5 -30l384 -757q20 -39 39.5 -81t36.5 -86q17 45 36 88t41 82l383 754q10 19 21 30t24 16t30 6t40 1h264v-1492h-305v858q0 62 6 135l-396 -767q-18 -36 -49 -54t-71 -18h-48q-40 0 -71 18t-49 54l-398 768q4 -36 6.5 -71 t2.5 -65v-858h-306z" />
<glyph unicode="N" horiz-adv-x="1591" d="M144 0v1492h183q23 0 38 -2t27 -7.5t23.5 -16t25.5 -27.5l709 -896q-4 43 -6 83.5t-2 75.5v790h305v-1492h-180q-40 0 -67.5 13t-53.5 44l-704 889q3 -39 5.5 -76t2.5 -70v-800h-306z" />
<glyph unicode="O" horiz-adv-x="1668" d="M58 746q0 162 56 301.5t158 242t245 160.5t318 58q174 0 316.5 -58.5t244 -161t157.5 -242t56 -300.5q0 -162 -56 -301t-157.5 -242t-244 -161t-316.5 -58t-317.5 58t-245.5 161t-158 242.5t-56 300.5zM413 746q0 -112 28.5 -200t82.5 -149.5t132 -94t179 -32.5 q99 0 177 32.5t131.5 94t82 149.5t28.5 200q0 111 -28.5 199.5t-82 150t-131.5 94.5t-177 33q-100 0 -178.5 -33t-132.5 -94.5t-82.5 -150t-28.5 -199.5z" />
<glyph unicode="P" horiz-adv-x="1302" d="M144 0v1492h527q158 0 271 -37.5t186 -103t108 -154.5t35 -192q0 -112 -36 -205t-109.5 -160t-187 -104t-267.5 -37h-181v-499h-346zM490 760h181q135 0 194.5 64.5t59.5 180.5q0 51 -15.5 93t-47 72t-79 46.5t-112.5 16.5h-181v-473z" />
<glyph unicode="Q" horiz-adv-x="1669" d="M59 746q0 162 56 301.5t158 242t245.5 160.5t317.5 58t316.5 -58.5t244 -161t157.5 -242t56 -300.5q0 -96 -20 -184.5t-57.5 -166.5t-92.5 -144.5t-124 -117.5l378 -413h-285q-61 0 -110 16t-91 59l-185 208q-45 -9 -91.5 -14t-95.5 -5q-174 0 -317.5 58t-245.5 161 t-158 242.5t-56 300.5zM414 746q0 -112 28.5 -200t82.5 -149.5t132 -94t179 -32.5q99 0 177 32.5t131.5 94t82 149.5t28.5 200q0 111 -28.5 199.5t-82 150t-131.5 94.5t-177 33q-100 0 -178.5 -33t-132.5 -94.5t-82.5 -150t-28.5 -199.5z" />
<glyph unicode="R" horiz-adv-x="1346" d="M144 0v1492h486q162 0 276 -33.5t186 -92.5t105 -140t33 -176q0 -73 -19.5 -137.5t-58 -119.5t-94.5 -98t-128 -70q35 -17 64.5 -43.5t53.5 -62.5l317 -519h-313q-87 0 -125 66l-248 433q-17 28 -39 40.5t-61 12.5h-89v-552h-346zM490 791h140q71 0 120.5 17.5t81 49.5 t46 74.5t14.5 91.5q0 98 -64 153.5t-198 55.5h-140v-442z" />
<glyph unicode="S" horiz-adv-x="1134" d="M29 180l102 162q12 17 32 29t44 12q31 0 62 -19.5t70.5 -43t90.5 -43t121 -19.5q94 0 146.5 41.5t52.5 131.5q0 52 -29 85t-75.5 54.5t-106 38t-122 36.5t-121.5 49t-106 76.5t-75.5 119t-28.5 175.5q0 84 34 164t99.5 142.5t160.5 99.5t218 37q69 0 134 -10.5t123 -31.5 t109 -50.5t91 -65.5l-86 -161q-15 -25 -32 -37t-44 -12q-24 0 -51 14.5t-61.5 33t-78.5 33.5t-100 15q-97 0 -144.5 -41.5t-47.5 -112.5q0 -45 28.5 -74.5t75 -51t106.5 -39.5t122.5 -40t122.5 -51.5t106.5 -76t75 -112.5t28.5 -159q0 -103 -35.5 -193t-104 -157.5 t-168 -105.5t-226.5 -38q-70 0 -142 14t-140 40.5t-127 62t-103 79.5z" />
<glyph unicode="T" horiz-adv-x="1247" d="M31 1218v274h1186v-274h-420v-1218h-346v1218h-420z" />
<glyph unicode="U" horiz-adv-x="1533" d="M126 608v884h346v-883q0 -79 20 -140.5t58 -105.5t92.5 -67t124.5 -23t124.5 23t92.5 66.5t58 105t20 140.5v884h346v-884q0 -137 -44.5 -251.5t-127.5 -197.5t-202 -129t-267 -46q-150 0 -268.5 46t-201.5 129t-127 197.5t-44 251.5z" />
<glyph unicode="V" horiz-adv-x="1456" d="M-27 1492h279q45 0 72.5 -21t42.5 -54l288 -799q20 -52 40 -113.5t37 -128.5q14 68 32 129t39 113l287 799q11 29 40 52t72 23h281l-598 -1492h-314z" />
<glyph unicode="W" horiz-adv-x="2181" d="M4 1492h291q45 0 75 -20.5t40 -54.5l204 -778q9 -38 18.5 -81t18.5 -90q18 96 45 171l242 778q9 29 39.5 52t73.5 23h102q45 0 72.5 -21t42.5 -54l239 -778q27 -72 45 -163q8 45 17 86t18 77l205 778q8 30 39 52.5t74 22.5h272l-461 -1492h-313l-281 925q-15 44 -29 101 q-14 -57 -30 -101l-285 -925h-313z" />
<glyph unicode="X" horiz-adv-x="1413" d="M-13 0l480 767l-462 725h346q34 0 50 -8.5t28 -29.5l297 -503q5 13 11.5 25.5t15.5 25.5l260 447q14 23 30 33t39 10h332l-468 -710l478 -782h-346q-34 0 -55 16.5t-33 38.5l-299 523q-8 -23 -18 -39l-279 -484q-14 -20 -33.5 -37.5t-50.5 -17.5h-323z" />
<glyph unicode="Y" horiz-adv-x="1372" d="M-28 1492h306q45 0 71 -21t43 -54l211 -434q27 -51 48 -95.5t37 -87.5q15 44 35.5 88.5t47.5 94.5l209 434q7 13 17.5 26.5t24 24.5t31.5 17.5t40 6.5h307l-541 -925v-567h-346v567z" />
<glyph unicode="Z" horiz-adv-x="1247" d="M29 0v133q0 24 8 47t22 42l703 1004h-676v266h1116v-125q0 -27 -8.5 -52.5t-24.5 -47.5l-700 -1001h711v-266h-1151z" />
<glyph unicode="[" horiz-adv-x="656" d="M154 -332v1926h458v-120q0 -32 -23 -54.5t-59 -22.5h-112v-1531h112q36 0 59 -22.5t23 -53.5v-122h-458z" />
<glyph unicode="\" horiz-adv-x="980" d="M52 1533h135q55 0 97.5 -27.5t62.5 -80.5l582 -1526h-135q-25 0 -50 7t-47 21.5t-40.5 36t-28.5 48.5z" />
<glyph unicode="]" horiz-adv-x="656" d="M44 -210q0 31 23 53.5t59 22.5h113v1531h-113q-36 0 -59 22.5t-23 54.5v120h459v-1926h-459v122z" />
<glyph unicode="^" d="M70 685l415 807h207l426 -807h-233q-28 0 -46.5 14t-29.5 35l-158 344q-19 38 -33 72.5t-25 67.5q-22 -67 -54 -140l-144 -344q-9 -22 -29 -35.5t-51 -13.5h-245z" />
<glyph unicode="_" horiz-adv-x="968" d="M81 -111h807v-198h-807v198z" />
<glyph unicode="`" horiz-adv-x="819" d="M33 1508h297q48 0 71.5 -15.5t40.5 -45.5l140 -251h-181q-36 0 -57 9.5t-45 33.5z" />
<glyph unicode="a" horiz-adv-x="1059" d="M35 276q0 56 28.5 116t99 108.5t190.5 81t302 36.5v46q0 93 -38 134.5t-109 41.5q-56 0 -92 -12.5t-64 -28t-55 -27.5t-64 -12q-33 0 -55 16.5t-37 38.5l-57 99q96 85 213.5 126.5t251.5 41.5q96 0 173.5 -31t131 -87t82.5 -132.5t29 -167.5v-664h-146q-45 0 -68 12.5 t-38 50.5l-23 59q-40 -34 -76.5 -59.5t-76 -43.5t-84 -26.5t-99.5 -8.5q-73 0 -132 19t-100.5 55.5t-64 91.5t-22.5 126zM338 292q0 -54 30 -76t87 -22q61 0 107 21.5t93 69.5v147q-95 -4 -156.5 -16.5t-97 -30.5t-49.5 -42t-14 -51z" />
<glyph unicode="b" horiz-adv-x="1176" d="M108 0v1533h317v-585q61 59 134 94.5t164 35.5q90 0 164 -36.5t126 -105t80 -164.5t28 -215q0 -129 -32.5 -234.5t-92.5 -180.5t-143 -116.5t-183 -41.5q-48 0 -86 9t-70 26t-58 40.5t-50 51.5l-12 -54q-8 -33 -26.5 -45t-49.5 -12h-210zM425 289q36 -40 78 -56t85 -16 q45 0 83 17t65 55.5t42.5 101.5t15.5 155q0 80 -12 135.5t-35 91t-57.5 51.5t-78.5 16q-58 0 -101 -26t-85 -75v-450z" />
<glyph unicode="c" horiz-adv-x="996" d="M52 534q0 115 34.5 214.5t101.5 172.5t166 115t229 42q125 0 219 -40t170 -116l-84 -112q-14 -17 -27.5 -27.5t-38.5 -10.5q-24 0 -42.5 11.5t-42 25t-55.5 25t-79 11.5q-58 0 -100.5 -21.5t-70.5 -61.5t-41 -98t-13 -130q0 -153 59 -235t162 -82q55 0 87.5 14t55 31 t41.5 31t47 14q38 0 58 -27l92 -114q-49 -56 -103.5 -91.5t-111 -55.5t-114 -27.5t-111.5 -7.5q-97 0 -186 36.5t-156 107t-106.5 172.5t-39.5 234z" />
<glyph unicode="d" horiz-adv-x="1176" d="M55 527q0 119 33 221t93 176t144 116t185 42q82 0 139 -24t103 -63v538h317v-1533h-197q-59 0 -77 53l-25 81q-32 -34 -66.5 -61.5t-75 -47.5t-87 -30.5t-101.5 -10.5q-83 0 -153.5 36.5t-121.5 106.5t-80.5 170.5t-29.5 229.5zM383 527q0 -84 12.5 -141t34.5 -92.5 t52.5 -51t68.5 -15.5q35 0 63 7t51.5 19t44.5 30.5t42 43.5v450q-37 40 -78.5 56t-87.5 16q-44 0 -81 -17.5t-64 -56t-42.5 -100t-15.5 -148.5z" />
<glyph unicode="e" horiz-adv-x="1103" d="M51 554q0 106 36.5 201.5t104.5 167t164.5 113.5t218.5 42q105 0 193 -32.5t151 -95t98.5 -153t35.5 -205.5q0 -36 -3 -58.5t-11.5 -36t-22.5 -18.5t-35 -5h-612q15 -133 80.5 -193t168.5 -60q55 0 95.5 13.5t71.5 30t57 29.5t55 13q38 0 57 -27l93 -114 q-49 -56 -106 -91.5t-117 -55.5t-120 -27.5t-114 -7.5q-112 0 -209.5 36t-171 108t-116 178.5t-42.5 247.5zM372 658h396q0 38 -9.5 74t-31.5 64t-58 45.5t-87 17.5q-91 0 -142.5 -51.5t-67.5 -149.5z" />
<glyph unicode="f" horiz-adv-x="749" d="M37 935v125h149v60q0 91 29.5 165t84 126t133.5 81t179 29q39 0 72 -5t69 -15l-7 -154q-1 -16 -8 -27t-18.5 -18t-25 -10t-26.5 -3q-42 0 -75 -8t-55 -29t-33 -55.5t-11 -86.5v-50h248v-217h-238v-843h-318v844l-69 14q-36 8 -58 25.5t-22 51.5z" />
<glyph unicode="g" horiz-adv-x="1096" d="M39 -87q0 71 41 118t115 75q-39 24 -61.5 61t-22.5 95q0 24 8 50t25.5 50.5t44 47t63.5 40.5q-83 44 -130.5 116.5t-47.5 168.5q0 80 33.5 144t92.5 108.5t139 68.5t173 24q68 0 127.5 -13t111.5 -38h320v-116q0 -27 -15 -42t-50 -23l-78 -18q14 -46 14 -95 q0 -80 -33 -143.5t-91 -108t-137 -68.5t-169 -24q-50 0 -94 6q-35 -20 -35 -47t28.5 -38.5t76 -16t107 -6t122 -7.5t122.5 -19t107 -43t76 -79.5t29 -126.5q0 -72 -35 -140.5t-102.5 -121.5t-166 -85.5t-225.5 -32.5q-125 0 -215.5 24t-150.5 62t-88.5 88.5t-28.5 104.5z M313 -46q0 -23 10 -41t34.5 -31.5t66 -21t104.5 -7.5q69 0 113 8t70 22.5t36.5 34t10.5 43.5q0 38 -34 55t-88 23.5t-122 8t-134 8.5q-30 -20 -48.5 -45t-18.5 -57zM362 728q0 -31 9 -56.5t27.5 -44.5t46.5 -29.5t67 -10.5q79 0 114.5 39.5t35.5 101.5q0 65 -35.5 101.5 t-114.5 36.5t-114.5 -36.5t-35.5 -101.5z" />
<glyph unicode="h" horiz-adv-x="1167" d="M108 0v1533h317v-564q57 49 124 79t161 30q87 0 154 -30t113 -84t69.5 -128t23.5 -161v-675h-317v675q0 78 -36 121.5t-106 43.5q-52 0 -98 -22.5t-88 -60.5v-757h-317z" />
<glyph unicode="i" horiz-adv-x="546" d="M82 1353q0 39 15 72.5t41 59t59.5 40t72.5 14.5q40 0 75.5 -14.5t62 -40t42 -59t15.5 -72.5q0 -38 -15.5 -71.5t-42 -58.5t-62 -40t-75.5 -15q-39 0 -72.5 15t-59.5 40t-41 58.5t-15 71.5zM115 0v1062h317v-1062h-317z" />
<glyph unicode="j" horiz-adv-x="546" d="M-82 -347l10 167q2 22 14.5 32t49.5 10t60.5 6t37 21.5t19.5 41.5t6 67v1064h317v-1064q0 -75 -19 -141t-62.5 -115.5t-114.5 -78.5t-177 -29q-39 0 -72 5t-69 14zM82 1353q0 39 15 72.5t41 59t59.5 40t72.5 14.5q40 0 75.5 -14.5t62 -40t42 -59t15.5 -72.5 q0 -38 -15.5 -71.5t-42 -58.5t-62 -40t-75.5 -15q-39 0 -72.5 15t-59.5 40t-41 58.5t-15 71.5z" />
<glyph unicode="k" horiz-adv-x="1143" d="M108 0v1533h317v-859h47q30 0 45 8.5t31 29.5l201 299q18 26 41.5 38.5t60.5 12.5h291l-275 -378q-39 -51 -92 -84q24 -17 43.5 -40t36.5 -52l299 -508h-287q-36 0 -61.5 12t-42.5 41l-201 376q-14 26 -29.5 33.5t-46.5 7.5h-61v-470h-317z" />
<glyph unicode="l" horiz-adv-x="532" d="M108 0v1533h317v-1533h-317z" />
<glyph unicode="m" horiz-adv-x="1742" d="M108 0v1062h196q59 0 78 -53l17 -58q27 28 55.5 51t62 40t72 26.5t84.5 9.5q96 0 159 -49.5t96 -132.5q27 49 65 84t82.5 56.5t94.5 31.5t99 10q91 0 161.5 -27t118 -78.5t72.5 -127t25 -170.5v-675h-318v675q0 165 -141 165q-65 0 -107.5 -42.5t-42.5 -122.5v-675h-317 v675q0 91 -36 128t-105 37q-43 0 -81.5 -19.5t-72.5 -52.5v-768h-317z" />
<glyph unicode="n" horiz-adv-x="1167" d="M108 0v1062h196q59 0 78 -53l18 -62q31 29 64 53.5t70 41.5t80.5 26.5t95.5 9.5q87 0 154 -30t113 -84t69.5 -128t23.5 -161v-675h-317v675q0 78 -36 121.5t-106 43.5q-52 0 -98 -22.5t-88 -60.5v-757h-317z" />
<glyph unicode="o" horiz-adv-x="1189" d="M52 534q0 126 39.5 226.5t111.5 171t172 108.5t222 38q121 0 220 -38t170.5 -108.5t111 -171.5t39.5 -226q0 -127 -39.5 -229t-111 -173.5t-170.5 -109.5t-220 -38q-122 0 -222 38t-172 109.5t-111.5 173.5t-39.5 229zM380 531q0 -158 52 -235t165 -77q110 0 161.5 77.5 t51.5 234.5q0 158 -51.5 235t-161.5 77q-113 0 -165 -77t-52 -235z" />
<glyph unicode="p" horiz-adv-x="1177" d="M108 -337v1399h196q59 0 78 -53l24 -78q31 34 66 61.5t75.5 47.5t87 31t101.5 11q83 0 154 -36.5t122 -106.5t80 -170.5t29 -228.5q0 -120 -33 -221.5t-93 -176t-143.5 -116.5t-184.5 -42q-83 0 -139.5 23.5t-102.5 63.5v-408h-317zM425 289q36 -40 78 -56t88 -16 q44 0 81 17.5t64 56t42.5 100t15.5 149.5q0 84 -12.5 141t-34.5 92.5t-52.5 51t-68.5 15.5q-35 0 -63 -7t-52.5 -19t-45 -31t-40.5 -44v-450z" />
<glyph unicode="q" horiz-adv-x="1176" d="M55 527q0 119 33 221t93 176t144 116t185 42q48 0 87 -8t71 -23.5t60 -37t53 -46.5l14 42q18 53 77 53h197v-1399h-317v453q-60 -59 -135 -95.5t-177 -36.5q-83 0 -153.5 36.5t-121.5 106.5t-80.5 170.5t-29.5 229.5zM383 527q0 -84 12.5 -141t34.5 -92.5t52.5 -51 t68.5 -15.5q35 0 63 7t51.5 19t44.5 30.5t42 43.5v450q-37 39 -78.5 55.5t-87.5 16.5q-44 0 -81 -17.5t-64 -56t-42.5 -100t-15.5 -148.5z" />
<glyph unicode="r" horiz-adv-x="781" d="M108 0v1062h188q24 0 39.5 -4t26.5 -13t16.5 -23t9.5 -35l15 -90q50 86 114.5 135.5t147.5 49.5q72 0 116 -33l-20 -234q-5 -23 -17 -31t-32 -8q-8 0 -21.5 1t-28 2.5t-29.5 3t-27 1.5q-70 0 -111 -37t-70 -103v-644h-317z" />
<glyph unicode="s" horiz-adv-x="912" d="M33 115l73 116q12 20 31.5 32t48.5 12q28 0 50 -12t47.5 -26.5t60 -26.5t86.5 -12q37 0 62.5 7.5t41 21t22.5 29.5t7 34q0 32 -21.5 52t-56 35t-79.5 28t-91 29.5t-90.5 39.5t-79 58t-56 86.5t-21.5 123.5q0 68 26 129t78 107t131 73t184 27q57 0 111 -10t101 -28.5 t86 -43.5t69 -55l-72 -112q-12 -19 -26 -27t-35 -8q-23 0 -45.5 9.5t-48.5 21t-58.5 21t-74.5 9.5q-60 0 -92.5 -23t-32.5 -64q0 -30 21 -49.5t55.5 -34t78.5 -28t90 -30t90.5 -38.5t79 -54t55.5 -78t21 -111q0 -79 -28.5 -145.5t-85.5 -114.5t-140.5 -74.5t-191.5 -26.5 q-54 0 -108.5 10t-105 27.5t-94 41.5t-73.5 52z" />
<glyph unicode="t" horiz-adv-x="786" d="M27 905v124l169 33l62 259q12 49 70 49h166v-310h263v-217h-263v-528q0 -37 17.5 -61t51.5 -24q17 0 29 4t21 8.5t16.5 8t17.5 3.5q14 0 23 -6.5t18 -21.5l96 -150q-61 -46 -138 -69t-159 -23q-76 0 -133.5 22t-97 62.5t-60 97.5t-20.5 128v549h-90q-25 0 -42 15.5 t-17 46.5z" />
<glyph unicode="u" horiz-adv-x="1167" d="M97 388v674h318v-674q0 -79 35.5 -122t105.5 -43q52 0 97.5 21.5t88.5 60.5v757h318v-1062h-197q-59 0 -78 53l-19 62q-31 -30 -63.5 -54t-70 -41t-80.5 -26.5t-94 -9.5q-87 0 -154 30t-113.5 84.5t-70 128t-23.5 161.5z" />
<glyph unicode="v" horiz-adv-x="1103" d="M-4 1062h264q34 0 57 -16t31 -39l148 -477q19 -58 34 -113.5t26 -110.5q11 55 26.5 110.5t35.5 113.5l154 477q8 24 30.5 39.5t53.5 15.5h252l-412 -1062h-288z" />
<glyph unicode="w" horiz-adv-x="1675" d="M5 1062h254q34 0 57 -16t31 -39l107 -477q13 -54 22.5 -105t18.5 -101q14 50 29 101t32 105l133 478q8 24 30.5 39.5t53.5 15.5h141q34 0 57 -16t31 -39l127 -478q15 -54 30 -105t28 -103q8 51 19.5 102t25.5 106l113 477q8 24 30.5 39.5t52.5 15.5h242l-330 -1062h-258 q-20 0 -34.5 12.5t-22.5 40.5l-152 530q-11 36 -19.5 70.5t-15.5 69.5q-7 -36 -16 -71.5t-20 -70.5l-154 -528q-15 -53 -67 -53h-246z" />
<glyph unicode="x" horiz-adv-x="1114" d="M-9 0l356 549l-342 513h305q34 0 50 -9t28 -29l190 -314q12 38 35 72l136 237q14 23 30 33t39 10h291l-342 -499l356 -563h-305q-34 0 -55 16.5t-33 38.5l-189 326q-11 -36 -28 -62l-156 -264q-14 -20 -33.5 -37.5t-50.5 -17.5h-282z" />
<glyph unicode="y" horiz-adv-x="1101" d="M-8 1062h280q37 0 57 -16.5t29 -38.5l174 -458q25 -63 40 -127q10 33 22 65l24 64l158 456q9 24 33 39.5t51 15.5h256l-567 -1337q-14 -32 -34.5 -47t-65.5 -15h-238l205 430z" />
<glyph unicode="z" horiz-adv-x="954" d="M47 0v129q0 19 10.5 49t30.5 55l448 593h-460v236h821v-127q0 -33 -11.5 -63.5t-29.5 -50.5l-443 -585h474v-236h-840z" />
<glyph unicode="{" horiz-adv-x="635" d="M47 543v177q31 0 52 10t33 28t18 43t6 55q0 45 -6 91t-13 92t-12.5 93.5t-5.5 94.5q0 83 24 151t74.5 116t128.5 74t186 26h54v-137q0 -16 -7.5 -27.5t-17.5 -18.5t-21.5 -10.5t-19.5 -3.5q-65 0 -95 -40t-30 -111q0 -56 4.5 -106t10 -97t10 -92t4.5 -91 q0 -39 -10.5 -74.5t-31.5 -66t-51.5 -53.5t-70.5 -35q40 -12 70.5 -35t51.5 -53t31.5 -66.5t10.5 -74.5q0 -46 -4.5 -91t-10 -91.5t-10 -96.5t-4.5 -107q0 -71 30.5 -110.5t94.5 -39.5q8 0 19.5 -3.5t21.5 -11t17.5 -18.5t7.5 -28v-137h-54q-109 0 -186.5 26t-128 75 t-74.5 116.5t-24 150.5q0 47 5.5 94t12.5 93t13 92.5t6 91.5q0 61 -23.5 98.5t-85.5 37.5z" />
<glyph unicode="|" horiz-adv-x="552" d="M154 -348v1942h245v-1942h-245z" />
<glyph unicode="}" horiz-adv-x="635" d="M50 -195q0 16 7.5 27.5t17.5 19t21.5 11t19.5 3.5q65 0 95 40t30 110q0 56 -5 106.5t-10 97t-9.5 91.5t-4.5 91q0 38 10 74.5t31 66.5t51.5 52.5t70.5 35.5q-40 12 -70.5 35t-51.5 53.5t-31 66t-10 74.5q0 46 4.5 91t9.5 92t10 97t5 106q0 71 -30.5 111t-94.5 40 q-8 0 -19.5 3.5t-21.5 10.5t-17.5 18.5t-7.5 27.5v137h53q109 0 187 -26t128.5 -74t74.5 -116t24 -151q0 -47 -5.5 -94.5t-12.5 -93.5t-13 -92t-6 -91q0 -30 6 -55t18 -43t33 -28t52 -10v-177q-61 0 -85 -37.5t-24 -98.5q0 -45 6 -91.5t13 -92.5t12.5 -93t5.5 -94 q0 -83 -24 -150.5t-74.5 -116.5t-128.5 -75t-187 -26h-53v137z" />
<glyph unicode="~" d="M85 394q0 87 23 157t66 118.5t106 74.5t143 26q54 0 101.5 -12t88.5 -26.5t75.5 -26.5t62.5 -12q49 0 75.5 32t26.5 93h256q0 -87 -23 -156.5t-66 -118t-106 -75t-143 -26.5q-54 0 -101.5 12t-88.5 27t-75.5 26.5t-62.5 11.5q-49 0 -75.5 -31.5t-26.5 -93.5h-256z" />
<glyph unicode="&#xa1;" horiz-adv-x="586" d="M112 903q0 37 13.5 69.5t37.5 56t57 36.5t72 13q38 0 70.5 -13t57 -36.5t38.5 -56t14 -69.5t-14 -68.5t-38.5 -55t-57 -37.5t-70.5 -14q-39 0 -72 14t-57 37.5t-37.5 55t-13.5 68.5zM146 203q0 94 11.5 187t29.5 189h215q18 -95 29.5 -188.5t11.5 -187.5v-540h-297v540z " />
<glyph unicode="&#xa2;" d="M101 531q0 111 34.5 208t102 169.5t166.5 116.5t228 50l14 144q3 28 25.5 51t58.5 23h117l-24 -232q77 -17 141.5 -52t119.5 -87l-82 -108q-12 -17 -25 -26.5t-38 -9.5q-15 0 -29.5 5t-31 13t-36 16.5t-42.5 16.5l-63 -612q44 6 74 20t53 28t42.5 24t42.5 10q18 0 33 -7 t25 -19l88 -109q-41 -45 -86.5 -76.5t-94 -52.5t-99 -32t-101.5 -15l-13 -129q-3 -28 -25.5 -51.5t-58.5 -23.5h-116l20 210q-88 16 -164.5 59t-133.5 111.5t-89.5 161t-32.5 205.5zM415 531q0 -111 33.5 -183.5t98.5 -105.5l60 598q-100 -20 -146 -100.5t-46 -208.5z" />
<glyph unicode="&#xa3;" d="M28 603v98q0 41 26 71.5t78 30.5h86v221q0 97 30 184.5t90.5 154.5t152.5 106t217 39q83 0 150 -21t119.5 -58t92.5 -88t70 -109l-127 -80q-43 -23 -83.5 -20t-74.5 38q-39 40 -70.5 59.5t-76.5 19.5q-83 0 -123.5 -57.5t-40.5 -166.5v-222h389v-121q0 -15 -6.5 -29 t-18.5 -25.5t-28 -18t-35 -6.5h-301v-160q0 -61 -23 -110.5t-62 -92.5q46 10 92 15.5t93 5.5h514v-130q0 -23 -9.5 -46.5t-27 -42t-42.5 -30.5t-56 -12h-977v190q34 6 65 19.5t54.5 34t38 49.5t14.5 66v244h-190z" />
<glyph unicode="&#xa4;" d="M92 1030l160 152l154 -152q42 23 89 35t99 12q49 0 94.5 -11.5t86.5 -33.5l157 156l158 -154l-157 -154q24 -42 37 -90t13 -100q0 -50 -12 -96t-34 -87l159 -156l-160 -152l-155 151q-42 -23 -89 -35t-98 -12q-49 0 -94.5 11.5t-86.5 31.5l-157 -153l-158 153l156 154 q-24 42 -36.5 90t-12.5 100q0 50 11.5 96.5t33.5 86.5zM438 690q0 -33 12.5 -62.5t33.5 -52t49 -35.5t61 -13t61.5 13t50 35.5t34 52t12.5 62.5q0 35 -12.5 64.5t-34 52t-50 35.5t-61.5 13t-61 -13t-49 -35.5t-33.5 -52t-12.5 -64.5z" />
<glyph unicode="&#xa5;" d="M-17 1492h264q45 0 72.5 -20t41.5 -55l170 -435q23 -54 39 -100t27 -91q17 88 61 191l168 435q12 29 41 52t72 23h266l-400 -838h255v-169h-307v-90h307v-169h-307v-226h-318v226h-307v169h307v90h-307v169h254z" />
<glyph unicode="&#xa6;" horiz-adv-x="559" d="M157 -337v839h245v-839h-245zM157 756v838h245v-838h-245z" />
<glyph unicode="&#xa7;" horiz-adv-x="1047" d="M79 691q0 80 40 144.5t122 103.5q-45 41 -73 96.5t-28 134.5q0 68 26.5 129t78.5 107t131 73t184 27q57 0 111 -10t101 -28.5t86 -43.5t69 -55l-72 -112q-12 -19 -26 -26.5t-35 -7.5q-23 0 -45.5 9t-48.5 21t-59 21t-75 9q-74 0 -109.5 -27.5t-35.5 -70.5 q0 -27 23.5 -48.5t62.5 -41t88.5 -39t102 -42t102 -50t88.5 -64t62.5 -83.5t23.5 -107q0 -82 -38 -150t-122 -111q44 -38 71 -88t27 -119q0 -79 -28.5 -145.5t-85.5 -115t-140.5 -75t-191.5 -26.5q-54 0 -108.5 10.5t-105 27.5t-93.5 41.5t-74 51.5l74 117q12 20 31 32 t49 12q28 0 49.5 -12.5t49 -26.5t63.5 -26.5t94 -12.5q67 0 104 24t37 72q0 38 -24 64.5t-63 47t-89 37.5t-102.5 37.5t-102.5 46.5t-89 62t-63 86.5t-24 119.5zM359 741q0 -36 25 -62.5t64.5 -48.5t91 -42t104.5 -42q29 17 41 41.5t12 52.5q0 37 -24.5 63t-64.5 47.5 t-90.5 41t-102.5 43.5q-30 -19 -43 -41.5t-13 -52.5z" />
<glyph unicode="&#xa8;" horiz-adv-x="819" d="M27 1326q0 34 13 63.5t35 51.5t51.5 35t61.5 13q35 0 65.5 -13t53.5 -35t36 -51.5t13 -63.5q0 -33 -13 -61.5t-36 -49.5t-53.5 -33.5t-65.5 -12.5q-33 0 -62 12.5t-51 33.5t-35 49.5t-13 61.5zM463 1326q0 34 12.5 63.5t35.5 51.5t52.5 35t63.5 13q35 0 65 -13t52.5 -35 t35.5 -51.5t13 -63.5q0 -33 -13 -61.5t-35.5 -49.5t-52.5 -33.5t-65 -12.5q-34 0 -63.5 12.5t-52.5 33.5t-35.5 49.5t-12.5 61.5z" />
<glyph unicode="&#xa9;" horiz-adv-x="1673" d="M74 746q0 105 27 203t76.5 182t119.5 154t155 119.5t181.5 76.5t202.5 27q105 0 203 -27t182.5 -76.5t154.5 -119.5t119.5 -154t76.5 -181.5t27 -203.5q0 -104 -27 -201.5t-76.5 -181.5t-119.5 -154t-154.5 -119.5t-182.5 -76.5t-203 -27t-202 27t-182 76.5t-155 119.5 t-119.5 154t-76.5 181t-27 202zM244 746q0 -130 45.5 -242.5t125.5 -196t188 -131t233 -47.5q126 0 235 47.5t189.5 131t127 196t46.5 242.5q0 87 -21 167t-59.5 149.5t-93 126t-121 96.5t-143 62t-160.5 22q-125 0 -233 -48t-188 -132.5t-125.5 -198.5t-45.5 -244zM385 750 q0 104 37 191.5t101 151.5t150 99.5t185 35.5q118 0 203 -41t137 -103l-84 -111q-8 -8 -20.5 -19t-32.5 -11t-35 9.5t-33.5 20.5t-45.5 20t-73 9q-103 0 -155.5 -68t-52.5 -184q0 -61 13.5 -108.5t38 -79.5t59 -48t75.5 -16q48 0 76 8.5t46.5 19t32 19.5t33.5 10 q12 0 23.5 -6t19.5 -15l105 -108q-55 -77 -145 -116.5t-207 -39.5q-103 0 -187 37.5t-142 102.5t-90 152t-32 188z" />
<glyph unicode="&#xaa;" horiz-adv-x="751" d="M65 1034q0 33 15.5 68.5t56.5 65.5t113 50.5t183 23.5v16h221v-396h-106q-31 0 -47 8.5t-29 34.5l-12 28q-24 -20 -45.5 -34.5t-44.5 -25t-49 -15t-58 -4.5q-93 0 -145.5 47t-52.5 133zM95 1412q60 54 134 78t159 24q60 0 109.5 -19t84 -54t53.5 -81.5t19 -101.5h-221 q0 47 -20 64t-54 17q-31 0 -50 -6t-35 -13t-32.5 -13.5t-41.5 -6.5q-24 0 -39.5 13.5t-26.5 27.5zM282 1044q0 -24 12 -32t43 -8q28 0 50 8.5t46 31.5v65q-48 -2 -77.5 -7.5t-46 -14.5t-22 -20t-5.5 -23z" />
<glyph unicode="&#xab;" horiz-adv-x="982" d="M83 126zM83 538v40l268 411l105 -47q40 -17 46.5 -49t-14.5 -68l-122 -220q-17 -31 -37 -48q18 -16 37 -47l122 -221q20 -36 14 -67.5t-46 -48.5l-105 -47zM452 538v40l268 411l105 -47q40 -17 46.5 -49t-14.5 -68l-122 -220q-17 -31 -37 -48q18 -16 37 -47l122 -221 q20 -36 14 -67.5t-46 -48.5l-105 -47z" />
<glyph unicode="&#xac;" d="M121 574v228h932v-513h-269v285h-663z" />
<glyph unicode="&#xae;" horiz-adv-x="1673" d="M74 746q0 105 27 203t76.5 182t119.5 154t155 119.5t181.5 76.5t202.5 27q105 0 203 -27t182.5 -76.5t154.5 -119.5t119.5 -154t76.5 -181.5t27 -203.5q0 -104 -27 -201.5t-76.5 -181.5t-119.5 -154t-154.5 -119.5t-182.5 -76.5t-203 -27t-202 27t-182 76.5t-155 119.5 t-119.5 154t-76.5 181t-27 202zM244 746q0 -130 45.5 -242.5t125.5 -196t188 -131t233 -47.5q118 0 220.5 42t182.5 117h-221q-56 0 -78 40l-94 236q-11 17 -24 25t-38 8h-32v-309h-275v922h361q102 0 176.5 -18t122 -53t70 -86.5t22.5 -116.5q0 -43 -10.5 -82.5 t-31.5 -72.5t-54 -60t-79 -44q30 -15 49.5 -40t37.5 -57l127 -264q78 83 122 192.5t44 237.5q0 87 -21 167t-59.5 149.5t-93 126t-121 96.5t-143 62t-160.5 22q-125 0 -233 -48t-188 -132.5t-125.5 -198.5t-45.5 -244zM752 785h65q49 0 77.5 8t42.5 22t17.5 36t3.5 50 q0 27 -3.5 47t-15.5 33.5t-36 21t-65 7.5h-86v-225z" />
<glyph unicode="&#xaf;" horiz-adv-x="819" d="M92 1230v194h635v-194h-635z" />
<glyph unicode="&#xb0;" horiz-adv-x="851" d="M52 1146q0 76 29 142.5t79 115.5t118 77.5t147 28.5t147.5 -28.5t119 -77.5t79.5 -115.5t29 -142.5q0 -74 -29 -140t-79.5 -115t-119 -78.5t-147.5 -29.5t-147 29.5t-118 78.5t-79 115t-29 140zM271 1144q0 -34 11.5 -63t32 -51t48.5 -34.5t62 -12.5t62 12.5t48.5 34.5 t32 51t11.5 63q0 35 -11.5 65t-32 52t-48.5 35t-62 13t-62 -13t-48.5 -35t-32 -52t-11.5 -65z" />
<glyph unicode="&#xb1;" d="M87 82v227h1014v-227h-1014zM87 730v228h377v345h258v-345h379v-228h-379v-327h-258v327h-377z" />
<glyph unicode="&#xb2;" horiz-adv-x="684" d="M46 922v71q0 20 8 43.5t29 43.5l203 198q20 20 38 44.5t31.5 48.5t21 47t7.5 43q0 25 -10.5 43.5t-36.5 18.5q-22 0 -34.5 -10t-25.5 -33q-8 -13 -17 -22.5t-21 -15t-27.5 -6.5t-38.5 3l-127 20q9 62 34.5 107t65 74.5t91.5 43.5t112 14q66 0 115.5 -18.5t83 -50 t49.5 -73t16 -87.5q0 -42 -12.5 -77t-33.5 -66.5t-49 -61.5l-56 -60l-104 -106q34 10 67 16.5t59 6.5h70q36 0 56 -19t20 -51v-129h-584zM46 922z" />
<glyph unicode="&#xb3;" horiz-adv-x="684" d="M44 913zM44 1126l98 39q39 14 71 7t44 -31q14 -27 33.5 -37t38.5 -10q31 0 48 18t17 48q0 26 -5.5 41t-20.5 23t-40 10.5t-63 2.5v144q41 0 66 5t39 14t18 23.5t4 33.5q0 27 -10 44.5t-43 17.5q-25 0 -37.5 -9t-22.5 -28q-8 -15 -16.5 -25.5t-19.5 -15.5t-26 -5.5 t-38 3.5l-117 20q9 62 35 107t64 74.5t86.5 43.5t103.5 14q63 0 112 -18t81 -47t48.5 -65t16.5 -72q0 -63 -24 -107.5t-80 -71.5q58 -19 87 -55t29 -94q0 -68 -25 -116t-65 -79t-90 -45t-100 -14q-53 0 -97.5 8.5t-81.5 32.5t-66.5 65t-51.5 106z" />
<glyph unicode="&#xb4;" horiz-adv-x="819" d="M256 1196l139 251q17 30 41 45.5t72 15.5h307l-266 -269q-24 -24 -45.5 -33.5t-57.5 -9.5h-190z" />
<glyph unicode="&#xb5;" horiz-adv-x="1372" d="M154 -210v1272h317v-616q0 -79 36 -127t105 -48q70 0 115.5 37.5t72.5 105.5v648h317v-729q0 -60 26 -89.5t74 -29.5h87v-122q0 -19 -13.5 -37.5t-38 -33.5t-60 -23.5t-79.5 -8.5q-43 0 -83.5 11.5t-74.5 36t-61 62t-43 88.5q-50 -80 -113 -122t-146 -42q-98 0 -165 45 q13 -46 18.5 -96.5t5.5 -94.5v-214h-158q-67 0 -103 33t-36 94z" />
<glyph unicode="&#xb6;" horiz-adv-x="1576" d="M61 1053q0 96 34 177t96 139t149.5 90.5t194.5 32.5h968v-257h-215v-1456h-276v1456h-201v-1456h-276v842q-106 0 -194 34.5t-150 93.5t-96 137.5t-34 166.5z" />
<glyph unicode="&#xb7;" horiz-adv-x="589" d="M65 610q0 46 17.5 87t49 71.5t73 48t89.5 17.5t90.5 -17.5t73.5 -48t49 -71.5t18 -87t-18 -86.5t-49 -70.5t-73.5 -47.5t-90.5 -17.5t-89.5 17.5t-73 47.5t-49 70.5t-17.5 86.5z" />
<glyph unicode="&#xb8;" horiz-adv-x="819" d="M222 -348l29 95q6 28 35 28q15 0 29.5 -3.5t35.5 -3.5q27 0 38 9t11 20q0 23 -31 33t-106 22l67 193h176l-27 -95q49 -12 81.5 -29t52 -37t27.5 -43.5t8 -49.5q0 -36 -20 -64.5t-55.5 -49t-86.5 -31.5t-112 -11q-42 0 -77.5 4.5t-74.5 12.5z" />
<glyph unicode="&#xb9;" horiz-adv-x="684" d="M58 922zM58 1486l248 204h191v-629h104v-139h-463v139h133v305l6 56l-51 -38q-15 -11 -30.5 -14t-29 0.5t-23.5 10t-15 13.5z" />
<glyph unicode="&#xba;" horiz-adv-x="817" d="M56 1184q0 77 26.5 137.5t73.5 103t112 65t143 22.5q77 0 141 -22.5t110.5 -65t72.5 -103t26 -137.5q0 -78 -26 -140t-72.5 -105t-111 -66t-140.5 -23q-78 0 -143 23t-112 66t-73.5 105t-26.5 140zM304 1182q0 -83 25 -118.5t82 -35.5q52 0 77 35.5t25 118.5t-25 117.5 t-77 34.5q-57 0 -82 -34.5t-25 -117.5z" />
<glyph unicode="&#xbb;" horiz-adv-x="982" d="M104 126zM111 221.5q-7 31.5 14 67.5l123 221q15 29 37 47q-10 9 -19.5 21.5t-17.5 26.5l-123 220q-20 36 -13.5 68t46.5 49l104 47l268 -411v-40l-268 -412l-104 47q-40 17 -47 48.5zM480 221.5q-7 31.5 14 67.5l123 221q15 29 37 47q-10 9 -19.5 21.5t-17.5 26.5 l-123 220q-20 36 -13.5 68t46.5 49l104 47l268 -411v-40l-268 -412l-104 47q-40 17 -47 48.5z" />
<glyph unicode="&#xbc;" horiz-adv-x="1539" d="M62 0zM62 1289l248 204h191v-629h104v-139h-463v139h133v305l6 56l-51 -38q-15 -11 -30.5 -14t-29 0.5t-23.5 10t-15 13.5zM204 0l868 1392q31 48 70 74t94 26h135l-877 -1405q-16 -26 -33 -42.5t-36 -26.5t-40.5 -14t-45.5 -4h-135zM828 292l336 476h219v-466h82v-109 q0 -15 -11.5 -27.5t-29.5 -12.5h-41v-153h-188v153h-281q-30 0 -46 12.5t-22 32.5zM1032 302h163v112q0 27 1.5 58.5t5.5 65.5z" />
<glyph unicode="&#xbd;" horiz-adv-x="1524" d="M63 0zM63 1289l248 204h191v-629h104v-139h-463v139h133v305l6 56l-51 -38q-15 -11 -30.5 -14t-29 0.5t-23.5 10t-15 13.5zM166 0l868 1392q31 48 70 74t94 26h135l-877 -1405q-16 -26 -33 -42.5t-36 -26.5t-40.5 -14t-45.5 -4h-135zM862 0v71q0 20 8 43.5t29 43.5 l203 198q20 20 38 44.5t31.5 48.5t21 47t7.5 43q0 25 -10.5 43.5t-36.5 18.5q-22 0 -34.5 -10t-25.5 -33q-8 -13 -17 -22.5t-21 -15t-27.5 -6.5t-38.5 3l-127 20q9 62 34.5 107t65 74.5t91.5 43.5t112 14q66 0 115.5 -18.5t83 -50t49.5 -73t16 -87.5q0 -42 -12.5 -77 t-33.5 -66.5t-49 -61.5l-56 -60l-104 -106q34 10 67 16.5t59 6.5h70q36 0 56 -19t20 -51v-129h-584z" />
<glyph unicode="&#xbe;" horiz-adv-x="1549" d="M68 0zM68 929l98 39q39 14 71 7t44 -31q14 -27 33.5 -37t38.5 -10q31 0 48 18t17 48q0 26 -5.5 41t-20.5 23t-40 10.5t-63 2.5v144q41 0 66 5t39 14t18 23.5t4 33.5q0 27 -10 44.5t-43 17.5q-25 0 -37.5 -9t-22.5 -28q-8 -15 -16.5 -25.5t-19.5 -15.5t-26 -5.5t-38 3.5 l-117 20q9 62 35 107t64 74.5t86.5 43.5t103.5 14q63 0 112 -18t81 -47t48.5 -65t16.5 -72q0 -63 -24 -107.5t-80 -71.5q58 -19 87 -55t29 -94q0 -68 -25 -116t-65 -79t-90 -45t-100 -14q-53 0 -97.5 8.5t-81.5 32.5t-66.5 65t-51.5 106zM219 0l868 1392q31 48 70 74t94 26 h135l-877 -1405q-16 -26 -33 -42.5t-36 -26.5t-40.5 -14t-45.5 -4h-135zM842 292l336 476h219v-466h82v-109q0 -15 -11.5 -27.5t-29.5 -12.5h-41v-153h-188v153h-281q-30 0 -46 12.5t-22 32.5zM1046 302h163v112q0 27 1.5 58.5t5.5 65.5z" />
<glyph unicode="&#xbf;" horiz-adv-x="960" d="M71 0q0 78 21.5 132t54 92t72 63.5t75 48t61.5 45.5t33 55l29 143h217l22 -164q7 -55 -11 -91.5t-50.5 -62t-72.5 -46.5t-74.5 -46t-58 -58t-23.5 -83q0 -61 40 -97.5t111 -36.5q53 0 90 11t63 25t45.5 25t39.5 11q44 0 65 -38l84 -129q-39 -32 -83 -59.5t-95 -48.5 t-110 -32.5t-128 -11.5q-96 0 -173 24.5t-131.5 70t-83.5 111t-29 147.5zM351 904q0 37 14 69t38 55.5t57 37t71 13.5t71 -13.5t57.5 -37t38.5 -55.5t14 -69t-14 -69t-38.5 -55.5t-57.5 -37t-71 -13.5q-39 0 -71.5 13.5t-56.5 37t-38 55.5t-14 69z" />
<glyph unicode="&#xc0;" horiz-adv-x="1456" d="M-27 0l578 1492h354l578 -1492h-269q-45 0 -72.5 21t-41.5 54l-88 260h-568l-88 -260q-11 -29 -40 -52t-72 -23h-271zM0 0zM243 1912h329q24 0 41.5 -1.5t31 -6t25.5 -14t25 -25.5l214 -277h-231q-18 0 -31.5 0.5t-25.5 3.5t-22.5 9t-22.5 17zM524 570h408l-137 409 q-15 39 -33 91.5t-35 114.5q-16 -62 -33 -115.5t-32 -92.5z" />
<glyph unicode="&#xc1;" horiz-adv-x="1456" d="M-27 0l578 1492h354l578 -1492h-269q-45 0 -72.5 21t-41.5 54l-88 260h-568l-88 -260q-11 -29 -40 -52t-72 -23h-271zM0 0zM524 570h408l-137 409q-15 39 -33 91.5t-35 114.5q-16 -62 -33 -115.5t-32 -92.5zM530 1588l194 277q12 16 24 26t25.5 14.5t31.5 5.5t42 1h350 l-331 -292q-12 -11 -23 -17.5t-23.5 -9.5t-26.5 -4t-31 -1h-232z" />
<glyph unicode="&#xc2;" horiz-adv-x="1456" d="M-27 0l578 1492h354l578 -1492h-269q-45 0 -72.5 21t-41.5 54l-88 260h-568l-88 -260q-11 -29 -40 -52t-72 -23h-271zM0 0zM337 1588l250 285h289l250 -285h-229q-18 0 -45 7t-56 40l-51 80q-5 7 -9.5 13.5t-8.5 12.5l-19 -26l-51 -80q-29 -34 -55.5 -40.5t-44.5 -6.5 h-220zM524 570h408l-137 409q-15 39 -33 91.5t-35 114.5q-16 -62 -33 -115.5t-32 -92.5z" />
<glyph unicode="&#xc3;" horiz-adv-x="1456" d="M-27 0l578 1492h354l578 -1492h-269q-45 0 -72.5 21t-41.5 54l-88 260h-568l-88 -260q-11 -29 -40 -52t-72 -23h-271zM0 0zM340 1578q0 56 15 108.5t45.5 93.5t74 65.5t100.5 24.5t98 -15.5t72 -34.5t56.5 -34.5t52.5 -15.5q23 0 38 9t24.5 23t14 29.5t4.5 30.5h193 q0 -56 -15.5 -108.5t-45 -93t-73.5 -64.5t-102 -24q-57 0 -97.5 15.5t-71.5 34t-56.5 34t-52.5 15.5q-23 0 -38 -9t-24.5 -23t-13.5 -30.5t-4 -30.5h-194zM524 570h408l-137 409q-15 39 -33 91.5t-35 114.5q-16 -62 -33 -115.5t-32 -92.5z" />
<glyph unicode="&#xc4;" horiz-adv-x="1456" d="M-27 0l578 1492h354l578 -1492h-269q-45 0 -72.5 21t-41.5 54l-88 260h-568l-88 -260q-11 -29 -40 -52t-72 -23h-271zM0 0zM331 1708q0 32 13 60.5t34.5 50t49.5 34t59 12.5q34 0 63.5 -12.5t52 -34t35.5 -50t13 -60.5q0 -33 -13 -60.5t-35.5 -48.5t-52 -33t-63.5 -12 q-31 0 -59 12t-49.5 33t-34.5 48.5t-13 60.5zM524 570h408l-137 409q-15 39 -33 91.5t-35 114.5q-16 -62 -33 -115.5t-32 -92.5zM802 1708q0 32 13 60.5t34.5 50t50.5 34t62 12.5t62 -12.5t50.5 -34t34.5 -50t13 -60.5q0 -33 -13 -60.5t-34.5 -48.5t-50.5 -33t-62 -12 t-62 12t-50.5 33t-34.5 48.5t-13 60.5z" />
<glyph unicode="&#xc5;" horiz-adv-x="1456" d="M-27 0l578 1492h354l578 -1492h-269q-45 0 -72.5 21t-41.5 54l-88 260h-568l-88 -260q-11 -29 -40 -52t-72 -23h-271zM0 0zM498 1755q0 47 19 85.5t50.5 65.5t72 42t86.5 15q47 0 89 -15t74 -42t51 -65.5t19 -85.5q0 -45 -19 -82.5t-51 -64t-74 -41t-89 -14.5 q-45 0 -86 14.5t-72.5 41t-50.5 64t-19 82.5zM524 570h408l-137 409q-15 39 -33 91.5t-35 114.5q-16 -62 -33 -115.5t-32 -92.5zM648 1755q0 -36 20 -59t62 -23q37 0 58 23t21 59q0 39 -21.5 61.5t-57.5 22.5q-42 0 -62 -22.5t-20 -61.5z" />
<glyph unicode="&#xc6;" horiz-adv-x="1914" d="M-34 0l733 1492h1147v-266h-660l42 -348h475v-256h-445l44 -356h544v-266h-839l-41 335h-495l-114 -260q-16 -33 -49.5 -54t-79.5 -21h-262zM574 570h363l-80 668q-20 -60 -40.5 -112.5t-41.5 -96.5z" />
<glyph unicode="&#xc7;" horiz-adv-x="1342" d="M61 746q0 167 54.5 307t153 241.5t235.5 157.5t302 56q84 0 158 -14.5t138.5 -41t119 -63t96.5 -79.5l-117 -157q-11 -14 -26.5 -26t-42.5 -12q-18 0 -35 8.5t-35.5 20t-40.5 25.5t-52 25.5t-70.5 20t-94.5 8.5q-86 0 -157.5 -32t-123 -93t-79.5 -149.5t-28 -202.5 q0 -115 31 -203.5t85 -149.5t125.5 -93t153.5 -32q47 0 86 5t73 15.5t63.5 28.5t60.5 45q12 10 26.5 17t29.5 7q12 0 24.5 -4.5t23.5 -15.5l137 -145q-80 -103 -194.5 -162.5t-268.5 -71.5l-10 -37q49 -12 81.5 -29t52 -37t27.5 -43.5t8 -49.5q0 -36 -20 -64.5t-55.5 -49 t-86.5 -31.5t-112 -11q-42 0 -77.5 4.5t-74.5 12.5l29 95q6 28 35 28q15 0 29.5 -3.5t35.5 -3.5q27 0 38 9t11 20q0 23 -31 33t-106 22l47 137q-148 15 -265.5 78.5t-199 164t-124.5 231.5t-43 283z" />
<glyph unicode="&#xc8;" horiz-adv-x="1173" d="M144 0v1492h961v-266h-612v-348h469v-256h-469v-356h612v-266h-961zM144 0zM158 1912h329q24 0 41.5 -1.5t31 -6t25.5 -14t25 -25.5l214 -277h-231q-18 0 -31.5 0.5t-25.5 3.5t-22.5 9t-22.5 17z" />
<glyph unicode="&#xc9;" horiz-adv-x="1173" d="M144 0v1492h961v-266h-612v-348h469v-256h-469v-356h612v-266h-961zM144 0zM445 1588l194 277q12 16 24 26t25.5 14.5t31.5 5.5t42 1h350l-331 -292q-12 -11 -23 -17.5t-23.5 -9.5t-26.5 -4t-31 -1h-232z" />
<glyph unicode="&#xca;" horiz-adv-x="1173" d="M144 0v1492h961v-266h-612v-348h469v-256h-469v-356h612v-266h-961zM144 0zM252 1588l250 285h289l250 -285h-229q-18 0 -45 7t-56 40l-51 80q-5 7 -9.5 13.5t-8.5 12.5l-19 -26l-51 -80q-29 -34 -55.5 -40.5t-44.5 -6.5h-220z" />
<glyph unicode="&#xcb;" horiz-adv-x="1173" d="M144 0v1492h961v-266h-612v-348h469v-256h-469v-356h612v-266h-961zM144 0zM246 1708q0 32 13 60.5t34.5 50t49.5 34t59 12.5q34 0 63.5 -12.5t52 -34t35.5 -50t13 -60.5q0 -33 -13 -60.5t-35.5 -48.5t-52 -33t-63.5 -12q-31 0 -59 12t-49.5 33t-34.5 48.5t-13 60.5z M717 1708q0 32 13 60.5t34.5 50t50.5 34t62 12.5t62 -12.5t50.5 -34t34.5 -50t13 -60.5q0 -33 -13 -60.5t-34.5 -48.5t-50.5 -33t-62 -12t-62 12t-50.5 33t-34.5 48.5t-13 60.5z" />
<glyph unicode="&#xcc;" horiz-adv-x="636" d="M-162 1912h329q24 0 41.5 -1.5t31 -6t25.5 -14t25 -25.5l214 -277h-231q-18 0 -31.5 0.5t-25.5 3.5t-22.5 9t-22.5 17zM0 0zM144 0v1492h349v-1492h-349z" />
<glyph unicode="&#xcd;" horiz-adv-x="636" d="M125 1588l194 277q12 16 24 26t25.5 14.5t31.5 5.5t42 1h350l-331 -292q-12 -11 -23 -17.5t-23.5 -9.5t-26.5 -4t-31 -1h-232zM126 0zM144 0v1492h349v-1492h-349z" />
<glyph unicode="&#xce;" horiz-adv-x="636" d="M-67 1588l250 285h289l250 -285h-229q-18 0 -45 7t-56 40l-51 80q-5 7 -9.5 13.5t-8.5 12.5l-19 -26l-51 -80q-29 -34 -55.5 -40.5t-44.5 -6.5h-220zM0 0zM144 0v1492h349v-1492h-349z" />
<glyph unicode="&#xcf;" horiz-adv-x="636" d="M-73 1708q0 32 13 60.5t34.5 50t49.5 34t59 12.5q34 0 63.5 -12.5t52 -34t35.5 -50t13 -60.5q0 -33 -13 -60.5t-35.5 -48.5t-52 -33t-63.5 -12q-31 0 -59 12t-49.5 33t-34.5 48.5t-13 60.5zM0 0zM144 0v1492h349v-1492h-349zM398 1708q0 32 13 60.5t34.5 50t50.5 34 t62 12.5t62 -12.5t50.5 -34t34.5 -50t13 -60.5q0 -33 -13 -60.5t-34.5 -48.5t-50.5 -33t-62 -12t-62 12t-50.5 33t-34.5 48.5t-13 60.5z" />
<glyph unicode="&#xd0;" horiz-adv-x="1580" d="M-4 654v189h170v649h579q174 0 317 -56.5t244.5 -155.5t157.5 -236t56 -298q0 -162 -56 -298.5t-157.5 -236t-244 -155.5t-317.5 -56h-579v654h-170zM514 266h231q99 0 177 33.5t132 95.5t82.5 150.5t28.5 200.5q0 111 -28.5 200t-82.5 151t-131.5 95.5t-177.5 33.5h-231 v-383h250v-189h-250v-388z" />
<glyph unicode="&#xd1;" horiz-adv-x="1591" d="M144 0v1492h183q23 0 38 -2t27 -7.5t23.5 -16t25.5 -27.5l709 -896q-4 43 -6 83.5t-2 75.5v790h305v-1492h-180q-40 0 -67.5 13t-53.5 44l-704 889q3 -39 5.5 -76t2.5 -70v-800h-306zM411 1578q0 56 15 108.5t45.5 93.5t74 65.5t100.5 24.5t98 -15.5t72 -34.5t56.5 -34.5 t52.5 -15.5q23 0 38 9t24.5 23t14.5 29.5t5 30.5h192q0 -56 -15.5 -108.5t-45 -93t-73.5 -64.5t-101 -24t-98 15.5t-72 34t-56.5 34t-52.5 15.5q-23 0 -38 -9t-24.5 -23t-13.5 -30.5t-4 -30.5h-194z" />
<glyph unicode="&#xd2;" horiz-adv-x="1668" d="M58 0zM58 746q0 162 56 301.5t158 242t245 160.5t318 58q174 0 316.5 -58.5t244 -161t157.5 -242t56 -300.5q0 -162 -56 -301t-157.5 -242t-244 -161t-316.5 -58t-317.5 58t-245.5 161t-158 242.5t-56 300.5zM353 1912h329q24 0 41.5 -1.5t31 -6t25.5 -14t25 -25.5 l214 -277h-231q-18 0 -31.5 0.5t-25.5 3.5t-22.5 9t-22.5 17zM413 746q0 -112 28.5 -200t82.5 -149.5t132 -94t179 -32.5q99 0 177 32.5t131.5 94t82 149.5t28.5 200q0 111 -28.5 199.5t-82 150t-131.5 94.5t-177 33q-100 0 -178.5 -33t-132.5 -94.5t-82.5 -150 t-28.5 -199.5z" />
<glyph unicode="&#xd3;" horiz-adv-x="1668" d="M58 0zM58 746q0 162 56 301.5t158 242t245 160.5t318 58q174 0 316.5 -58.5t244 -161t157.5 -242t56 -300.5q0 -162 -56 -301t-157.5 -242t-244 -161t-316.5 -58t-317.5 58t-245.5 161t-158 242.5t-56 300.5zM413 746q0 -112 28.5 -200t82.5 -149.5t132 -94t179 -32.5 q99 0 177 32.5t131.5 94t82 149.5t28.5 200q0 111 -28.5 199.5t-82 150t-131.5 94.5t-177 33q-100 0 -178.5 -33t-132.5 -94.5t-82.5 -150t-28.5 -199.5zM640 1588l194 277q12 16 24 26t25.5 14.5t31.5 5.5t42 1h350l-331 -292q-12 -11 -23 -17.5t-23.5 -9.5t-26.5 -4 t-31 -1h-232z" />
<glyph unicode="&#xd4;" horiz-adv-x="1668" d="M58 0zM58 746q0 162 56 301.5t158 242t245 160.5t318 58q174 0 316.5 -58.5t244 -161t157.5 -242t56 -300.5q0 -162 -56 -301t-157.5 -242t-244 -161t-316.5 -58t-317.5 58t-245.5 161t-158 242.5t-56 300.5zM413 746q0 -112 28.5 -200t82.5 -149.5t132 -94t179 -32.5 q99 0 177 32.5t131.5 94t82 149.5t28.5 200q0 111 -28.5 199.5t-82 150t-131.5 94.5t-177 33q-100 0 -178.5 -33t-132.5 -94.5t-82.5 -150t-28.5 -199.5zM447 1588l250 285h289l250 -285h-229q-18 0 -45 7t-56 40l-51 80q-5 7 -9.5 13.5t-8.5 12.5l-19 -26l-51 -80 q-29 -34 -55.5 -40.5t-44.5 -6.5h-220z" />
<glyph unicode="&#xd5;" horiz-adv-x="1668" d="M58 0zM58 746q0 162 56 301.5t158 242t245 160.5t318 58q174 0 316.5 -58.5t244 -161t157.5 -242t56 -300.5q0 -162 -56 -301t-157.5 -242t-244 -161t-316.5 -58t-317.5 58t-245.5 161t-158 242.5t-56 300.5zM413 746q0 -112 28.5 -200t82.5 -149.5t132 -94t179 -32.5 q99 0 177 32.5t131.5 94t82 149.5t28.5 200q0 111 -28.5 199.5t-82 150t-131.5 94.5t-177 33q-100 0 -178.5 -33t-132.5 -94.5t-82.5 -150t-28.5 -199.5zM450 1578q0 56 15 108.5t45.5 93.5t74 65.5t100.5 24.5t98 -15.5t72 -34.5t56.5 -34.5t52.5 -15.5q23 0 38 9t24.5 23 t14 29.5t4.5 30.5h193q0 -56 -15.5 -108.5t-45 -93t-73.5 -64.5t-102 -24q-57 0 -97.5 15.5t-71.5 34t-56.5 34t-52.5 15.5q-23 0 -38 -9t-24.5 -23t-13.5 -30.5t-4 -30.5h-194z" />
<glyph unicode="&#xd6;" horiz-adv-x="1668" d="M58 0zM58 746q0 162 56 301.5t158 242t245 160.5t318 58q174 0 316.5 -58.5t244 -161t157.5 -242t56 -300.5q0 -162 -56 -301t-157.5 -242t-244 -161t-316.5 -58t-317.5 58t-245.5 161t-158 242.5t-56 300.5zM413 746q0 -112 28.5 -200t82.5 -149.5t132 -94t179 -32.5 q99 0 177 32.5t131.5 94t82 149.5t28.5 200q0 111 -28.5 199.5t-82 150t-131.5 94.5t-177 33q-100 0 -178.5 -33t-132.5 -94.5t-82.5 -150t-28.5 -199.5zM441 1708q0 32 13 60.5t34.5 50t49.5 34t59 12.5q34 0 63.5 -12.5t52 -34t35.5 -50t13 -60.5q0 -33 -13 -60.5 t-35.5 -48.5t-52 -33t-63.5 -12q-31 0 -59 12t-49.5 33t-34.5 48.5t-13 60.5zM912 1708q0 32 13 60.5t34.5 50t50.5 34t62 12.5t62 -12.5t50.5 -34t34.5 -50t13 -60.5q0 -33 -13 -60.5t-34.5 -48.5t-50.5 -33t-62 -12t-62 12t-50.5 33t-34.5 48.5t-13 60.5z" />
<glyph unicode="&#xd7;" d="M92 349l339 339l-318 320l166 160l316 -316l314 314l168 -160l-317 -318l338 -337l-168 -161l-334 334l-336 -336z" />
<glyph unicode="&#xd8;" horiz-adv-x="1668" d="M58 746q0 162 56 301.5t158 242t245 160.5t318 58q108 0 202.5 -22.5t176.5 -65.5l42 59q16 23 30 38t29.5 24.5t35 14t47.5 4.5h176l-189 -262q108 -104 166 -245.5t58 -306.5q0 -162 -56 -301t-157.5 -242t-244 -161t-316.5 -58q-96 0 -182.5 17.5t-163.5 51.5l-58 -81 q-37 -48 -88 -68t-100 -20h-135l203 283q-121 104 -187 252.5t-66 326.5zM413 746q0 -197 86 -318l539 749q-43 23 -94 34.5t-109 11.5q-100 0 -178.5 -33t-132.5 -94.5t-82.5 -150t-28.5 -199.5zM667 299q73 -29 168 -29q99 0 177 32.5t131.5 94t82 149.5t28.5 200 q0 83 -16 154t-47 127z" />
<glyph unicode="&#xd9;" horiz-adv-x="1533" d="M126 0zM126 608v884h346v-883q0 -79 20 -140.5t58 -105.5t92.5 -67t124.5 -23t124.5 23t92.5 66.5t58 105t20 140.5v884h346v-884q0 -137 -44.5 -251.5t-127.5 -197.5t-202 -129t-267 -46q-150 0 -268.5 46t-201.5 129t-127 197.5t-44 251.5zM283 1912h329 q24 0 41.5 -1.5t31 -6t25.5 -14t25 -25.5l214 -277h-231q-18 0 -31.5 0.5t-25.5 3.5t-22.5 9t-22.5 17z" />
<glyph unicode="&#xda;" horiz-adv-x="1533" d="M126 0zM126 608v884h346v-883q0 -79 20 -140.5t58 -105.5t92.5 -67t124.5 -23t124.5 23t92.5 66.5t58 105t20 140.5v884h346v-884q0 -137 -44.5 -251.5t-127.5 -197.5t-202 -129t-267 -46q-150 0 -268.5 46t-201.5 129t-127 197.5t-44 251.5zM570 1588l194 277 q12 16 24 26t25.5 14.5t31.5 5.5t42 1h350l-331 -292q-12 -11 -23 -17.5t-23.5 -9.5t-26.5 -4t-31 -1h-232z" />
<glyph unicode="&#xdb;" horiz-adv-x="1533" d="M126 0zM126 608v884h346v-883q0 -79 20 -140.5t58 -105.5t92.5 -67t124.5 -23t124.5 23t92.5 66.5t58 105t20 140.5v884h346v-884q0 -137 -44.5 -251.5t-127.5 -197.5t-202 -129t-267 -46q-150 0 -268.5 46t-201.5 129t-127 197.5t-44 251.5zM377 1588l250 285h289 l250 -285h-229q-18 0 -45 7t-56 40l-51 80q-5 7 -9.5 13.5t-8.5 12.5l-19 -26l-51 -80q-29 -34 -55.5 -40.5t-44.5 -6.5h-220z" />
<glyph unicode="&#xdc;" horiz-adv-x="1533" d="M126 0zM126 608v884h346v-883q0 -79 20 -140.5t58 -105.5t92.5 -67t124.5 -23t124.5 23t92.5 66.5t58 105t20 140.5v884h346v-884q0 -137 -44.5 -251.5t-127.5 -197.5t-202 -129t-267 -46q-150 0 -268.5 46t-201.5 129t-127 197.5t-44 251.5zM371 1708q0 32 13 60.5 t34.5 50t49.5 34t59 12.5q34 0 63.5 -12.5t52 -34t35.5 -50t13 -60.5q0 -33 -13 -60.5t-35.5 -48.5t-52 -33t-63.5 -12q-31 0 -59 12t-49.5 33t-34.5 48.5t-13 60.5zM842 1708q0 32 13 60.5t34.5 50t50.5 34t62 12.5t62 -12.5t50.5 -34t34.5 -50t13 -60.5q0 -33 -13 -60.5 t-34.5 -48.5t-50.5 -33t-62 -12t-62 12t-50.5 33t-34.5 48.5t-13 60.5z" />
<glyph unicode="&#xdd;" horiz-adv-x="1372" d="M-28 1492h306q45 0 71 -21t43 -54l211 -434q27 -51 48 -95.5t37 -87.5q15 44 35.5 88.5t47.5 94.5l209 434q7 13 17.5 26.5t24 24.5t31.5 17.5t40 6.5h307l-541 -925v-567h-346v567zM0 0zM492 1588l194 277q12 16 24 26t25.5 14.5t31.5 5.5t42 1h350l-331 -292 q-12 -11 -23 -17.5t-23.5 -9.5t-26.5 -4t-31 -1h-232z" />
<glyph unicode="&#xde;" horiz-adv-x="1293" d="M144 0v1492h346v-241h181q158 0 271 -37t186 -102.5t108 -155t35 -192.5q0 -112 -36 -205t-109.5 -159.5t-187 -104t-267.5 -37.5h-181v-258h-346zM490 519h181q135 0 194.5 64.5t59.5 180.5q0 51 -15.5 93t-47 72t-79 46.5t-112.5 16.5h-181v-473z" />
<glyph unicode="&#xdf;" horiz-adv-x="1275" d="M106 0v1001q0 110 38.5 204.5t112.5 165t180 110.5t241 40q133 0 225 -38t149 -94.5t82 -120t25 -115.5q0 -57 -18.5 -98t-46 -71t-59 -52t-59.5 -41.5t-46.5 -39.5t-18.5 -46q0 -29 24 -52t59.5 -47.5t77.5 -53t77.5 -69t59.5 -96.5t24 -134q0 -93 -35.5 -162 t-93.5 -115t-135 -69t-160 -23q-45 0 -92 10t-91.5 27.5t-84 41.5t-70.5 52l74 116q12 20 31 32t49 12q28 0 50 -12t45 -26.5t51 -26.5t67 -12q40 0 69 29t29 77q0 41 -26.5 69.5t-66.5 53.5t-86 50t-86 60t-66.5 84t-26.5 121q0 61 19.5 105.5t50.5 76.5t66 58t65.5 50.5 t50.5 52.5t20 66q0 69 -44.5 108t-141.5 39q-65 0 -110.5 -21t-74 -60t-42 -96.5t-13.5 -129.5v-991h-318z" />
<glyph unicode="&#xe0;" horiz-adv-x="1059" d="M35 0zM35 276q0 56 28.5 116t99 108.5t190.5 81t302 36.5v46q0 93 -38 134.5t-109 41.5q-56 0 -92 -12.5t-64 -28t-55 -27.5t-64 -12q-33 0 -55 16.5t-37 38.5l-57 99q96 85 213.5 126.5t251.5 41.5q96 0 173.5 -31t131 -87t82.5 -132.5t29 -167.5v-664h-146 q-45 0 -68 12.5t-38 50.5l-23 59q-40 -34 -76.5 -59.5t-76 -43.5t-84 -26.5t-99.5 -8.5q-73 0 -132 19t-100.5 55.5t-64 91.5t-22.5 126zM147 1508h297q48 0 71.5 -15.5t40.5 -45.5l140 -251h-181q-36 0 -57 9.5t-45 33.5zM338 292q0 -54 30 -76t87 -22q61 0 107 21.5 t93 69.5v147q-95 -4 -156.5 -16.5t-97 -30.5t-49.5 -42t-14 -51z" />
<glyph unicode="&#xe1;" horiz-adv-x="1059" d="M35 0zM35 276q0 56 28.5 116t99 108.5t190.5 81t302 36.5v46q0 93 -38 134.5t-109 41.5q-56 0 -92 -12.5t-64 -28t-55 -27.5t-64 -12q-33 0 -55 16.5t-37 38.5l-57 99q96 85 213.5 126.5t251.5 41.5q96 0 173.5 -31t131 -87t82.5 -132.5t29 -167.5v-664h-146 q-45 0 -68 12.5t-38 50.5l-23 59q-40 -34 -76.5 -59.5t-76 -43.5t-84 -26.5t-99.5 -8.5q-73 0 -132 19t-100.5 55.5t-64 91.5t-22.5 126zM338 292q0 -54 30 -76t87 -22q61 0 107 21.5t93 69.5v147q-95 -4 -156.5 -16.5t-97 -30.5t-49.5 -42t-14 -51zM370 1196l139 251 q17 30 41 45.5t72 15.5h307l-266 -269q-24 -24 -45.5 -33.5t-57.5 -9.5h-190z" />
<glyph unicode="&#xe2;" horiz-adv-x="1059" d="M35 0zM35 276q0 56 28.5 116t99 108.5t190.5 81t302 36.5v46q0 93 -38 134.5t-109 41.5q-56 0 -92 -12.5t-64 -28t-55 -27.5t-64 -12q-33 0 -55 16.5t-37 38.5l-57 99q96 85 213.5 126.5t251.5 41.5q96 0 173.5 -31t131 -87t82.5 -132.5t29 -167.5v-664h-146 q-45 0 -68 12.5t-38 50.5l-23 59q-40 -34 -76.5 -59.5t-76 -43.5t-84 -26.5t-99.5 -8.5q-73 0 -132 19t-100.5 55.5t-64 91.5t-22.5 126zM134 1196l240 296h299l240 -296h-211q-18 0 -35.5 5.5t-35.5 23.5l-77 85l-12.5 12.5t-12.5 14.5q-6 -8 -13 -15t-13 -12l-79 -85 q-15 -14 -33.5 -21.5t-36.5 -7.5h-220zM338 292q0 -54 30 -76t87 -22q61 0 107 21.5t93 69.5v147q-95 -4 -156.5 -16.5t-97 -30.5t-49.5 -42t-14 -51z" />
<glyph unicode="&#xe3;" horiz-adv-x="1059" d="M35 0zM35 276q0 56 28.5 116t99 108.5t190.5 81t302 36.5v46q0 93 -38 134.5t-109 41.5q-56 0 -92 -12.5t-64 -28t-55 -27.5t-64 -12q-33 0 -55 16.5t-37 38.5l-57 99q96 85 213.5 126.5t251.5 41.5q96 0 173.5 -31t131 -87t82.5 -132.5t29 -167.5v-664h-146 q-45 0 -68 12.5t-38 50.5l-23 59q-40 -34 -76.5 -59.5t-76 -43.5t-84 -26.5t-99.5 -8.5q-73 0 -132 19t-100.5 55.5t-64 91.5t-22.5 126zM171 1214q0 65 18.5 116.5t50.5 88.5t75 57t92 20q38 0 71 -11.5t61 -26t51 -26.5t40 -12q25 0 40 13t15 55h193q0 -65 -18 -116.5 t-49.5 -88t-74.5 -56t-94 -19.5q-38 0 -70.5 12t-60.5 26.5t-51 26t-41 11.5q-25 0 -39 -14t-14 -56h-195zM338 292q0 -54 30 -76t87 -22q61 0 107 21.5t93 69.5v147q-95 -4 -156.5 -16.5t-97 -30.5t-49.5 -42t-14 -51z" />
<glyph unicode="&#xe4;" horiz-adv-x="1059" d="M35 0zM35 276q0 56 28.5 116t99 108.5t190.5 81t302 36.5v46q0 93 -38 134.5t-109 41.5q-56 0 -92 -12.5t-64 -28t-55 -27.5t-64 -12q-33 0 -55 16.5t-37 38.5l-57 99q96 85 213.5 126.5t251.5 41.5q96 0 173.5 -31t131 -87t82.5 -132.5t29 -167.5v-664h-146 q-45 0 -68 12.5t-38 50.5l-23 59q-40 -34 -76.5 -59.5t-76 -43.5t-84 -26.5t-99.5 -8.5q-73 0 -132 19t-100.5 55.5t-64 91.5t-22.5 126zM141 1326q0 34 13 63.5t35 51.5t51.5 35t61.5 13q35 0 65.5 -13t53.5 -35t36 -51.5t13 -63.5q0 -33 -13 -61.5t-36 -49.5t-53.5 -33.5 t-65.5 -12.5q-33 0 -62 12.5t-51 33.5t-35 49.5t-13 61.5zM338 292q0 -54 30 -76t87 -22q61 0 107 21.5t93 69.5v147q-95 -4 -156.5 -16.5t-97 -30.5t-49.5 -42t-14 -51zM577 1326q0 34 12.5 63.5t35.5 51.5t52.5 35t63.5 13q35 0 65 -13t52.5 -35t35.5 -51.5t13 -63.5 q0 -33 -13 -61.5t-35.5 -49.5t-52.5 -33.5t-65 -12.5q-34 0 -63.5 12.5t-52.5 33.5t-35.5 49.5t-12.5 61.5z" />
<glyph unicode="&#xe5;" horiz-adv-x="1059" d="M35 0zM35 276q0 56 28.5 116t99 108.5t190.5 81t302 36.5v46q0 93 -38 134.5t-109 41.5q-56 0 -92 -12.5t-64 -28t-55 -27.5t-64 -12q-33 0 -55 16.5t-37 38.5l-57 99q96 85 213.5 126.5t251.5 41.5q96 0 173.5 -31t131 -87t82.5 -132.5t29 -167.5v-664h-146 q-45 0 -68 12.5t-38 50.5l-23 59q-40 -34 -76.5 -59.5t-76 -43.5t-84 -26.5t-99.5 -8.5q-73 0 -132 19t-100.5 55.5t-64 91.5t-22.5 126zM276 1366q0 51 20.5 92.5t54 71.5t78.5 45.5t95 15.5t96 -15.5t81.5 -45.5t56 -71.5t20.5 -92.5q0 -50 -20.5 -90.5t-56 -69 t-81.5 -44.5t-96 -16q-49 0 -94.5 16t-79 44.5t-54 69t-20.5 90.5zM338 292q0 -54 30 -76t87 -22q61 0 107 21.5t93 69.5v147q-95 -4 -156.5 -16.5t-97 -30.5t-49.5 -42t-14 -51zM446 1366q0 -36 20 -59t62 -23q37 0 58.5 23t21.5 59q0 39 -21.5 61.5t-58.5 22.5 q-42 0 -62 -22.5t-20 -61.5z" />
<glyph unicode="&#xe6;" horiz-adv-x="1667" d="M37 288q0 38 12 78t40.5 78t75 72.5t115.5 61t162.5 43t214.5 19.5v24q0 93 -38 139t-109 46q-56 0 -92 -14t-64 -31t-55 -30.5t-63 -13.5q-33 0 -55.5 16.5t-37.5 38.5l-57 99q96 85 200.5 126.5t229.5 41.5q116 0 192.5 -40t119.5 -110q60 68 146.5 107t199.5 39 q94 0 175 -35.5t139.5 -102t92 -160t33.5 -209.5q0 -36 -3 -58.5t-11 -35.5t-21 -18t-35 -5h-583q17 -122 79 -177.5t156 -55.5q69 0 109.5 12.5t66.5 26.5t45 26.5t45 12.5q44 0 64 -28l86 -105q-49 -56 -105 -91.5t-114.5 -55.5t-116 -27.5t-111.5 -7.5q-52 0 -103 10.5 t-98.5 33.5t-88.5 59t-75 85q-33 -49 -78.5 -85t-100 -59t-116 -33.5t-126.5 -10.5q-164 0 -253 79.5t-89 224.5zM340 303q0 -55 29.5 -82t87.5 -27q43 0 79.5 12.5t63.5 41t42 75.5t15 114v17q-95 -5 -156.5 -19t-97 -34.5t-49.5 -45.5t-14 -52zM958 638h373 q0 38 -8.5 77.5t-28.5 71t-53.5 52t-81.5 20.5q-90 0 -138.5 -57t-62.5 -164z" />
<glyph unicode="&#xe7;" horiz-adv-x="998" d="M52 534q0 115 34.5 214.5t101.5 172.5t166 115t229 42q125 0 219 -40t170 -116l-84 -112q-14 -17 -27.5 -27.5t-38.5 -10.5q-24 0 -42.5 11.5t-42 25t-55.5 25t-79 11.5q-58 0 -100.5 -21.5t-70.5 -61.5t-41 -98t-13 -130q0 -153 59 -235t162 -82q55 0 87.5 14t55 31 t41.5 31t47 14q38 0 58 -27l92 -114q-39 -45 -81.5 -76.5t-87 -52t-90 -32t-90.5 -16.5l-11 -39q49 -12 81 -29t51.5 -37t27.5 -43.5t8 -49.5q0 -36 -19.5 -64.5t-55.5 -49t-87 -31.5t-112 -11q-42 0 -77.5 4.5t-74.5 12.5l29 95q6 28 35 28q15 0 29.5 -3.5t36.5 -3.5 q27 0 38 9t11 20q0 23 -31.5 33t-106.5 22l49 140q-83 15 -156 58t-127 111.5t-85.5 162.5t-31.5 210z" />
<glyph unicode="&#xe8;" horiz-adv-x="1103" d="M51 0zM51 554q0 106 36.5 201.5t104.5 167t164.5 113.5t218.5 42q105 0 193 -32.5t151 -95t98.5 -153t35.5 -205.5q0 -36 -3 -58.5t-11.5 -36t-22.5 -18.5t-35 -5h-612q15 -133 80.5 -193t168.5 -60q55 0 95.5 13.5t71.5 30t57 29.5t55 13q38 0 57 -27l93 -114 q-49 -56 -106 -91.5t-117 -55.5t-120 -27.5t-114 -7.5q-112 0 -209.5 36t-171 108t-116 178.5t-42.5 247.5zM207 1508h297q48 0 71.5 -15.5t40.5 -45.5l140 -251h-181q-36 0 -57 9.5t-45 33.5zM372 658h396q0 38 -9.5 74t-31.5 64t-58 45.5t-87 17.5q-91 0 -142.5 -51.5 t-67.5 -149.5z" />
<glyph unicode="&#xe9;" horiz-adv-x="1103" d="M51 0zM51 554q0 106 36.5 201.5t104.5 167t164.5 113.5t218.5 42q105 0 193 -32.5t151 -95t98.5 -153t35.5 -205.5q0 -36 -3 -58.5t-11.5 -36t-22.5 -18.5t-35 -5h-612q15 -133 80.5 -193t168.5 -60q55 0 95.5 13.5t71.5 30t57 29.5t55 13q38 0 57 -27l93 -114 q-49 -56 -106 -91.5t-117 -55.5t-120 -27.5t-114 -7.5q-112 0 -209.5 36t-171 108t-116 178.5t-42.5 247.5zM372 658h396q0 38 -9.5 74t-31.5 64t-58 45.5t-87 17.5q-91 0 -142.5 -51.5t-67.5 -149.5zM430 1196l139 251q17 30 41 45.5t72 15.5h307l-266 -269 q-24 -24 -45.5 -33.5t-57.5 -9.5h-190z" />
<glyph unicode="&#xea;" horiz-adv-x="1103" d="M51 0zM51 554q0 106 36.5 201.5t104.5 167t164.5 113.5t218.5 42q105 0 193 -32.5t151 -95t98.5 -153t35.5 -205.5q0 -36 -3 -58.5t-11.5 -36t-22.5 -18.5t-35 -5h-612q15 -133 80.5 -193t168.5 -60q55 0 95.5 13.5t71.5 30t57 29.5t55 13q38 0 57 -27l93 -114 q-49 -56 -106 -91.5t-117 -55.5t-120 -27.5t-114 -7.5q-112 0 -209.5 36t-171 108t-116 178.5t-42.5 247.5zM194 1196l240 296h299l240 -296h-211q-18 0 -35.5 5.5t-35.5 23.5l-77 85l-12.5 12.5t-12.5 14.5q-6 -8 -13 -15t-13 -12l-79 -85q-15 -14 -33.5 -21.5t-36.5 -7.5 h-220zM372 658h396q0 38 -9.5 74t-31.5 64t-58 45.5t-87 17.5q-91 0 -142.5 -51.5t-67.5 -149.5z" />
<glyph unicode="&#xeb;" horiz-adv-x="1103" d="M51 0zM51 554q0 106 36.5 201.5t104.5 167t164.5 113.5t218.5 42q105 0 193 -32.5t151 -95t98.5 -153t35.5 -205.5q0 -36 -3 -58.5t-11.5 -36t-22.5 -18.5t-35 -5h-612q15 -133 80.5 -193t168.5 -60q55 0 95.5 13.5t71.5 30t57 29.5t55 13q38 0 57 -27l93 -114 q-49 -56 -106 -91.5t-117 -55.5t-120 -27.5t-114 -7.5q-112 0 -209.5 36t-171 108t-116 178.5t-42.5 247.5zM201 1326q0 34 13 63.5t35 51.5t51.5 35t61.5 13q35 0 65.5 -13t53.5 -35t36 -51.5t13 -63.5q0 -33 -13 -61.5t-36 -49.5t-53.5 -33.5t-65.5 -12.5q-33 0 -62 12.5 t-51 33.5t-35 49.5t-13 61.5zM372 658h396q0 38 -9.5 74t-31.5 64t-58 45.5t-87 17.5q-91 0 -142.5 -51.5t-67.5 -149.5zM637 1326q0 34 12.5 63.5t35.5 51.5t52.5 35t63.5 13q35 0 65 -13t52.5 -35t35.5 -51.5t13 -63.5q0 -33 -13 -61.5t-35.5 -49.5t-52.5 -33.5t-65 -12.5 q-34 0 -63.5 12.5t-52.5 33.5t-35.5 49.5t-12.5 61.5z" />
<glyph unicode="&#xec;" horiz-adv-x="546" d="M-94 1508h297q48 0 71.5 -15.5t40.5 -45.5l140 -251h-181q-36 0 -57 9.5t-45 33.5zM0 0zM115 0v1062h317v-1062h-317z" />
<glyph unicode="&#xed;" horiz-adv-x="547" d="M116 0v1062h317v-1062h-317zM116 0zM130 1196l139 251q17 30 41 45.5t72 15.5h307l-266 -269q-24 -24 -45.5 -33.5t-57.5 -9.5h-190z" />
<glyph unicode="&#xee;" horiz-adv-x="546" d="M-107 1196l240 296h299l240 -296h-211q-18 0 -35.5 5.5t-35.5 23.5l-77 85l-12.5 12.5t-12.5 14.5q-6 -8 -13 -15t-13 -12l-79 -85q-15 -14 -33.5 -21.5t-36.5 -7.5h-220zM0 0zM115 0v1062h317v-1062h-317z" />
<glyph unicode="&#xef;" horiz-adv-x="546" d="M-70 1326q0 34 13.5 63.5t35.5 51.5t51 35t62 13q35 0 65 -13t53 -35t36.5 -51.5t13.5 -63.5q0 -33 -13.5 -61.5t-36.5 -49.5t-53 -33.5t-65 -12.5q-33 0 -62 12.5t-51 33.5t-35.5 49.5t-13.5 61.5zM0 0zM115 0v1062h317v-1062h-317zM305 1326q0 34 13 63.5t35.5 51.5 t52 35t63.5 13q35 0 65 -13t52.5 -35t35.5 -51.5t13 -63.5q0 -33 -13 -61.5t-35.5 -49.5t-52.5 -33.5t-65 -12.5q-34 0 -63.5 12.5t-52 33.5t-35.5 49.5t-13 61.5z" />
<glyph unicode="&#xf0;" horiz-adv-x="1176" d="M48 492q0 92 34.5 176.5t97.5 149t151 102t194 37.5q92 0 164.5 -28.5t130.5 -80.5q-20 84 -64 148.5t-122 116.5l-217 -127l-60 98q-18 30 -10 56t39 43l47 22q-20 7 -40.5 14t-43.5 13q-20 6 -37 18t-26.5 29t-9.5 41.5t12 54.5l37 106q109 -17 208 -50t186 -83 l187 109l64 -100q17 -27 9.5 -52.5t-34.5 -39.5l-67 -34q112 -105 175.5 -255.5t63.5 -349.5q0 -154 -36.5 -273.5t-106.5 -201.5t-172.5 -124.5t-233.5 -42.5q-112 0 -207 34t-164.5 99.5t-109 160t-39.5 214.5zM364 489q0 -67 16 -117.5t45 -85t68 -52t84 -17.5 q46 0 88 17t75 57.5t53.5 109.5t23.5 173q-30 65 -84.5 107.5t-141.5 42.5q-55 0 -97.5 -18.5t-71.5 -50t-43.5 -74t-14.5 -92.5z" />
<glyph unicode="&#xf1;" horiz-adv-x="1167" d="M108 0v1062h196q59 0 78 -53l18 -62q31 29 64 53.5t70 41.5t80.5 26.5t95.5 9.5q87 0 154 -30t113 -84t69.5 -128t23.5 -161v-675h-317v675q0 78 -36 121.5t-106 43.5q-52 0 -98 -22.5t-88 -60.5v-757h-317zM108 0zM244 1214q0 65 18.5 116.5t50.5 88.5t75 57t92 20 q38 0 71 -11.5t61 -26t51 -26.5t40 -12q25 0 40 13t15 55h193q0 -65 -18 -116.5t-49.5 -88t-74.5 -56t-94 -19.5q-38 0 -70.5 12t-60.5 26.5t-51 26t-41 11.5q-25 0 -39 -14t-14 -56h-195z" />
<glyph unicode="&#xf2;" horiz-adv-x="1189" d="M52 0zM52 534q0 126 39.5 226.5t111.5 171t172 108.5t222 38q121 0 220 -38t170.5 -108.5t111 -171.5t39.5 -226q0 -127 -39.5 -229t-111 -173.5t-170.5 -109.5t-220 -38q-122 0 -222 38t-172 109.5t-111.5 173.5t-39.5 229zM220 1508h297q48 0 71.5 -15.5t40.5 -45.5 l140 -251h-181q-36 0 -57 9.5t-45 33.5zM380 531q0 -158 52 -235t165 -77q110 0 161.5 77.5t51.5 234.5q0 158 -51.5 235t-161.5 77q-113 0 -165 -77t-52 -235z" />
<glyph unicode="&#xf3;" horiz-adv-x="1189" d="M52 0zM52 534q0 126 39.5 226.5t111.5 171t172 108.5t222 38q121 0 220 -38t170.5 -108.5t111 -171.5t39.5 -226q0 -127 -39.5 -229t-111 -173.5t-170.5 -109.5t-220 -38q-122 0 -222 38t-172 109.5t-111.5 173.5t-39.5 229zM380 531q0 -158 52 -235t165 -77 q110 0 161.5 77.5t51.5 234.5q0 158 -51.5 235t-161.5 77q-113 0 -165 -77t-52 -235zM443 1196l139 251q17 30 41 45.5t72 15.5h307l-266 -269q-24 -24 -45.5 -33.5t-57.5 -9.5h-190z" />
<glyph unicode="&#xf4;" horiz-adv-x="1189" d="M52 0zM52 534q0 126 39.5 226.5t111.5 171t172 108.5t222 38q121 0 220 -38t170.5 -108.5t111 -171.5t39.5 -226q0 -127 -39.5 -229t-111 -173.5t-170.5 -109.5t-220 -38q-122 0 -222 38t-172 109.5t-111.5 173.5t-39.5 229zM207 1196l240 296h299l240 -296h-211 q-18 0 -35.5 5.5t-35.5 23.5l-77 85l-12.5 12.5t-12.5 14.5q-6 -8 -13 -15t-13 -12l-79 -85q-15 -14 -33.5 -21.5t-36.5 -7.5h-220zM380 531q0 -158 52 -235t165 -77q110 0 161.5 77.5t51.5 234.5q0 158 -51.5 235t-161.5 77q-113 0 -165 -77t-52 -235z" />
<glyph unicode="&#xf5;" horiz-adv-x="1189" d="M52 0zM52 534q0 126 39.5 226.5t111.5 171t172 108.5t222 38q121 0 220 -38t170.5 -108.5t111 -171.5t39.5 -226q0 -127 -39.5 -229t-111 -173.5t-170.5 -109.5t-220 -38q-122 0 -222 38t-172 109.5t-111.5 173.5t-39.5 229zM244 1214q0 65 18.5 116.5t50.5 88.5t75 57 t92 20q38 0 71 -11.5t61 -26t51 -26.5t40 -12q25 0 40 13t15 55h193q0 -65 -18 -116.5t-49.5 -88t-74.5 -56t-94 -19.5q-38 0 -70.5 12t-60.5 26.5t-51 26t-41 11.5q-25 0 -39 -14t-14 -56h-195zM380 531q0 -158 52 -235t165 -77q110 0 161.5 77.5t51.5 234.5 q0 158 -51.5 235t-161.5 77q-113 0 -165 -77t-52 -235z" />
<glyph unicode="&#xf6;" horiz-adv-x="1189" d="M52 0zM52 534q0 126 39.5 226.5t111.5 171t172 108.5t222 38q121 0 220 -38t170.5 -108.5t111 -171.5t39.5 -226q0 -127 -39.5 -229t-111 -173.5t-170.5 -109.5t-220 -38q-122 0 -222 38t-172 109.5t-111.5 173.5t-39.5 229zM214 1326q0 34 13 63.5t35 51.5t51.5 35 t61.5 13q35 0 65.5 -13t53.5 -35t36 -51.5t13 -63.5q0 -33 -13 -61.5t-36 -49.5t-53.5 -33.5t-65.5 -12.5q-33 0 -62 12.5t-51 33.5t-35 49.5t-13 61.5zM380 531q0 -158 52 -235t165 -77q110 0 161.5 77.5t51.5 234.5q0 158 -51.5 235t-161.5 77q-113 0 -165 -77t-52 -235z M650 1326q0 34 12.5 63.5t35.5 51.5t52.5 35t63.5 13q35 0 65 -13t52.5 -35t35.5 -51.5t13 -63.5q0 -33 -13 -61.5t-35.5 -49.5t-52.5 -33.5t-65 -12.5q-34 0 -63.5 12.5t-52.5 33.5t-35.5 49.5t-12.5 61.5z" />
<glyph unicode="&#xf7;" d="M87 574v228h1014v-228h-1014zM413 324q0 37 13.5 68.5t37.5 55t57 37.5t72 14q38 0 70.5 -14t57 -37.5t38.5 -55.5t14 -68q0 -37 -14 -69.5t-38.5 -56t-57 -37t-70.5 -13.5q-39 0 -72 13.5t-57 37t-37.5 56t-13.5 69.5zM413 1053q0 37 13.5 68.5t37.5 55t57 37.5t72 14 q38 0 70.5 -14t57 -37.5t38.5 -55t14 -68.5t-14 -69.5t-38.5 -56t-57 -36.5t-70.5 -13q-39 0 -72 13t-57 36.5t-37.5 56t-13.5 69.5z" />
<glyph unicode="&#xf8;" horiz-adv-x="1189" d="M26 -80l164 224q-67 71 -102.5 169.5t-35.5 220.5q0 126 39.5 226.5t111.5 171t172 108.5t222 38q135 0 244 -48l47 64q15 23 29 38t29.5 24t35 13.5t47.5 4.5h156l-187 -253q67 -71 103.5 -169t36.5 -218q0 -127 -39.5 -229t-111 -173.5t-170.5 -109.5t-220 -38 q-138 0 -251 50l-17 -25q-17 -26 -39.5 -42.5t-47.5 -27t-51 -15t-51 -4.5h-114zM359 531q0 -82 14 -138l323 441q-42 19 -99 19q-113 0 -175.5 -82t-62.5 -240zM490 230q45 -20 107 -20q110 0 171.5 82t61.5 239q0 80 -14 141z" />
<glyph unicode="&#xf9;" horiz-adv-x="1167" d="M97 0zM97 388v674h318v-674q0 -79 35.5 -122t105.5 -43q52 0 97.5 21.5t88.5 60.5v757h318v-1062h-197q-59 0 -78 53l-19 62q-31 -30 -63.5 -54t-70 -41t-80.5 -26.5t-94 -9.5q-87 0 -154 30t-113.5 84.5t-70 128t-23.5 161.5zM207 1508h297q48 0 71.5 -15.5t40.5 -45.5 l140 -251h-181q-36 0 -57 9.5t-45 33.5z" />
<glyph unicode="&#xfa;" horiz-adv-x="1167" d="M97 0zM97 388v674h318v-674q0 -79 35.5 -122t105.5 -43q52 0 97.5 21.5t88.5 60.5v757h318v-1062h-197q-59 0 -78 53l-19 62q-31 -30 -63.5 -54t-70 -41t-80.5 -26.5t-94 -9.5q-87 0 -154 30t-113.5 84.5t-70 128t-23.5 161.5zM430 1196l139 251q17 30 41 45.5t72 15.5 h307l-266 -269q-24 -24 -45.5 -33.5t-57.5 -9.5h-190z" />
<glyph unicode="&#xfb;" horiz-adv-x="1167" d="M97 0zM97 388v674h318v-674q0 -79 35.5 -122t105.5 -43q52 0 97.5 21.5t88.5 60.5v757h318v-1062h-197q-59 0 -78 53l-19 62q-31 -30 -63.5 -54t-70 -41t-80.5 -26.5t-94 -9.5q-87 0 -154 30t-113.5 84.5t-70 128t-23.5 161.5zM194 1196l240 296h299l240 -296h-211 q-18 0 -35.5 5.5t-35.5 23.5l-77 85l-12.5 12.5t-12.5 14.5q-6 -8 -13 -15t-13 -12l-79 -85q-15 -14 -33.5 -21.5t-36.5 -7.5h-220z" />
<glyph unicode="&#xfc;" horiz-adv-x="1167" d="M97 0zM97 388v674h318v-674q0 -79 35.5 -122t105.5 -43q52 0 97.5 21.5t88.5 60.5v757h318v-1062h-197q-59 0 -78 53l-19 62q-31 -30 -63.5 -54t-70 -41t-80.5 -26.5t-94 -9.5q-87 0 -154 30t-113.5 84.5t-70 128t-23.5 161.5zM201 1326q0 34 13 63.5t35 51.5t51.5 35 t61.5 13q35 0 65.5 -13t53.5 -35t36 -51.5t13 -63.5q0 -33 -13 -61.5t-36 -49.5t-53.5 -33.5t-65.5 -12.5q-33 0 -62 12.5t-51 33.5t-35 49.5t-13 61.5zM637 1326q0 34 12.5 63.5t35.5 51.5t52.5 35t63.5 13q35 0 65 -13t52.5 -35t35.5 -51.5t13 -63.5q0 -33 -13 -61.5 t-35.5 -49.5t-52.5 -33.5t-65 -12.5q-34 0 -63.5 12.5t-52.5 33.5t-35.5 49.5t-12.5 61.5z" />
<glyph unicode="&#xfd;" horiz-adv-x="1101" d="M-8 1062h280q37 0 57 -16.5t29 -38.5l174 -458q25 -63 40 -127q10 33 22 65l24 64l158 456q9 24 33 39.5t51 15.5h256l-567 -1337q-14 -32 -34.5 -47t-65.5 -15h-238l205 430zM0 0zM422 1196l139 251q17 30 41 45.5t72 15.5h307l-266 -269q-24 -24 -45.5 -33.5 t-57.5 -9.5h-190z" />
<glyph unicode="&#xfe;" horiz-adv-x="1177" d="M108 -337v1870h317v-584q59 58 134.5 93.5t176.5 35.5q83 0 154 -35.5t122 -105t80 -169.5t29 -228q0 -120 -33 -221.5t-93 -176t-143.5 -116.5t-184.5 -42q-42 0 -77 7.5t-64 21.5t-54 33.5t-47 42.5v-426h-317zM425 289q36 -40 78 -56t88 -16q44 0 81 17.5t64 56 t42.5 100t15.5 149.5q0 84 -12.5 141t-34.5 92.5t-52.5 51t-68.5 15.5q-35 0 -63 -7t-52.5 -19t-45 -31t-40.5 -44v-450z" />
<glyph unicode="&#xff;" horiz-adv-x="1101" d="M-8 1062h280q37 0 57 -16.5t29 -38.5l174 -458q25 -63 40 -127q10 33 22 65l24 64l158 456q9 24 33 39.5t51 15.5h256l-567 -1337q-14 -32 -34.5 -47t-65.5 -15h-238l205 430zM0 0zM193 1326q0 34 13 63.5t35 51.5t51.5 35t61.5 13q35 0 65.5 -13t53.5 -35t36 -51.5 t13 -63.5q0 -33 -13 -61.5t-36 -49.5t-53.5 -33.5t-65.5 -12.5q-33 0 -62 12.5t-51 33.5t-35 49.5t-13 61.5zM629 1326q0 34 12.5 63.5t35.5 51.5t52.5 35t63.5 13q35 0 65 -13t52.5 -35t35.5 -51.5t13 -63.5q0 -33 -13 -61.5t-35.5 -49.5t-52.5 -33.5t-65 -12.5 q-34 0 -63.5 12.5t-52.5 33.5t-35.5 49.5t-12.5 61.5z" />
<glyph unicode="&#x100;" horiz-adv-x="1456" d="M-27 0l578 1492h354l578 -1492h-269q-45 0 -72.5 21t-41.5 54l-88 260h-568l-88 -260q-11 -29 -40 -52t-72 -23h-271zM0 0zM399 1593v174h655v-174h-655zM524 570h408l-137 409q-15 39 -33 91.5t-35 114.5q-16 -62 -33 -115.5t-32 -92.5z" />
<glyph unicode="&#x101;" horiz-adv-x="1059" d="M35 0zM35 276q0 56 28.5 116t99 108.5t190.5 81t302 36.5v46q0 93 -38 134.5t-109 41.5q-56 0 -92 -12.5t-64 -28t-55 -27.5t-64 -12q-33 0 -55 16.5t-37 38.5l-57 99q96 85 213.5 126.5t251.5 41.5q96 0 173.5 -31t131 -87t82.5 -132.5t29 -167.5v-664h-146 q-45 0 -68 12.5t-38 50.5l-23 59q-40 -34 -76.5 -59.5t-76 -43.5t-84 -26.5t-99.5 -8.5q-73 0 -132 19t-100.5 55.5t-64 91.5t-22.5 126zM206 1230v194h635v-194h-635zM338 292q0 -54 30 -76t87 -22q61 0 107 21.5t93 69.5v147q-95 -4 -156.5 -16.5t-97 -30.5t-49.5 -42 t-14 -51z" />
<glyph unicode="&#x102;" horiz-adv-x="1456" d="M-27 0l578 1492h354l578 -1492h-269q-45 0 -72.5 21t-41.5 54l-88 260h-568l-88 -260q-11 -29 -40 -52t-72 -23h-271zM0 0zM360 1872h242q0 -50 27 -78t98 -28t98 28t27 78h241q0 -67 -27 -120t-75.5 -90.5t-115.5 -57.5t-148 -20t-148 17t-116 52.5t-76 89.5t-27 129z M524 570h408l-137 409q-15 39 -33 91.5t-35 114.5q-16 -62 -33 -115.5t-32 -92.5z" />
<glyph unicode="&#x103;" horiz-adv-x="1059" d="M35 0zM35 276q0 56 28.5 116t99 108.5t190.5 81t302 36.5v46q0 93 -38 134.5t-109 41.5q-56 0 -92 -12.5t-64 -28t-55 -27.5t-64 -12q-33 0 -55 16.5t-37 38.5l-57 99q96 85 213.5 126.5t251.5 41.5q96 0 173.5 -31t131 -87t82.5 -132.5t29 -167.5v-664h-146 q-45 0 -68 12.5t-38 50.5l-23 59q-40 -34 -76.5 -59.5t-76 -43.5t-84 -26.5t-99.5 -8.5q-73 0 -132 19t-100.5 55.5t-64 91.5t-22.5 126zM188 1492h221q0 -28 4.5 -49.5t17.5 -35t35 -21t58 -7.5q35 0 57 7.5t35 21t17.5 35t4.5 49.5h221q0 -62 -16 -117.5t-55 -97 t-103.5 -66t-160.5 -24.5t-161 24.5t-104 66t-55 97t-16 117.5zM338 292q0 -54 30 -76t87 -22q61 0 107 21.5t93 69.5v147q-95 -4 -156.5 -16.5t-97 -30.5t-49.5 -42t-14 -51z" />
<glyph unicode="&#x104;" horiz-adv-x="1453" d="M-29 0l578 1492h354l578 -1492h-70q-40 -22 -68 -54t-28 -71q0 -25 13.5 -39.5t41.5 -14.5q15 0 24.5 1t15.5 2.5t10.5 3t9.5 1.5q22 0 28 -19l47 -114q-36 -22 -89 -36.5t-113 -14.5q-110 0 -167 43t-57 109q0 52 34.5 104.5t111.5 98.5h-13q-45 0 -72.5 21t-41.5 54 l-88 260h-568l-88 -260q-11 -29 -40 -52t-72 -23h-271zM522 570h408l-137 409q-15 39 -33 91.5t-35 114.5q-16 -62 -33 -115.5t-33 -92.5z" />
<glyph unicode="&#x105;" horiz-adv-x="1059" d="M35 276q0 56 28.5 116t99 108.5t190.5 81t302 36.5v46q0 93 -38 134.5t-109 41.5q-56 0 -92 -12.5t-64 -28t-55 -27.5t-64 -12q-33 0 -55 16.5t-37 38.5l-57 99q96 85 213.5 126.5t251.5 41.5q96 0 173.5 -31t131 -87t82.5 -132.5t29 -167.5v-664q-40 -22 -68.5 -54 t-28.5 -71q0 -25 14 -39.5t42 -14.5q15 0 24 1t15.5 2.5t10.5 3t9 1.5q22 0 29 -19l47 -114q-36 -22 -89.5 -36.5t-113.5 -14.5q-110 0 -166.5 43t-56.5 109q0 53 36 106t113 99q-27 4 -42.5 18t-26.5 43l-23 59q-40 -34 -76.5 -59.5t-76 -43.5t-84 -26.5t-99.5 -8.5 q-73 0 -132 19t-100.5 55.5t-64 91.5t-22.5 126zM338 292q0 -54 30 -76t87 -22q61 0 107 21.5t93 69.5v147q-95 -4 -156.5 -16.5t-97 -30.5t-49.5 -42t-14 -51z" />
<glyph unicode="&#x106;" horiz-adv-x="1341" d="M60 0zM60 746q0 167 54.5 307t153 241.5t235.5 157.5t302 56q84 0 158 -14.5t138.5 -41t119 -63t96.5 -79.5l-117 -157q-11 -14 -26.5 -26t-42.5 -12q-18 0 -35 8.5t-35.5 20t-40.5 25.5t-52 25.5t-70.5 20t-94.5 8.5q-86 0 -157.5 -32t-123 -93t-79.5 -149.5t-28 -202.5 q0 -115 31 -203.5t85 -149.5t125.5 -93t153.5 -32q47 0 86 5t73 15.5t63.5 28.5t60.5 45q12 10 26.5 17t29.5 7q12 0 24.5 -4.5t23.5 -15.5l137 -145q-90 -118 -225.5 -177.5t-321.5 -59.5q-170 0 -304.5 57.5t-228 159.5t-144 242t-50.5 303zM631 1588l194 277q12 16 24 26 t25.5 14.5t31.5 5.5t42 1h350l-331 -292q-12 -11 -23 -17.5t-23.5 -9.5t-26.5 -4t-31 -1h-232z" />
<glyph unicode="&#x107;" horiz-adv-x="996" d="M52 0zM52 534q0 115 34.5 214.5t101.5 172.5t166 115t229 42q125 0 219 -40t170 -116l-84 -112q-14 -17 -27.5 -27.5t-38.5 -10.5q-24 0 -42.5 11.5t-42 25t-55.5 25t-79 11.5q-58 0 -100.5 -21.5t-70.5 -61.5t-41 -98t-13 -130q0 -153 59 -235t162 -82q55 0 87.5 14 t55 31t41.5 31t47 14q38 0 58 -27l92 -114q-49 -56 -103.5 -91.5t-111 -55.5t-114 -27.5t-111.5 -7.5q-97 0 -186 36.5t-156 107t-106.5 172.5t-39.5 234zM421 1196l139 251q17 30 41 45.5t72 15.5h307l-266 -269q-24 -24 -45.5 -33.5t-57.5 -9.5h-190z" />
<glyph unicode="&#x108;" horiz-adv-x="1341" d="M60 0zM60 746q0 167 54.5 307t153 241.5t235.5 157.5t302 56q84 0 158 -14.5t138.5 -41t119 -63t96.5 -79.5l-117 -157q-11 -14 -26.5 -26t-42.5 -12q-18 0 -35 8.5t-35.5 20t-40.5 25.5t-52 25.5t-70.5 20t-94.5 8.5q-86 0 -157.5 -32t-123 -93t-79.5 -149.5t-28 -202.5 q0 -115 31 -203.5t85 -149.5t125.5 -93t153.5 -32q47 0 86 5t73 15.5t63.5 28.5t60.5 45q12 10 26.5 17t29.5 7q12 0 24.5 -4.5t23.5 -15.5l137 -145q-90 -118 -225.5 -177.5t-321.5 -59.5q-170 0 -304.5 57.5t-228 159.5t-144 242t-50.5 303zM439 1588l250 285h289 l250 -285h-229q-18 0 -45 7t-56 40l-51 80q-5 7 -9.5 13.5t-8.5 12.5l-19 -26l-51 -80q-29 -34 -55.5 -40.5t-44.5 -6.5h-220z" />
<glyph unicode="&#x109;" horiz-adv-x="996" d="M52 0zM52 534q0 115 34.5 214.5t101.5 172.5t166 115t229 42q125 0 219 -40t170 -116l-84 -112q-14 -17 -27.5 -27.5t-38.5 -10.5q-24 0 -42.5 11.5t-42 25t-55.5 25t-79 11.5q-58 0 -100.5 -21.5t-70.5 -61.5t-41 -98t-13 -130q0 -153 59 -235t162 -82q55 0 87.5 14 t55 31t41.5 31t47 14q38 0 58 -27l92 -114q-49 -56 -103.5 -91.5t-111 -55.5t-114 -27.5t-111.5 -7.5q-97 0 -186 36.5t-156 107t-106.5 172.5t-39.5 234zM185 1196l240 296h299l240 -296h-211q-18 0 -35.5 5.5t-35.5 23.5l-77 85l-12.5 12.5t-12.5 14.5q-6 -8 -13 -15 t-13 -12l-79 -85q-15 -14 -33.5 -21.5t-36.5 -7.5h-220z" />
<glyph unicode="&#x10a;" horiz-adv-x="1341" d="M60 0zM60 746q0 167 54.5 307t153 241.5t235.5 157.5t302 56q84 0 158 -14.5t138.5 -41t119 -63t96.5 -79.5l-117 -157q-11 -14 -26.5 -26t-42.5 -12q-18 0 -35 8.5t-35.5 20t-40.5 25.5t-52 25.5t-70.5 20t-94.5 8.5q-86 0 -157.5 -32t-123 -93t-79.5 -149.5t-28 -202.5 q0 -115 31 -203.5t85 -149.5t125.5 -93t153.5 -32q47 0 86 5t73 15.5t63.5 28.5t60.5 45q12 10 26.5 17t29.5 7q12 0 24.5 -4.5t23.5 -15.5l137 -145q-90 -118 -225.5 -177.5t-321.5 -59.5q-170 0 -304.5 57.5t-228 159.5t-144 242t-50.5 303zM646 1741q0 37 14.5 69 t39 56.5t57 39t68.5 14.5q38 0 72 -14.5t59 -39t40 -56.5t15 -69q0 -35 -15 -66.5t-40 -55.5t-59.5 -38t-71.5 -14q-36 0 -68.5 14t-57 38t-39 55.5t-14.5 66.5z" />
<glyph unicode="&#x10b;" horiz-adv-x="996" d="M52 0zM52 534q0 115 34.5 214.5t101.5 172.5t166 115t229 42q125 0 219 -40t170 -116l-84 -112q-14 -17 -27.5 -27.5t-38.5 -10.5q-24 0 -42.5 11.5t-42 25t-55.5 25t-79 11.5q-58 0 -100.5 -21.5t-70.5 -61.5t-41 -98t-13 -130q0 -153 59 -235t162 -82q55 0 87.5 14 t55 31t41.5 31t47 14q38 0 58 -27l92 -114q-49 -56 -103.5 -91.5t-111 -55.5t-114 -27.5t-111.5 -7.5q-97 0 -186 36.5t-156 107t-106.5 172.5t-39.5 234zM384 1354q0 38 15 72t41 59t60 40t73 15q40 0 75 -15t61.5 -40t42 -59t15.5 -72t-15.5 -72t-42 -59t-62 -39.5 t-74.5 -14.5t-73 14.5t-60 39.5t-41 59t-15 72z" />
<glyph unicode="&#x10c;" horiz-adv-x="1341" d="M60 0zM60 746q0 167 54.5 307t153 241.5t235.5 157.5t302 56q84 0 158 -14.5t138.5 -41t119 -63t96.5 -79.5l-117 -157q-11 -14 -26.5 -26t-42.5 -12q-18 0 -35 8.5t-35.5 20t-40.5 25.5t-52 25.5t-70.5 20t-94.5 8.5q-86 0 -157.5 -32t-123 -93t-79.5 -149.5t-28 -202.5 q0 -115 31 -203.5t85 -149.5t125.5 -93t153.5 -32q47 0 86 5t73 15.5t63.5 28.5t60.5 45q12 10 26.5 17t29.5 7q12 0 24.5 -4.5t23.5 -15.5l137 -145q-90 -118 -225.5 -177.5t-321.5 -59.5q-170 0 -304.5 57.5t-228 159.5t-144 242t-50.5 303zM429 1873h230q9 0 20.5 -0.5 t24 -4t24.5 -11t22 -20.5l60 -91l19 -27q4 6 8.5 13t9.5 14l59 90q10 13 22.5 21t25 11.5t24 4t21.5 0.5h229l-250 -285h-299z" />
<glyph unicode="&#x10d;" horiz-adv-x="996" d="M52 0zM52 534q0 115 34.5 214.5t101.5 172.5t166 115t229 42q125 0 219 -40t170 -116l-84 -112q-14 -17 -27.5 -27.5t-38.5 -10.5q-24 0 -42.5 11.5t-42 25t-55.5 25t-79 11.5q-58 0 -100.5 -21.5t-70.5 -61.5t-41 -98t-13 -130q0 -153 59 -235t162 -82q55 0 87.5 14 t55 31t41.5 31t47 14q38 0 58 -27l92 -114q-49 -56 -103.5 -91.5t-111 -55.5t-114 -27.5t-111.5 -7.5q-97 0 -186 36.5t-156 107t-106.5 172.5t-39.5 234zM185 1492h220q18 0 35 -5.5t26 -13.5l86 -94l27 -30q11 15 26 30l86 94q9 6 26 12.5t36 6.5h211l-240 -296h-299z" />
<glyph unicode="&#x10e;" horiz-adv-x="1558" d="M144 0v1492h580q174 0 317 -56.5t244 -155.5t157 -236t56 -298q0 -162 -56 -298.5t-157 -236t-244 -155.5t-317 -56h-580zM144 0zM292 1873h230q9 0 20.5 -0.5t24 -4t24.5 -11t22 -20.5l60 -91l19 -27q4 6 8.5 13t9.5 14l59 90q10 13 22.5 21t25 11.5t24 4t21.5 0.5h229 l-250 -285h-299zM493 266h231q99 0 177 33.5t131.5 95.5t82.5 150.5t29 200.5q0 111 -29 200t-82.5 151t-131.5 95.5t-177 33.5h-231v-960z" />
<glyph unicode="&#x10f;" horiz-adv-x="1175" d="M55 0zM55 527q0 119 33 221t93 176t144 116t185 42q82 0 139 -24t103 -63v538h317v-1533h-197q-59 0 -77 53l-25 81q-32 -34 -66.5 -61.5t-75 -47.5t-87 -30.5t-101.5 -10.5q-83 0 -153.5 36.5t-121.5 106.5t-80.5 170.5t-29.5 229.5zM383 527q0 -84 12.5 -141 t34.5 -92.5t52.5 -51t68.5 -15.5q35 0 63 7t51.5 19t44.5 30.5t42 43.5v450q-37 40 -78.5 56t-87.5 16q-44 0 -81 -17.5t-64 -56t-42.5 -100t-15.5 -148.5zM1124 1164l68 371h215q16 0 26 -4t15 -11t6.5 -14t1.5 -13q0 -8 -3.5 -23.5t-15.5 -45t-34 -79.5t-58 -127 q-17 -34 -42.5 -44t-65.5 -10h-113z" />
<glyph unicode="&#x110;" horiz-adv-x="1580" d="M-4 654v189h170v649h579q174 0 317 -56.5t244.5 -155.5t157.5 -236t56 -298q0 -162 -56 -298.5t-157.5 -236t-244 -155.5t-317.5 -56h-579v654h-170zM514 266h231q99 0 177 33.5t132 95.5t82.5 150.5t28.5 200.5q0 111 -28.5 200t-82.5 151t-131.5 95.5t-177.5 33.5h-231 v-383h250v-189h-250v-388z" />
<glyph unicode="&#x111;" horiz-adv-x="1177" d="M57 508q0 119 33 217.5t93 169.5t144 109.5t185 38.5q82 0 139 -24t103 -63v193h-224v188h224v196h317v-196h143v-188h-143v-1149h-197q-59 0 -77 53l-25 81q-32 -34 -66.5 -61.5t-75 -47.5t-87 -30.5t-101.5 -10.5q-83 0 -153.5 33.5t-121.5 99.5t-80.5 164t-29.5 227z M385 508q0 -84 12.5 -138.5t34.5 -86t52.5 -44t68.5 -12.5q35 0 63 7t51.5 19t44.5 30.5t42 43.5v411q-37 39 -78.5 55.5t-87.5 16.5q-44 0 -81 -14.5t-64 -49t-42.5 -93t-15.5 -145.5z" />
<glyph unicode="&#x112;" horiz-adv-x="1173" d="M144 0v1492h961v-266h-612v-348h469v-256h-469v-356h612v-266h-961zM144 0zM314 1593v174h655v-174h-655z" />
<glyph unicode="&#x113;" horiz-adv-x="1103" d="M51 0zM51 554q0 106 36.5 201.5t104.5 167t164.5 113.5t218.5 42q105 0 193 -32.5t151 -95t98.5 -153t35.5 -205.5q0 -36 -3 -58.5t-11.5 -36t-22.5 -18.5t-35 -5h-612q15 -133 80.5 -193t168.5 -60q55 0 95.5 13.5t71.5 30t57 29.5t55 13q38 0 57 -27l93 -114 q-49 -56 -106 -91.5t-117 -55.5t-120 -27.5t-114 -7.5q-112 0 -209.5 36t-171 108t-116 178.5t-42.5 247.5zM266 1230v194h635v-194h-635zM372 658h396q0 38 -9.5 74t-31.5 64t-58 45.5t-87 17.5q-91 0 -142.5 -51.5t-67.5 -149.5z" />
<glyph unicode="&#x114;" horiz-adv-x="1173" d="M144 0v1492h961v-266h-612v-348h469v-256h-469v-356h612v-266h-961zM144 0zM275 1872h242q0 -50 27 -78t98 -28t98 28t27 78h241q0 -67 -27 -120t-75.5 -90.5t-115.5 -57.5t-148 -20t-148 17t-116 52.5t-76 89.5t-27 129z" />
<glyph unicode="&#x115;" horiz-adv-x="1103" d="M51 0zM51 554q0 106 36.5 201.5t104.5 167t164.5 113.5t218.5 42q105 0 193 -32.5t151 -95t98.5 -153t35.5 -205.5q0 -36 -3 -58.5t-11.5 -36t-22.5 -18.5t-35 -5h-612q15 -133 80.5 -193t168.5 -60q55 0 95.5 13.5t71.5 30t57 29.5t55 13q38 0 57 -27l93 -114 q-49 -56 -106 -91.5t-117 -55.5t-120 -27.5t-114 -7.5q-112 0 -209.5 36t-171 108t-116 178.5t-42.5 247.5zM248 1492h221q0 -28 4.5 -49.5t17.5 -35t35 -21t58 -7.5q35 0 57 7.5t35 21t17.5 35t4.5 49.5h221q0 -62 -16 -117.5t-55 -97t-103.5 -66t-160.5 -24.5t-161 24.5 t-104 66t-55 97t-16 117.5zM372 658h396q0 38 -9.5 74t-31.5 64t-58 45.5t-87 17.5q-91 0 -142.5 -51.5t-67.5 -149.5z" />
<glyph unicode="&#x116;" horiz-adv-x="1173" d="M144 0v1492h961v-266h-612v-348h469v-256h-469v-356h612v-266h-961zM144 0zM459 1741q0 37 14.5 69t39 56.5t57 39t68.5 14.5q38 0 72 -14.5t59 -39t40 -56.5t15 -69q0 -35 -15 -66.5t-40 -55.5t-59.5 -38t-71.5 -14q-36 0 -68.5 14t-57 38t-39 55.5t-14.5 66.5z" />
<glyph unicode="&#x117;" horiz-adv-x="1103" d="M51 0zM51 554q0 106 36.5 201.5t104.5 167t164.5 113.5t218.5 42q105 0 193 -32.5t151 -95t98.5 -153t35.5 -205.5q0 -36 -3 -58.5t-11.5 -36t-22.5 -18.5t-35 -5h-612q15 -133 80.5 -193t168.5 -60q55 0 95.5 13.5t71.5 30t57 29.5t55 13q38 0 57 -27l93 -114 q-49 -56 -106 -91.5t-117 -55.5t-120 -27.5t-114 -7.5q-112 0 -209.5 36t-171 108t-116 178.5t-42.5 247.5zM372 658h396q0 38 -9.5 74t-31.5 64t-58 45.5t-87 17.5q-91 0 -142.5 -51.5t-67.5 -149.5zM393 1354q0 38 15 72t41 59t60 40t73 15q40 0 75 -15t61.5 -40t42 -59 t15.5 -72t-15.5 -72t-42 -59t-62 -39.5t-74.5 -14.5t-73 14.5t-60 39.5t-41 59t-15 72z" />
<glyph unicode="&#x118;" horiz-adv-x="1173" d="M144 0v1492h961v-266h-612v-348h469v-256h-469v-356h612v-266h-94q-40 -22 -68.5 -54t-28.5 -71q0 -25 14 -39.5t42 -14.5q15 0 24.5 1t15.5 2.5t10 3t9 1.5q22 0 29 -19l47 -114q-36 -22 -89 -36.5t-114 -14.5q-110 0 -166.5 43t-56.5 109q0 52 34.5 104.5t110.5 98.5 h-680z" />
<glyph unicode="&#x119;" horiz-adv-x="1103" d="M51 554q0 106 36.5 201.5t104.5 167t165 113.5t218 42q105 0 193 -32.5t151 -95t98.5 -153t35.5 -205.5q0 -36 -3 -58.5t-11.5 -36t-22.5 -18.5t-35 -5h-612q15 -133 80.5 -193t168.5 -60q55 0 95.5 13.5t71.5 30t57 29.5t55 13q38 0 57 -27l93 -114q-35 -40 -74.5 -69 t-81 -49.5t-84.5 -33.5t-85 -20q-36 -22 -60.5 -52t-24.5 -67q0 -25 14 -39.5t41 -14.5q15 0 24.5 1t15.5 2.5t10.5 3t9.5 1.5q22 0 28 -19l47 -114q-36 -22 -89 -36.5t-113 -14.5q-110 0 -167 43t-57 109q0 49 30 98t94 92q-100 9 -186.5 50t-150.5 112t-100.5 172.5 t-36.5 232.5zM372 658h396q0 38 -9.5 74t-31.5 64t-58 45.5t-87 17.5q-91 0 -142.5 -51.5t-67.5 -149.5z" />
<glyph unicode="&#x11a;" horiz-adv-x="1173" d="M144 0v1492h961v-266h-612v-348h469v-256h-469v-356h612v-266h-961zM144 0zM242 1873h230q9 0 20.5 -0.5t24 -4t24.5 -11t22 -20.5l60 -91l19 -27q4 6 8.5 13t9.5 14l59 90q10 13 22.5 21t25 11.5t24 4t21.5 0.5h229l-250 -285h-299z" />
<glyph unicode="&#x11b;" horiz-adv-x="1103" d="M51 0zM51 554q0 106 36.5 201.5t104.5 167t164.5 113.5t218.5 42q105 0 193 -32.5t151 -95t98.5 -153t35.5 -205.5q0 -36 -3 -58.5t-11.5 -36t-22.5 -18.5t-35 -5h-612q15 -133 80.5 -193t168.5 -60q55 0 95.5 13.5t71.5 30t57 29.5t55 13q38 0 57 -27l93 -114 q-49 -56 -106 -91.5t-117 -55.5t-120 -27.5t-114 -7.5q-112 0 -209.5 36t-171 108t-116 178.5t-42.5 247.5zM194 1492h220q18 0 35 -5.5t26 -13.5l86 -94l27 -30q11 15 26 30l86 94q9 6 26 12.5t36 6.5h211l-240 -296h-299zM372 658h396q0 38 -9.5 74t-31.5 64t-58 45.5 t-87 17.5q-91 0 -142.5 -51.5t-67.5 -149.5z" />
<glyph unicode="&#x11c;" horiz-adv-x="1479" d="M58 746q0 167 55.5 307t158.5 241.5t249 157.5t326 56q93 0 175 -15t151 -42t126.5 -63.5t102.5 -79.5l-100 -153q-24 -36 -61.5 -44t-80.5 18q-41 25 -77 43t-74 29t-80 16.5t-94 5.5q-97 0 -175 -34.5t-133 -97t-84.5 -150t-29.5 -195.5q0 -119 32.5 -211t92.5 -155.5 t143.5 -96.5t184.5 -33q62 0 113 12t99 33v226h-147q-33 0 -51.5 17.5t-18.5 44.5v190h531v-630q-115 -84 -244.5 -121.5t-270.5 -37.5q-184 0 -335.5 57.5t-259 159.5t-166 242t-58.5 303zM452 1588l249 285h289l250 -285h-229q-18 0 -45 7t-56 40l-51 80q-5 7 -9.5 13.5 t-8.5 12.5l-19 -26l-51 -80q-29 -34 -55.5 -40.5t-44.5 -6.5h-219z" />
<glyph unicode="&#x11d;" horiz-adv-x="1096" d="M39 0zM39 -87q0 71 41 118t115 75q-39 24 -61.5 61t-22.5 95q0 24 8 50t25.5 50.5t44 47t63.5 40.5q-83 44 -130.5 116.5t-47.5 168.5q0 80 33.5 144t92.5 108.5t139 68.5t173 24q68 0 127.5 -13t111.5 -38h320v-116q0 -27 -15 -42t-50 -23l-78 -18q14 -46 14 -95 q0 -80 -33 -143.5t-91 -108t-137 -68.5t-169 -24q-50 0 -94 6q-35 -20 -35 -47t28.5 -38.5t76 -16t107 -6t122 -7.5t122.5 -19t107 -43t76 -79.5t29 -126.5q0 -72 -35 -140.5t-102.5 -121.5t-166 -85.5t-225.5 -32.5q-125 0 -215.5 24t-150.5 62t-88.5 88.5t-28.5 104.5z M147 1196l240 296h299l240 -296h-211q-18 0 -35.5 5.5t-35.5 23.5l-77 85l-12.5 12.5t-12.5 14.5q-6 -8 -13 -15t-13 -12l-79 -85q-15 -14 -33.5 -21.5t-36.5 -7.5h-220zM313 -46q0 -23 10 -41t34.5 -31.5t66 -21t104.5 -7.5q69 0 113 8t70 22.5t36.5 34t10.5 43.5 q0 38 -34 55t-88 23.5t-122 8t-134 8.5q-30 -20 -48.5 -45t-18.5 -57zM362 728q0 -31 9 -56.5t27.5 -44.5t46.5 -29.5t67 -10.5q79 0 114.5 39.5t35.5 101.5q0 65 -35.5 101.5t-114.5 36.5t-114.5 -36.5t-35.5 -101.5z" />
<glyph unicode="&#x11e;" horiz-adv-x="1479" d="M58 746q0 167 55.5 307t158.5 241.5t249 157.5t326 56q93 0 175 -15t151 -42t126.5 -63.5t102.5 -79.5l-100 -153q-24 -36 -61.5 -44t-80.5 18q-41 25 -77 43t-74 29t-80 16.5t-94 5.5q-97 0 -175 -34.5t-133 -97t-84.5 -150t-29.5 -195.5q0 -119 32.5 -211t92.5 -155.5 t143.5 -96.5t184.5 -33q62 0 113 12t99 33v226h-147q-33 0 -51.5 17.5t-18.5 44.5v190h531v-630q-115 -84 -244.5 -121.5t-270.5 -37.5q-184 0 -335.5 57.5t-259 159.5t-166 242t-58.5 303zM474 1872h242q0 -50 27 -78t98 -28t98 28t27 78h241q0 -67 -27 -120t-75.5 -90.5 t-115.5 -57.5t-148 -20t-148 17t-116 52.5t-76 89.5t-27 129z" />
<glyph unicode="&#x11f;" horiz-adv-x="1096" d="M39 0zM39 -87q0 71 41 118t115 75q-39 24 -61.5 61t-22.5 95q0 24 8 50t25.5 50.5t44 47t63.5 40.5q-83 44 -130.5 116.5t-47.5 168.5q0 80 33.5 144t92.5 108.5t139 68.5t173 24q68 0 127.5 -13t111.5 -38h320v-116q0 -27 -15 -42t-50 -23l-78 -18q14 -46 14 -95 q0 -80 -33 -143.5t-91 -108t-137 -68.5t-169 -24q-50 0 -94 6q-35 -20 -35 -47t28.5 -38.5t76 -16t107 -6t122 -7.5t122.5 -19t107 -43t76 -79.5t29 -126.5q0 -72 -35 -140.5t-102.5 -121.5t-166 -85.5t-225.5 -32.5q-125 0 -215.5 24t-150.5 62t-88.5 88.5t-28.5 104.5z M201 1492h221q0 -28 4.5 -49.5t17.5 -35t35 -21t58 -7.5q35 0 57 7.5t35 21t17.5 35t4.5 49.5h221q0 -62 -16 -117.5t-55 -97t-103.5 -66t-160.5 -24.5t-161 24.5t-104 66t-55 97t-16 117.5zM313 -46q0 -23 10 -41t34.5 -31.5t66 -21t104.5 -7.5q69 0 113 8t70 22.5t36.5 34 t10.5 43.5q0 38 -34 55t-88 23.5t-122 8t-134 8.5q-30 -20 -48.5 -45t-18.5 -57zM362 728q0 -31 9 -56.5t27.5 -44.5t46.5 -29.5t67 -10.5q79 0 114.5 39.5t35.5 101.5q0 65 -35.5 101.5t-114.5 36.5t-114.5 -36.5t-35.5 -101.5z" />
<glyph unicode="&#x120;" horiz-adv-x="1479" d="M58 746q0 167 55.5 307t158.5 241.5t249 157.5t326 56q93 0 175 -15t151 -42t126.5 -63.5t102.5 -79.5l-100 -153q-24 -36 -61.5 -44t-80.5 18q-41 25 -77 43t-74 29t-80 16.5t-94 5.5q-97 0 -175 -34.5t-133 -97t-84.5 -150t-29.5 -195.5q0 -119 32.5 -211t92.5 -155.5 t143.5 -96.5t184.5 -33q62 0 113 12t99 33v226h-147q-33 0 -51.5 17.5t-18.5 44.5v190h531v-630q-115 -84 -244.5 -121.5t-270.5 -37.5q-184 0 -335.5 57.5t-259 159.5t-166 242t-58.5 303zM658 1741q0 37 14.5 69t39 56.5t57 39t68.5 14.5q38 0 72 -14.5t59 -39t40 -56.5 t15 -69q0 -35 -15 -67t-40 -55.5t-59.5 -37.5t-71.5 -14q-36 0 -68.5 14t-57 37.5t-39 55.5t-14.5 67z" />
<glyph unicode="&#x121;" horiz-adv-x="1096" d="M39 0zM39 -87q0 71 41 118t115 75q-39 24 -61.5 61t-22.5 95q0 24 8 50t25.5 50.5t44 47t63.5 40.5q-83 44 -130.5 116.5t-47.5 168.5q0 80 33.5 144t92.5 108.5t139 68.5t173 24q68 0 127.5 -13t111.5 -38h320v-116q0 -27 -15 -42t-50 -23l-78 -18q14 -46 14 -95 q0 -80 -33 -143.5t-91 -108t-137 -68.5t-169 -24q-50 0 -94 6q-35 -20 -35 -47t28.5 -38.5t76 -16t107 -6t122 -7.5t122.5 -19t107 -43t76 -79.5t29 -126.5q0 -72 -35 -140.5t-102.5 -121.5t-166 -85.5t-225.5 -32.5q-125 0 -215.5 24t-150.5 62t-88.5 88.5t-28.5 104.5z M313 -46q0 -23 10 -41t34.5 -31.5t66 -21t104.5 -7.5q69 0 113 8t70 22.5t36.5 34t10.5 43.5q0 38 -34 55t-88 23.5t-122 8t-134 8.5q-30 -20 -48.5 -45t-18.5 -57zM346 1354q0 38 15 72t41 59t60 40t73 15q40 0 75 -15t61.5 -40t42 -59t15.5 -72t-15.5 -72t-42 -59 t-62 -39.5t-74.5 -14.5t-73 14.5t-60 39.5t-41 59t-15 72zM362 728q0 -31 9 -56.5t27.5 -44.5t46.5 -29.5t67 -10.5q79 0 114.5 39.5t35.5 101.5q0 65 -35.5 101.5t-114.5 36.5t-114.5 -36.5t-35.5 -101.5z" />
<glyph unicode="&#x122;" horiz-adv-x="1479" d="M58 746q0 167 55.5 307t158.5 241.5t249 157.5t326 56q93 0 175 -15t151 -42t126.5 -63.5t102.5 -79.5l-100 -153q-24 -36 -61.5 -44t-80.5 18q-41 25 -77 43t-74 29t-80 16.5t-94 5.5q-97 0 -175 -34.5t-133 -97t-84.5 -150t-29.5 -195.5q0 -119 32.5 -211t92.5 -155.5 t143.5 -96.5t184.5 -33q62 0 113 12t99 33v226h-147q-33 0 -51.5 17.5t-18.5 44.5v190h531v-630q-115 -84 -244.5 -121.5t-270.5 -37.5q-184 0 -335.5 57.5t-259 159.5t-166 242t-58.5 303zM598 -397l53 310h195q16 0 26.5 -4t15 -11t6 -14t1.5 -13q0 -9 -2 -24.5t-9.5 -41 t-23 -62t-41.5 -87.5q-17 -34 -42.5 -43.5t-65.5 -9.5h-113z" />
<glyph unicode="&#x123;" horiz-adv-x="1096" d="M39 0zM39 -87q0 71 41 118t115 75q-39 24 -61.5 61t-22.5 95q0 24 8 50t25.5 50.5t44 47t63.5 40.5q-83 44 -130.5 116.5t-47.5 168.5q0 80 33.5 144t92.5 108.5t139 68.5t173 24q68 0 127.5 -13t111.5 -38h320v-116q0 -27 -15 -42t-50 -23l-78 -18q14 -46 14 -95 q0 -80 -33 -143.5t-91 -108t-137 -68.5t-169 -24q-50 0 -94 6q-35 -20 -35 -47t28.5 -38.5t76 -16t107 -6t122 -7.5t122.5 -19t107 -43t76 -79.5t29 -126.5q0 -72 -35 -140.5t-102.5 -121.5t-166 -85.5t-225.5 -32.5q-125 0 -215.5 24t-150.5 62t-88.5 88.5t-28.5 104.5z M313 -46q0 -23 10 -41t34.5 -31.5t66 -21t104.5 -7.5q69 0 113 8t70 22.5t36.5 34t10.5 43.5q0 38 -34 55t-88 23.5t-122 8t-134 8.5q-30 -20 -48.5 -45t-18.5 -57zM362 728q0 -31 9 -56.5t27.5 -44.5t46.5 -29.5t67 -10.5q79 0 114.5 39.5t35.5 101.5q0 65 -35.5 101.5 t-114.5 36.5t-114.5 -36.5t-35.5 -101.5zM401 1202l125 291h199l-53 -291h-271z" />
<glyph unicode="&#x124;" horiz-adv-x="1591" d="M144 0v1492h349v-624h606v624h348v-1492h-348v631h-606v-631h-349zM144 0zM406 1588l250 285h289l250 -285h-229q-18 0 -45 7t-56 40l-51 80q-5 7 -9.5 13.5t-8.5 12.5l-19 -26l-51 -80q-29 -34 -55.5 -40.5t-44.5 -6.5h-220z" />
<glyph unicode="&#x125;" horiz-adv-x="1167" d="M-131 1588l250 285h289l250 -285h-229q-18 0 -45 7t-56 40l-51 80q-5 7 -9.5 13.5t-8.5 12.5l-19 -26l-51 -80q-29 -34 -55.5 -40.5t-44.5 -6.5h-220zM0 0zM108 0v1533h317v-564q57 49 124 79t161 30q87 0 154 -30t113 -84t69.5 -128t23.5 -161v-675h-317v675 q0 78 -36 121.5t-106 43.5q-52 0 -98 -22.5t-88 -60.5v-757h-317z" />
<glyph unicode="&#x126;" horiz-adv-x="1615" d="M13 1059v194h144v239h348v-239h606v239h348v-239h144v-194h-144v-1059h-348v631h-606v-631h-348v1059h-144zM505 868h606v191h-606v-191z" />
<glyph unicode="&#x127;" horiz-adv-x="1167" d="M-31 1151v188h137v194h318v-194h276v-188h-276v-221q57 49 124 79t161 30q87 0 154 -30t113 -84t69.5 -128t23.5 -162v-635h-317v635q0 79 -36 122t-106 43q-52 0 -98 -22t-88 -60v-718h-318v1151h-137z" />
<glyph unicode="&#x128;" horiz-adv-x="636" d="M-64 1578q0 56 15 108.5t45.5 93.5t74 65.5t100.5 24.5t98 -15.5t72 -34.5t56.5 -34.5t52.5 -15.5q23 0 38 9t24.5 23t14 29.5t4.5 30.5h193q0 -56 -15.5 -108.5t-45 -93t-73.5 -64.5t-102 -24q-57 0 -97.5 15.5t-71.5 34t-56.5 34t-52.5 15.5q-23 0 -38 -9t-24.5 -23 t-13.5 -30.5t-4 -30.5h-194zM0 0zM144 0v1492h349v-1492h-349z" />
<glyph unicode="&#x129;" horiz-adv-x="546" d="M-70 1214q0 65 18.5 116.5t50.5 88.5t75 57t92 20q38 0 71 -11.5t61 -26t51 -26.5t40 -12q25 0 40 13t15 55h193q0 -65 -18 -116.5t-49.5 -88t-74.5 -56t-94 -19.5q-38 0 -70.5 12t-60.5 26.5t-51 26t-41 11.5q-25 0 -39 -14t-14 -56h-195zM0 0zM115 0v1062h317v-1062 h-317z" />
<glyph unicode="&#x12a;" horiz-adv-x="636" d="M-5 1593v174h655v-174h-655zM0 0zM144 0v1492h349v-1492h-349z" />
<glyph unicode="&#x12b;" horiz-adv-x="546" d="M-35 1230v194h635v-194h-635zM0 0zM115 0v1062h317v-1062h-317z" />
<glyph unicode="&#x12e;" horiz-adv-x="636" d="M108 -203q0 52 34 104.5t111 98.5h-109v1492h349v-1492h-54q-40 -22 -68 -54t-28 -71q0 -25 14 -39.5t41 -14.5q15 0 24.5 1t15.5 2.5t10.5 3t9.5 1.5q22 0 28 -19l48 -114q-36 -22 -89.5 -36.5t-113.5 -14.5q-110 0 -166.5 43t-56.5 109z" />
<glyph unicode="&#x12f;" horiz-adv-x="546" d="M72 0zM72 -203q0 56 40 112t128 103l164 -12q-40 -22 -68.5 -54t-28.5 -71q0 -25 14 -39.5t42 -14.5q15 0 24 1t15.5 2.5t10.5 3t9 1.5q22 0 29 -19l47 -114q-36 -22 -89.5 -36.5t-113.5 -14.5q-110 0 -166.5 43t-56.5 109zM82 1353q0 39 15 72.5t41 59t59.5 40 t72.5 14.5q40 0 75.5 -14.5t62 -40t42 -59t15.5 -72.5q0 -38 -15.5 -71.5t-42 -58.5t-62 -40t-75.5 -15q-39 0 -72.5 15t-59.5 40t-41 58.5t-15 71.5zM115 0v1062h317v-1062h-317z" />
<glyph unicode="&#x130;" horiz-adv-x="636" d="M140 1741q0 37 14.5 69t39 56.5t57 39t67.5 14.5q38 0 72.5 -14.5t59.5 -39t40 -56.5t15 -69q0 -35 -15 -67t-40 -55.5t-59.5 -37.5t-72.5 -14q-36 0 -68 14t-56.5 37.5t-39 55.5t-14.5 67zM144 0v1492h349v-1492h-349z" />
<glyph unicode="&#x131;" horiz-adv-x="548" d="M116 0v1062h317v-1062h-317z" />
<glyph unicode="&#x132;" horiz-adv-x="1533" d="M144 0v1492h349v-1492h-349zM144 0zM662 10l19 202q3 27 21.5 43t52.5 16q17 0 42.5 -5.5t61.5 -5.5q50 0 87.5 14t62 46t37 84.5t12.5 129.5v958h346v-951q0 -125 -31.5 -227.5t-94.5 -175.5t-158 -113.5t-224 -40.5q-58 0 -115 6t-119 20z" />
<glyph unicode="&#x133;" horiz-adv-x="1110" d="M82 0zM82 1353q0 39 15 72.5t41 59t59.5 40t72.5 14.5q40 0 75.5 -14.5t62 -40t42 -59t15.5 -72.5q0 -38 -15.5 -71.5t-42 -58.5t-62 -40t-75.5 -15q-39 0 -72.5 15t-59.5 40t-41 58.5t-15 71.5zM115 0v1062h317v-1062h-317zM481 -347l10 167q2 22 14.5 32t49.5 10 t60.5 6t37 21.5t19.5 41.5t6 67v1064h317v-1064q0 -75 -19 -141t-62.5 -115.5t-114.5 -78.5t-177 -29q-39 0 -72 5t-69 14zM645 1353q0 39 15 72.5t41 59t59.5 40t72.5 14.5q40 0 75.5 -14.5t62 -40t42 -59t15.5 -72.5q0 -38 -15.5 -71.5t-42 -58.5t-62 -40t-75.5 -15 q-39 0 -72.5 15t-59.5 40t-41 58.5t-15 71.5z" />
<glyph unicode="&#x134;" horiz-adv-x="891" d="M20 0zM20 10l19 202q3 27 21.5 43t52.5 16q17 0 42.5 -5.5t61.5 -5.5q50 0 87.5 14t62 46t37 84.5t12.5 129.5v958h346v-951q0 -125 -31.5 -227.5t-94.5 -175.5t-158 -113.5t-224 -40.5q-58 0 -115 6t-119 20zM198 1588l250 285h289l250 -285h-229q-18 0 -45 7t-56 40 l-51 80q-5 7 -9.5 13.5t-8.5 12.5l-19 -26l-51 -80q-29 -34 -55.5 -40.5t-44.5 -6.5h-220z" />
<glyph unicode="&#x135;" horiz-adv-x="546" d="M-115 1196l240 296h299l240 -296h-211q-18 0 -35.5 5.5t-35.5 23.5l-77 85l-12.5 12.5t-12.5 14.5q-6 -8 -13 -15t-13 -12l-79 -85q-15 -14 -33.5 -21.5t-36.5 -7.5h-220zM-82 -347l10 167q2 22 14.5 32t49.5 10t60.5 6t37 21.5t19.5 41.5t6 67v1064h317v-1064 q0 -75 -19 -141t-62.5 -115.5t-114.5 -78.5t-177 -29q-39 0 -72 5t-69 14zM0 0z" />
<glyph unicode="&#x136;" horiz-adv-x="1446" d="M144 0v1492h346v-604h56q77 0 110 48l336 487q30 39 64.5 54t85.5 15h301l-443 -603q-47 -62 -101 -90q39 -14 70.5 -40t59.5 -67l451 -692h-310q-30 0 -50.5 4t-36 12.5t-26.5 20t-22 26.5l-338 520q-18 29 -46 40.5t-77 11.5h-84v-635h-346zM144 0zM577 -397l54 310 h194q16 0 26.5 -4t15 -11t6 -14t1.5 -13q0 -9 -2 -24.5t-9.5 -41t-23 -62t-41.5 -87.5q-17 -34 -42.5 -43.5t-65.5 -9.5h-113z" />
<glyph unicode="&#x137;" horiz-adv-x="1143" d="M108 0v1533h317v-859h47q30 0 45 8.5t31 29.5l201 299q18 26 41.5 38.5t60.5 12.5h291l-275 -378q-39 -51 -92 -84q24 -17 43.5 -40t36.5 -52l299 -508h-287q-36 0 -61.5 12t-42.5 41l-201 376q-14 26 -29.5 33.5t-46.5 7.5h-61v-470h-317zM108 0zM426 -397l54 310h194 q16 0 26.5 -4t15 -11t6 -14t1.5 -13q0 -9 -2 -24.5t-9.5 -41t-23 -62t-41.5 -87.5q-17 -34 -42.5 -43.5t-65.5 -9.5h-113z" />
<glyph unicode="&#x138;" horiz-adv-x="1143" d="M108 0v1062h317v-388h47q30 0 45 8.5t31 29.5l201 299q18 26 41.5 38.5t60.5 12.5h291l-275 -378q-39 -51 -92 -84q24 -17 43.5 -40t36.5 -52l299 -508h-287q-36 0 -61.5 12t-42.5 41l-201 376q-14 26 -29.5 33.5t-46.5 7.5h-61v-470h-317z" />
<glyph unicode="&#x139;" horiz-adv-x="1075" d="M144 0v1492h346v-1216h553v-276h-899zM144 0zM145 1588l194 277q12 16 24 26t25.5 14.5t31.5 5.5t42 1h350l-331 -292q-12 -11 -23 -17.5t-23.5 -9.5t-26.5 -4t-31 -1h-232z" />
<glyph unicode="&#x13a;" horiz-adv-x="532" d="M73 1588l194 277q12 16 24 26t25.5 14.5t31.5 5.5t42 1h350l-331 -292q-12 -11 -23 -17.5t-23.5 -9.5t-26.5 -4t-31 -1h-232zM74 0zM108 0v1533h317v-1533h-317z" />
<glyph unicode="&#x13b;" horiz-adv-x="1075" d="M144 0v1492h346v-1216h553v-276h-899zM144 0zM427 -397l54 310h194q16 0 26.5 -4t15 -11t6 -14t1.5 -13q0 -9 -2 -24.5t-9.5 -41t-23 -62t-41.5 -87.5q-17 -34 -42.5 -43.5t-65.5 -9.5h-113z" />
<glyph unicode="&#x13c;" horiz-adv-x="532" d="M108 0v1533h317v-1533h-317zM108 0zM128 -397l54 310h194q16 0 26.5 -4t15 -11t6 -14t1.5 -13q0 -9 -2 -24.5t-9.5 -41t-23 -62t-41.5 -87.5q-17 -34 -42.5 -43.5t-65.5 -9.5h-113z" />
<glyph unicode="&#x13d;" horiz-adv-x="1075" d="M144 0v1492h346v-1216h553v-276h-899zM144 0zM611 1164l68 371h215q16 0 26 -4t15 -11t6.5 -14t1.5 -13q0 -8 -3.5 -23.5t-15.5 -45t-34 -79.5t-58 -127q-17 -34 -42.5 -44t-65.5 -10h-113z" />
<glyph unicode="&#x13e;" horiz-adv-x="531" d="M108 0v1533h317v-1533h-317zM108 0zM503 1164l68 371h215q16 0 26 -4t15 -11t6.5 -14t1.5 -13q0 -8 -3.5 -23.5t-15.5 -45t-34 -79.5t-58 -127q-17 -34 -42.5 -44t-65.5 -10h-113z" />
<glyph unicode="&#x13f;" horiz-adv-x="1124" d="M144 0v1492h346v-1216h553v-276h-899zM144 0zM669 827q0 38 15 72t41 59t60 40t73 15q40 0 75 -15t61.5 -40t42 -59t15.5 -72t-15.5 -72t-42 -59t-62 -39.5t-74.5 -14.5t-73 14.5t-60 39.5t-41 59t-15 72z" />
<glyph unicode="&#x140;" horiz-adv-x="836" d="M108 0v1533h317v-1533h-317zM108 0zM514 789q0 37 13.5 68.5t37.5 55t57 37.5t72 14q38 0 70.5 -14t57 -37.5t38.5 -55t14 -68.5t-14 -69.5t-38.5 -56t-57 -36.5t-70.5 -13q-39 0 -72 13t-57 36.5t-37.5 56t-13.5 69.5z" />
<glyph unicode="&#x141;" horiz-adv-x="1111" d="M2 430v234q0 40 37 55l141 73v700h346v-547l342 169v-227q0 -48 -41 -64l-301 -155v-392h553v-276h-899v517z" />
<glyph unicode="&#x142;" horiz-adv-x="714" d="M36 613v184q0 41 37 56l123 50v630h317v-522l173 66v-178q0 -48 -41 -63l-132 -54v-782h-317v676z" />
<glyph unicode="&#x143;" horiz-adv-x="1591" d="M144 0v1492h183q23 0 38 -2t27 -7.5t23.5 -16t25.5 -27.5l709 -896q-4 43 -6 83.5t-2 75.5v790h305v-1492h-180q-40 0 -67.5 13t-53.5 44l-704 889q3 -39 5.5 -76t2.5 -70v-800h-306zM601 1588l194 277q12 16 23.5 26t25.5 14.5t32 5.5t42 1h350l-331 -292 q-12 -11 -23.5 -17.5t-23.5 -9.5t-26 -4t-31 -1h-232z" />
<glyph unicode="&#x144;" horiz-adv-x="1167" d="M108 0v1062h196q59 0 78 -53l18 -62q31 29 64 53.5t70 41.5t80.5 26.5t95.5 9.5q87 0 154 -30t113 -84t69.5 -128t23.5 -161v-675h-317v675q0 78 -36 121.5t-106 43.5q-52 0 -98 -22.5t-88 -60.5v-757h-317zM108 0zM443 1196l139 251q17 30 41 45.5t72 15.5h307 l-266 -269q-24 -24 -45.5 -33.5t-57.5 -9.5h-190z" />
<glyph unicode="&#x145;" horiz-adv-x="1591" d="M144 0v1492h183q23 0 38 -2t27 -7.5t23.5 -16t25.5 -27.5l709 -896q-4 43 -6 83.5t-2 75.5v790h305v-1492h-180q-40 0 -67.5 13t-53.5 44l-704 889q3 -39 5.5 -76t2.5 -70v-800h-306zM647 -397l53 310h195q16 0 26.5 -4t15 -11t6 -14t1.5 -13q0 -9 -2 -24.5t-9.5 -41 t-23 -62t-41.5 -87.5q-17 -34 -42.5 -43.5t-65.5 -9.5h-113z" />
<glyph unicode="&#x146;" horiz-adv-x="1167" d="M108 0v1062h196q59 0 78 -53l18 -62q31 29 64 53.5t70 41.5t80.5 26.5t95.5 9.5q87 0 154 -30t113 -84t69.5 -128t23.5 -161v-675h-317v675q0 78 -36 121.5t-106 43.5q-52 0 -98 -22.5t-88 -60.5v-757h-317zM108 0zM430 -397l54 310h194q16 0 26.5 -4t15 -11t6 -14 t1.5 -13q0 -9 -2 -24.5t-9.5 -41t-23 -62t-41.5 -87.5q-17 -34 -42.5 -43.5t-65.5 -9.5h-113z" />
<glyph unicode="&#x147;" horiz-adv-x="1591" d="M144 0v1492h183q23 0 38 -2t27 -7.5t23.5 -16t25.5 -27.5l709 -896q-4 43 -6 83.5t-2 75.5v790h305v-1492h-180q-40 0 -67.5 13t-53.5 44l-704 889q3 -39 5.5 -76t2.5 -70v-800h-306zM398 1873h230q9 0 20.5 -0.5t24 -4t24.5 -11t22 -20.5l60 -91l19 -27q4 6 8.5 13 t9.5 14l60 90q10 13 22 21t24.5 11.5t24 4t21.5 0.5h229l-250 -285h-299z" />
<glyph unicode="&#x148;" horiz-adv-x="1167" d="M108 0v1062h196q59 0 78 -53l18 -62q31 29 64 53.5t70 41.5t80.5 26.5t95.5 9.5q87 0 154 -30t113 -84t69.5 -128t23.5 -161v-675h-317v675q0 78 -36 121.5t-106 43.5q-52 0 -98 -22.5t-88 -60.5v-757h-317zM108 0zM207 1492h220q18 0 35 -5.5t26 -13.5l86 -94l27 -30 q11 15 26 30l86 94q9 6 26 12.5t36 6.5h211l-240 -296h-299z" />
<glyph unicode="&#x149;" horiz-adv-x="1341" d="M-33.5 999.5q0.5 10.5 5 20.5t11.5 17q11 12 24.5 33.5t25 50.5t18 63t4.5 72.5t-14.5 80t-39.5 84.5q-23 36 -12 61.5t41 36.5l191 71q55 -88 74.5 -181t2.5 -184t-69 -174t-139 -150l-101 59q-13 7 -18 18t-4.5 21.5zM0 0zM282 0v1062h196q59 0 78 -53l18 -62 q31 29 64 53.5t70 41.5t80.5 26.5t95.5 9.5q87 0 154 -30t113 -84t69.5 -128t23.5 -161v-675h-317v675q0 78 -36 121.5t-106 43.5q-52 0 -98 -22.5t-88 -60.5v-757h-317z" />
<glyph unicode="&#x14c;" horiz-adv-x="1668" d="M58 0zM58 746q0 162 56 301.5t158 242t245 160.5t318 58q174 0 316.5 -58.5t244 -161t157.5 -242t56 -300.5q0 -162 -56 -301t-157.5 -242t-244 -161t-316.5 -58t-317.5 58t-245.5 161t-158 242.5t-56 300.5zM413 746q0 -112 28.5 -200t82.5 -149.5t132 -94t179 -32.5 q99 0 177 32.5t131.5 94t82 149.5t28.5 200q0 111 -28.5 199.5t-82 150t-131.5 94.5t-177 33q-100 0 -178.5 -33t-132.5 -94.5t-82.5 -150t-28.5 -199.5zM509 1593v174h655v-174h-655z" />
<glyph unicode="&#x14d;" horiz-adv-x="1189" d="M52 0zM52 534q0 126 39.5 226.5t111.5 171t172 108.5t222 38q121 0 220 -38t170.5 -108.5t111 -171.5t39.5 -226q0 -127 -39.5 -229t-111 -173.5t-170.5 -109.5t-220 -38q-122 0 -222 38t-172 109.5t-111.5 173.5t-39.5 229zM279 1230v194h635v-194h-635zM380 531 q0 -158 52 -235t165 -77q110 0 161.5 77.5t51.5 234.5q0 158 -51.5 235t-161.5 77q-113 0 -165 -77t-52 -235z" />
<glyph unicode="&#x14e;" horiz-adv-x="1668" d="M58 0zM58 746q0 162 56 301.5t158 242t245 160.5t318 58q174 0 316.5 -58.5t244 -161t157.5 -242t56 -300.5q0 -162 -56 -301t-157.5 -242t-244 -161t-316.5 -58t-317.5 58t-245.5 161t-158 242.5t-56 300.5zM413 746q0 -112 28.5 -200t82.5 -149.5t132 -94t179 -32.5 q99 0 177 32.5t131.5 94t82 149.5t28.5 200q0 111 -28.5 199.5t-82 150t-131.5 94.5t-177 33q-100 0 -178.5 -33t-132.5 -94.5t-82.5 -150t-28.5 -199.5zM470 1872h242q0 -50 27 -78t98 -28t98 28t27 78h241q0 -67 -27 -120t-75.5 -90.5t-115.5 -57.5t-148 -20t-148 17 t-116 52.5t-76 89.5t-27 129z" />
<glyph unicode="&#x14f;" horiz-adv-x="1189" d="M52 0zM52 534q0 126 39.5 226.5t111.5 171t172 108.5t222 38q121 0 220 -38t170.5 -108.5t111 -171.5t39.5 -226q0 -127 -39.5 -229t-111 -173.5t-170.5 -109.5t-220 -38q-122 0 -222 38t-172 109.5t-111.5 173.5t-39.5 229zM261 1492h221q0 -28 4.5 -49.5t17.5 -35 t35 -21t58 -7.5q35 0 57 7.5t35 21t17.5 35t4.5 49.5h221q0 -62 -16 -117.5t-55 -97t-103.5 -66t-160.5 -24.5t-161 24.5t-104 66t-55 97t-16 117.5zM380 531q0 -158 52 -235t165 -77q110 0 161.5 77.5t51.5 234.5q0 158 -51.5 235t-161.5 77q-113 0 -165 -77t-52 -235z" />
<glyph unicode="&#x150;" horiz-adv-x="1668" d="M58 0zM58 746q0 162 56 301.5t158 242t245 160.5t318 58q174 0 316.5 -58.5t244 -161t157.5 -242t56 -300.5q0 -162 -56 -301t-157.5 -242t-244 -161t-316.5 -58t-317.5 58t-245.5 161t-158 242.5t-56 300.5zM413 746q0 -112 28.5 -200t82.5 -149.5t132 -94t179 -32.5 q99 0 177 32.5t131.5 94t82 149.5t28.5 200q0 111 -28.5 199.5t-82 150t-131.5 94.5t-177 33q-100 0 -178.5 -33t-132.5 -94.5t-82.5 -150t-28.5 -199.5zM536 1588l132 223q17 29 47.5 45.5t79.5 16.5h204l-212 -241q-25 -20 -46 -32t-56 -12h-149zM873 1588l186 223 q24 27 55.5 44.5t79.5 17.5h235l-273 -241q-26 -22 -51.5 -33t-61.5 -11h-170z" />
<glyph unicode="&#x151;" horiz-adv-x="1189" d="M52 0zM52 534q0 126 39.5 226.5t111.5 171t172 108.5t222 38q121 0 220 -38t170.5 -108.5t111 -171.5t39.5 -226q0 -127 -39.5 -229t-111 -173.5t-170.5 -109.5t-220 -38q-122 0 -222 38t-172 109.5t-111.5 173.5t-39.5 229zM306 1196l119 251q15 30 39.5 45.5t72.5 15.5 h205l-205 -269q-20 -26 -43 -34.5t-59 -8.5h-129zM380 531q0 -158 52 -235t165 -77q110 0 161.5 77.5t51.5 234.5q0 158 -51.5 235t-161.5 77q-113 0 -165 -77t-52 -235zM613 1196l180 251q10 14 20 25.5t23 19.5t29.5 12t40.5 4h225l-266 -269q-24 -24 -45.5 -33.5 t-57.5 -9.5h-149z" />
<glyph unicode="&#x152;" horiz-adv-x="2198" d="M61 746q0 162 50.5 301.5t142 242t220 160.5t286.5 58q136 0 249 -44.5t201 -124.5v153h920v-266h-612v-348h469v-256h-469v-356h612v-266h-920v152q-88 -80 -201 -124t-249 -44q-158 0 -286.5 58t-220 161t-142 242.5t-50.5 300.5zM416 746q0 -112 25 -201.5 t73.5 -152.5t118.5 -97.5t162 -34.5q89 0 158.5 34.5t117.5 97.5t73 152.5t25 201.5q0 111 -25 201t-73 153t-117.5 97.5t-158.5 34.5q-91 0 -161.5 -34.5t-119 -97.5t-73.5 -153t-25 -201z" />
<glyph unicode="&#x153;" horiz-adv-x="1799" d="M52 534q0 126 38.5 226.5t106 171t161 108.5t202.5 38q121 0 215.5 -46t159.5 -133q59 83 152 131t219 48q94 0 175 -35.5t139.5 -102t92 -160t33.5 -209.5q0 -36 -3 -58.5t-11 -35.5t-21 -18t-35 -5h-583q17 -122 79 -177.5t156 -55.5q52 0 89.5 13.5t66.5 30t55 29.5 t55 13q36 0 56 -27l94 -114q-49 -56 -105 -91.5t-114.5 -55.5t-116 -27.5t-111.5 -7.5q-52 0 -102 10.5t-96.5 33t-88 57t-74.5 81.5q-65 -88 -163 -135t-225 -47q-105 0 -196 38t-157.5 109.5t-104.5 173.5t-38 229zM380 531q0 -158 48 -235t151 -77q102 0 149 77.5 t47 234.5q0 158 -47 235t-149 77q-103 0 -151 -77t-48 -235zM1091 638h372q0 38 -8.5 77.5t-28.5 71t-53.5 52t-81.5 20.5q-90 0 -138.5 -57t-61.5 -164z" />
<glyph unicode="&#x154;" horiz-adv-x="1346" d="M144 0v1492h486q162 0 276 -33.5t186 -92.5t105 -140t33 -176q0 -73 -19.5 -137.5t-58 -119.5t-94.5 -98t-128 -70q35 -17 64.5 -43.5t53.5 -62.5l317 -519h-313q-87 0 -125 66l-248 433q-17 28 -39 40.5t-61 12.5h-89v-552h-346zM144 0zM453 1588l194 277q12 16 24 26 t25.5 14.5t31.5 5.5t42 1h350l-331 -292q-12 -11 -23 -17.5t-23.5 -9.5t-26.5 -4t-31 -1h-232zM490 791h140q71 0 120.5 17.5t81 49.5t46 74.5t14.5 91.5q0 98 -64 153.5t-198 55.5h-140v-442z" />
<glyph unicode="&#x155;" horiz-adv-x="781" d="M108 0v1062h188q24 0 39.5 -4t26.5 -13t16.5 -23t9.5 -35l15 -90q50 86 114.5 135.5t147.5 49.5q72 0 116 -33l-20 -234q-5 -23 -17 -31t-32 -8q-8 0 -21.5 1t-28 2.5t-29.5 3t-27 1.5q-70 0 -111 -37t-70 -103v-644h-317zM108 0zM280 1196l139 251q17 30 41 45.5 t72 15.5h307l-266 -269q-24 -24 -45.5 -33.5t-57.5 -9.5h-190z" />
<glyph unicode="&#x156;" horiz-adv-x="1346" d="M144 0v1492h486q162 0 276 -33.5t186 -92.5t105 -140t33 -176q0 -73 -19.5 -137.5t-58 -119.5t-94.5 -98t-128 -70q35 -17 64.5 -43.5t53.5 -62.5l317 -519h-313q-87 0 -125 66l-248 433q-17 28 -39 40.5t-61 12.5h-89v-552h-346zM144 0zM490 791h140q71 0 120.5 17.5 t81 49.5t46 74.5t14.5 91.5q0 98 -64 153.5t-198 55.5h-140v-442zM554 -397l54 310h194q16 0 26.5 -4t15 -11t6 -14t1.5 -13q0 -9 -2 -24.5t-9.5 -41t-23 -62t-41.5 -87.5q-17 -34 -42.5 -43.5t-65.5 -9.5h-113z" />
<glyph unicode="&#x157;" horiz-adv-x="781" d="M108 0v1062h188q24 0 39.5 -4t26.5 -13t16.5 -23t9.5 -35l15 -90q50 86 114.5 135.5t147.5 49.5q72 0 116 -33l-20 -234q-5 -23 -17 -31t-32 -8q-8 0 -21.5 1t-28 2.5t-29.5 3t-27 1.5q-70 0 -111 -37t-70 -103v-644h-317zM108 0zM130 -397l54 310h194q16 0 26.5 -4 t15 -11t6 -14t1.5 -13q0 -9 -2 -24.5t-9.5 -41t-23 -62t-41.5 -87.5q-17 -34 -42.5 -43.5t-65.5 -9.5h-113z" />
<glyph unicode="&#x158;" horiz-adv-x="1346" d="M144 0v1492h486q162 0 276 -33.5t186 -92.5t105 -140t33 -176q0 -73 -19.5 -137.5t-58 -119.5t-94.5 -98t-128 -70q35 -17 64.5 -43.5t53.5 -62.5l317 -519h-313q-87 0 -125 66l-248 433q-17 28 -39 40.5t-61 12.5h-89v-552h-346zM144 0zM251 1873h230q9 0 20.5 -0.5 t24 -4t24.5 -11t22 -20.5l60 -91l19 -27q4 6 8.5 13t9.5 14l59 90q10 13 22.5 21t25 11.5t24 4t21.5 0.5h229l-250 -285h-299zM490 791h140q71 0 120.5 17.5t81 49.5t46 74.5t14.5 91.5q0 98 -64 153.5t-198 55.5h-140v-442z" />
<glyph unicode="&#x159;" horiz-adv-x="780" d="M43 0zM43 1492h220q18 0 35 -5.5t26 -13.5l86 -94l27 -30q11 15 26 30l86 94q9 6 26 12.5t36 6.5h211l-240 -296h-299zM107 0v1062h188q24 0 39.5 -4t26.5 -13t16.5 -23t9.5 -35l15 -90q50 86 114.5 135.5t147.5 49.5q72 0 116 -33l-20 -234q-5 -23 -17 -31t-32 -8 q-8 0 -21.5 1t-28 2.5t-29.5 3t-27 1.5q-70 0 -111 -37t-70 -103v-644h-317z" />
<glyph unicode="&#x15a;" horiz-adv-x="1134" d="M29 0zM29 180l102 162q12 17 32 29t44 12q31 0 62 -19.5t70.5 -43t90.5 -43t121 -19.5q94 0 146.5 41.5t52.5 131.5q0 52 -29 85t-75.5 54.5t-106 38t-122 36.5t-121.5 49t-106 76.5t-75.5 119t-28.5 175.5q0 84 34 164t99.5 142.5t160.5 99.5t218 37q69 0 134 -10.5 t123 -31.5t109 -50.5t91 -65.5l-86 -161q-15 -25 -32 -37t-44 -12q-24 0 -51 14.5t-61.5 33t-78.5 33.5t-100 15q-97 0 -144.5 -41.5t-47.5 -112.5q0 -45 28.5 -74.5t75 -51t106.5 -39.5t122.5 -40t122.5 -51.5t106.5 -76t75 -112.5t28.5 -159q0 -103 -35.5 -193 t-104 -157.5t-168 -105.5t-226.5 -38q-70 0 -142 14t-140 40.5t-127 62t-103 79.5zM415 1588l194 277q12 16 24 26t25.5 14.5t31.5 5.5t42 1h350l-331 -292q-12 -11 -23 -17.5t-23.5 -9.5t-26.5 -4t-31 -1h-232z" />
<glyph unicode="&#x15b;" horiz-adv-x="912" d="M33 0zM33 115l73 116q12 20 31.5 32t48.5 12q28 0 50 -12t47.5 -26.5t60 -26.5t86.5 -12q37 0 62.5 7.5t41 21t22.5 29.5t7 34q0 32 -21.5 52t-56 35t-79.5 28t-91 29.5t-90.5 39.5t-79 58t-56 86.5t-21.5 123.5q0 68 26 129t78 107t131 73t184 27q57 0 111 -10 t101 -28.5t86 -43.5t69 -55l-72 -112q-12 -19 -26 -27t-35 -8q-23 0 -45.5 9.5t-48.5 21t-58.5 21t-74.5 9.5q-60 0 -92.5 -23t-32.5 -64q0 -30 21 -49.5t55.5 -34t78.5 -28t90 -30t90.5 -38.5t79 -54t55.5 -78t21 -111q0 -79 -28.5 -145.5t-85.5 -114.5t-140.5 -74.5 t-191.5 -26.5q-54 0 -108.5 10t-105 27.5t-94 41.5t-73.5 52zM319 1196l139 251q17 30 41 45.5t72 15.5h307l-266 -269q-24 -24 -45.5 -33.5t-57.5 -9.5h-190z" />
<glyph unicode="&#x15c;" horiz-adv-x="1134" d="M29 0zM29 180l102 162q12 17 32 29t44 12q31 0 62 -19.5t70.5 -43t90.5 -43t121 -19.5q94 0 146.5 41.5t52.5 131.5q0 52 -29 85t-75.5 54.5t-106 38t-122 36.5t-121.5 49t-106 76.5t-75.5 119t-28.5 175.5q0 84 34 164t99.5 142.5t160.5 99.5t218 37q69 0 134 -10.5 t123 -31.5t109 -50.5t91 -65.5l-86 -161q-15 -25 -32 -37t-44 -12q-24 0 -51 14.5t-61.5 33t-78.5 33.5t-100 15q-97 0 -144.5 -41.5t-47.5 -112.5q0 -45 28.5 -74.5t75 -51t106.5 -39.5t122.5 -40t122.5 -51.5t106.5 -76t75 -112.5t28.5 -159q0 -103 -35.5 -193 t-104 -157.5t-168 -105.5t-226.5 -38q-70 0 -142 14t-140 40.5t-127 62t-103 79.5zM223 1588l250 285h289l250 -285h-229q-18 0 -45 7t-56 40l-51 80q-5 7 -9.5 13.5t-8.5 12.5l-19 -26l-51 -80q-29 -34 -55.5 -40.5t-44.5 -6.5h-220z" />
<glyph unicode="&#x15d;" horiz-adv-x="912" d="M33 0zM33 115l73 116q12 20 31.5 32t48.5 12q28 0 50 -12t47.5 -26.5t60 -26.5t86.5 -12q37 0 62.5 7.5t41 21t22.5 29.5t7 34q0 32 -21.5 52t-56 35t-79.5 28t-91 29.5t-90.5 39.5t-79 58t-56 86.5t-21.5 123.5q0 68 26 129t78 107t131 73t184 27q57 0 111 -10 t101 -28.5t86 -43.5t69 -55l-72 -112q-12 -19 -26 -27t-35 -8q-23 0 -45.5 9.5t-48.5 21t-58.5 21t-74.5 9.5q-60 0 -92.5 -23t-32.5 -64q0 -30 21 -49.5t55.5 -34t78.5 -28t90 -30t90.5 -38.5t79 -54t55.5 -78t21 -111q0 -79 -28.5 -145.5t-85.5 -114.5t-140.5 -74.5 t-191.5 -26.5q-54 0 -108.5 10t-105 27.5t-94 41.5t-73.5 52zM83 1196l240 296h299l240 -296h-211q-18 0 -35.5 5.5t-35.5 23.5l-77 85l-12.5 12.5t-12.5 14.5q-6 -8 -13 -15t-13 -12l-79 -85q-15 -14 -33.5 -21.5t-36.5 -7.5h-220z" />
<glyph unicode="&#x15e;" horiz-adv-x="1134" d="M29 180l102 162q12 17 32 29t44 12q31 0 62 -19.5t70.5 -43t90.5 -43t121 -19.5q94 0 146.5 41.5t52.5 131.5q0 52 -29 85t-75.5 54.5t-106 38t-122 36.5t-121.5 49t-106 76.5t-75.5 119t-28.5 175.5q0 84 34 164t99.5 142.5t160.5 99.5t218 37q69 0 134 -10.5t123 -31.5 t109 -50.5t91 -65.5l-86 -161q-15 -25 -32 -37t-44 -12q-24 0 -51 14.5t-61.5 33t-78.5 33.5t-100 15q-97 0 -144.5 -41.5t-47.5 -112.5q0 -45 28.5 -74.5t75 -51t106.5 -39.5t122.5 -40t122.5 -51.5t106.5 -76t75 -112.5t28.5 -159q0 -91 -27.5 -171.5t-80.5 -144.5 t-130.5 -108t-177.5 -60l-11 -44q49 -12 81.5 -29t51.5 -37t27 -43.5t8 -49.5q0 -36 -20 -64.5t-55.5 -49t-86.5 -31.5t-112 -11q-42 0 -77.5 4.5t-74.5 12.5l29 95q6 28 35 28q15 0 29.5 -3.5t35.5 -3.5q27 0 38 9t11 20q0 23 -31 33t-106 22l46 135q-63 6 -126 22 t-121.5 41t-109.5 58t-91 72z" />
<glyph unicode="&#x15f;" horiz-adv-x="912" d="M33 115l73 116q12 20 31.5 32t48.5 12q28 0 50 -12t47.5 -26.5t60 -26.5t86.5 -12q37 0 62.5 7.5t41 21t22.5 29.5t7 34q0 32 -21.5 52t-56 35t-79.5 28t-91 29.5t-90.5 39.5t-79 58t-56 86.5t-21.5 123.5q0 68 26 129t78 107t131 73t184 27q57 0 111 -10t101 -28.5 t86 -43.5t69 -55l-72 -112q-12 -19 -26 -27t-35 -8q-23 0 -45.5 9.5t-48.5 21t-58.5 21t-74.5 9.5q-60 0 -92.5 -23t-32.5 -64q0 -30 21 -49.5t55.5 -34t78.5 -28t90 -30t90.5 -38.5t79 -54t55.5 -78t21 -111q0 -69 -22 -128t-64.5 -105t-106 -77t-146.5 -43l-11 -42 q49 -12 81.5 -29t52 -37t27.5 -43.5t8 -49.5q0 -36 -20 -64.5t-56 -49t-86.5 -31.5t-112.5 -11q-42 0 -77 4.5t-74 12.5l29 95q5 28 34 28q15 0 29.5 -3.5t36.5 -3.5q27 0 38 9t11 20q0 23 -31 33t-106 22l47 137q-45 5 -89.5 16.5t-84.5 28t-74.5 37t-59.5 44.5z" />
<glyph unicode="&#x160;" horiz-adv-x="1134" d="M29 0zM29 180l102 162q12 17 32 29t44 12q31 0 62 -19.5t70.5 -43t90.5 -43t121 -19.5q94 0 146.5 41.5t52.5 131.5q0 52 -29 85t-75.5 54.5t-106 38t-122 36.5t-121.5 49t-106 76.5t-75.5 119t-28.5 175.5q0 84 34 164t99.5 142.5t160.5 99.5t218 37q69 0 134 -10.5 t123 -31.5t109 -50.5t91 -65.5l-86 -161q-15 -25 -32 -37t-44 -12q-24 0 -51 14.5t-61.5 33t-78.5 33.5t-100 15q-97 0 -144.5 -41.5t-47.5 -112.5q0 -45 28.5 -74.5t75 -51t106.5 -39.5t122.5 -40t122.5 -51.5t106.5 -76t75 -112.5t28.5 -159q0 -103 -35.5 -193 t-104 -157.5t-168 -105.5t-226.5 -38q-70 0 -142 14t-140 40.5t-127 62t-103 79.5zM213 1873h230q9 0 20.5 -0.5t24 -4t24.5 -11t22 -20.5l60 -91l19 -27q4 6 8.5 13t9.5 14l59 90q10 13 22.5 21t25 11.5t24 4t21.5 0.5h229l-250 -285h-299z" />
<glyph unicode="&#x161;" horiz-adv-x="912" d="M33 0zM33 115l73 116q12 20 31.5 32t48.5 12q28 0 50 -12t47.5 -26.5t60 -26.5t86.5 -12q37 0 62.5 7.5t41 21t22.5 29.5t7 34q0 32 -21.5 52t-56 35t-79.5 28t-91 29.5t-90.5 39.5t-79 58t-56 86.5t-21.5 123.5q0 68 26 129t78 107t131 73t184 27q57 0 111 -10 t101 -28.5t86 -43.5t69 -55l-72 -112q-12 -19 -26 -27t-35 -8q-23 0 -45.5 9.5t-48.5 21t-58.5 21t-74.5 9.5q-60 0 -92.5 -23t-32.5 -64q0 -30 21 -49.5t55.5 -34t78.5 -28t90 -30t90.5 -38.5t79 -54t55.5 -78t21 -111q0 -79 -28.5 -145.5t-85.5 -114.5t-140.5 -74.5 t-191.5 -26.5q-54 0 -108.5 10t-105 27.5t-94 41.5t-73.5 52zM83 1492h220q18 0 35 -5.5t26 -13.5l86 -94l27 -30q11 15 26 30l86 94q9 6 26 12.5t36 6.5h211l-240 -296h-299z" />
<glyph unicode="&#x162;" horiz-adv-x="1247" d="M31 1218v274h1186v-274h-420v-1218h-86l-14 -50q49 -12 81.5 -29t52 -37t27.5 -43.5t8 -49.5q0 -36 -20 -64.5t-55.5 -49t-86.5 -31.5t-112 -11q-42 0 -77.5 4.5t-74.5 12.5l29 95q6 28 35 28q15 0 29.5 -3.5t35.5 -3.5q27 0 38 9t11 20q0 23 -31 33t-106 22l51 148h-81 v1218h-420z" />
<glyph unicode="&#x163;" horiz-adv-x="787" d="M28 905v124l169 33l62 259q12 49 70 49h166v-310h263v-217h-263v-528q0 -37 17.5 -61t51.5 -24q17 0 29 4t21 8.5t16.5 8t17.5 3.5q14 0 23 -6.5t18 -21.5l96 -150q-49 -36 -106 -57.5t-120 -29.5l-10 -39q49 -12 81.5 -29t51.5 -37t27.5 -43.5t8.5 -49.5 q0 -36 -20 -64.5t-56 -49t-86.5 -31.5t-112.5 -11q-42 0 -77 4.5t-74 12.5l29 95q5 28 34 28q15 0 29.5 -3.5t36.5 -3.5q27 0 38 9t11 20q0 23 -31 33t-106 22l50 145q-101 27 -153.5 104.5t-52.5 192.5v549h-90q-25 0 -42 15.5t-17 46.5z" />
<glyph unicode="&#x164;" horiz-adv-x="1247" d="M31 0zM31 1218v274h1186v-274h-420v-1218h-346v1218h-420zM228 1873h230q9 0 20.5 -0.5t24 -4t24.5 -11t22 -20.5l60 -91l19 -27q4 6 8.5 13t9.5 14l59 90q10 13 22.5 21t25 11.5t24 4t21.5 0.5h229l-250 -285h-299z" />
<glyph unicode="&#x165;" horiz-adv-x="786" d="M27 0zM27 905v124l169 33l62 259q12 49 70 49h166v-310h263v-217h-263v-528q0 -37 17.5 -61t51.5 -24q17 0 29 4t21 8.5t16.5 8t17.5 3.5q14 0 23 -6.5t18 -21.5l96 -150q-61 -46 -138 -69t-159 -23q-76 0 -133.5 22t-97 62.5t-60 97.5t-20.5 128v549h-90q-25 0 -42 15.5 t-17 46.5zM616 1164l68 371h215q16 0 26 -4t15 -11t6.5 -14t1.5 -13q0 -8 -3.5 -23.5t-15.5 -45t-34 -79.5t-58 -127q-17 -34 -42.5 -44t-65.5 -10h-113z" />
<glyph unicode="&#x166;" horiz-adv-x="1267" d="M41 1218v274h1186v-274h-420v-344h307v-188h-307v-686h-346v686h-307v188h307v344h-420z" />
<glyph unicode="&#x167;" horiz-adv-x="795" d="M29 905v124l169 33l62 259q12 49 70 49h166v-310h263v-217h-263v-130h274v-189h-274v-209q0 -37 17.5 -61t51.5 -24q17 0 29 4t21 8.5t16.5 8t17.5 3.5q14 0 23 -6.5t18 -21.5l96 -150q-61 -46 -138 -69t-159 -23q-76 0 -133.5 22t-97 62.5t-60 97.5t-20.5 128v230h-123 v189h123v130h-90q-25 0 -42 15.5t-17 46.5z" />
<glyph unicode="&#x168;" horiz-adv-x="1533" d="M126 0zM126 608v884h346v-883q0 -79 20 -140.5t58 -105.5t92.5 -67t124.5 -23t124.5 23t92.5 66.5t58 105t20 140.5v884h346v-884q0 -137 -44.5 -251.5t-127.5 -197.5t-202 -129t-267 -46q-150 0 -268.5 46t-201.5 129t-127 197.5t-44 251.5zM380 1578q0 56 15 108.5 t45.5 93.5t74 65.5t100.5 24.5t98 -15.5t72 -34.5t56.5 -34.5t52.5 -15.5q23 0 38 9t24.5 23t14 29.5t4.5 30.5h193q0 -56 -15.5 -108.5t-45 -93t-73.5 -64.5t-102 -24q-57 0 -97.5 15.5t-71.5 34t-56.5 34t-52.5 15.5q-23 0 -38 -9t-24.5 -23t-13.5 -30.5t-4 -30.5h-194z " />
<glyph unicode="&#x169;" horiz-adv-x="1167" d="M97 0zM97 388v674h318v-674q0 -79 35.5 -122t105.5 -43q52 0 97.5 21.5t88.5 60.5v757h318v-1062h-197q-59 0 -78 53l-19 62q-31 -30 -63.5 -54t-70 -41t-80.5 -26.5t-94 -9.5q-87 0 -154 30t-113.5 84.5t-70 128t-23.5 161.5zM231 1214q0 65 18.5 116.5t50.5 88.5t75 57 t92 20q38 0 71 -11.5t61 -26t51 -26.5t40 -12q25 0 40 13t15 55h193q0 -65 -18 -116.5t-49.5 -88t-74.5 -56t-94 -19.5q-38 0 -70.5 12t-60.5 26.5t-51 26t-41 11.5q-25 0 -39 -14t-14 -56h-195z" />
<glyph unicode="&#x16a;" horiz-adv-x="1533" d="M126 0zM126 608v884h346v-883q0 -79 20 -140.5t58 -105.5t92.5 -67t124.5 -23t124.5 23t92.5 66.5t58 105t20 140.5v884h346v-884q0 -137 -44.5 -251.5t-127.5 -197.5t-202 -129t-267 -46q-150 0 -268.5 46t-201.5 129t-127 197.5t-44 251.5zM439 1593v174h655v-174h-655 z" />
<glyph unicode="&#x16b;" horiz-adv-x="1167" d="M97 0zM97 388v674h318v-674q0 -79 35.5 -122t105.5 -43q52 0 97.5 21.5t88.5 60.5v757h318v-1062h-197q-59 0 -78 53l-19 62q-31 -30 -63.5 -54t-70 -41t-80.5 -26.5t-94 -9.5q-87 0 -154 30t-113.5 84.5t-70 128t-23.5 161.5zM266 1230v194h635v-194h-635z" />
<glyph unicode="&#x16c;" horiz-adv-x="1533" d="M126 0zM126 608v884h346v-883q0 -79 20 -140.5t58 -105.5t92.5 -67t124.5 -23t124.5 23t92.5 66.5t58 105t20 140.5v884h346v-884q0 -137 -44.5 -251.5t-127.5 -197.5t-202 -129t-267 -46q-150 0 -268.5 46t-201.5 129t-127 197.5t-44 251.5zM400 1872h242q0 -50 27 -78 t98 -28t98 28t27 78h241q0 -67 -27 -120t-75.5 -90.5t-115.5 -57.5t-148 -20t-148 17t-116 52.5t-76 89.5t-27 129z" />
<glyph unicode="&#x16d;" horiz-adv-x="1167" d="M97 0zM97 388v674h318v-674q0 -79 35.5 -122t105.5 -43q52 0 97.5 21.5t88.5 60.5v757h318v-1062h-197q-59 0 -78 53l-19 62q-31 -30 -63.5 -54t-70 -41t-80.5 -26.5t-94 -9.5q-87 0 -154 30t-113.5 84.5t-70 128t-23.5 161.5zM248 1492h221q0 -28 4.5 -49.5t17.5 -35 t35 -21t58 -7.5q35 0 57 7.5t35 21t17.5 35t4.5 49.5h221q0 -62 -16 -117.5t-55 -97t-103.5 -66t-160.5 -24.5t-161 24.5t-104 66t-55 97t-16 117.5z" />
<glyph unicode="&#x16e;" horiz-adv-x="1533" d="M126 0zM126 608v884h346v-883q0 -79 20 -140.5t58 -105.5t92.5 -67t124.5 -23t124.5 23t92.5 66.5t58 105t20 140.5v884h346v-884q0 -137 -44.5 -251.5t-127.5 -197.5t-202 -129t-267 -46q-150 0 -268.5 46t-201.5 129t-127 197.5t-44 251.5zM538 1755q0 47 19 85.5 t50.5 65.5t72 42t86.5 15q47 0 89 -15t74 -42t51 -65.5t19 -85.5q0 -45 -19 -82.5t-51 -64t-74 -41t-89 -14.5q-45 0 -86 14.5t-72.5 41t-50.5 64t-19 82.5zM688 1755q0 -36 20 -59t62 -23q37 0 58 23t21 59q0 39 -21.5 61.5t-57.5 22.5q-42 0 -62 -22.5t-20 -61.5z" />
<glyph unicode="&#x16f;" horiz-adv-x="1167" d="M97 0zM97 388v674h318v-674q0 -79 35.5 -122t105.5 -43q52 0 97.5 21.5t88.5 60.5v757h318v-1062h-197q-59 0 -78 53l-19 62q-31 -30 -63.5 -54t-70 -41t-80.5 -26.5t-94 -9.5q-87 0 -154 30t-113.5 84.5t-70 128t-23.5 161.5zM336 1366q0 51 20.5 92.5t54 71.5 t78.5 45.5t95 15.5t96 -15.5t81.5 -45.5t56 -71.5t20.5 -92.5q0 -50 -20.5 -90.5t-56 -69t-81.5 -44.5t-96 -16q-49 0 -94.5 16t-79 44.5t-54 69t-20.5 90.5zM506 1366q0 -36 20 -59t62 -23q37 0 58.5 23t21.5 59q0 39 -21.5 61.5t-58.5 22.5q-42 0 -62 -22.5t-20 -61.5z " />
<glyph unicode="&#x170;" horiz-adv-x="1533" d="M126 0zM126 608v884h346v-883q0 -79 20 -140.5t58 -105.5t92.5 -67t124.5 -23t124.5 23t92.5 66.5t58 105t20 140.5v884h346v-884q0 -137 -44.5 -251.5t-127.5 -197.5t-202 -129t-267 -46q-150 0 -268.5 46t-201.5 129t-127 197.5t-44 251.5zM466 1588l132 223 q17 29 47.5 45.5t79.5 16.5h204l-212 -241q-25 -20 -46 -32t-56 -12h-149zM803 1588l186 223q24 27 55.5 44.5t79.5 17.5h235l-273 -241q-26 -22 -51.5 -33t-61.5 -11h-170z" />
<glyph unicode="&#x171;" horiz-adv-x="1166" d="M97 0zM97 388v674h318v-674q0 -79 35.5 -122t105.5 -43q52 0 97.5 21.5t88.5 60.5v757h318v-1062h-197q-59 0 -78 53l-19 62q-31 -30 -63.5 -54t-70 -41t-80.5 -26.5t-94 -9.5q-87 0 -154 30t-113.5 84.5t-70 128t-23.5 161.5zM293 1196l119 251q15 30 39.5 45.5 t72.5 15.5h205l-205 -269q-20 -26 -43 -34.5t-59 -8.5h-129zM600 1196l180 251q10 14 20 25.5t23 19.5t29.5 12t40.5 4h225l-266 -269q-24 -24 -45.5 -33.5t-57.5 -9.5h-149z" />
<glyph unicode="&#x172;" horiz-adv-x="1533" d="M126 608v884h346v-883q0 -79 20 -140.5t58 -105.5t92.5 -67t124.5 -23t124.5 23t92.5 66.5t58 105t20 140.5v884h346v-884q0 -121 -34.5 -224t-99.5 -183t-158 -133.5t-211 -72.5q-37 -22 -62 -52.5t-25 -67.5q0 -25 14 -39.5t41 -14.5q15 0 24.5 1t16 2.5t10.5 3t9 1.5 q22 0 29 -19l47 -114q-36 -22 -89.5 -36.5t-113.5 -14.5q-110 0 -166.5 43t-56.5 109q0 49 29 97.5t94 91.5q-135 9 -243 58.5t-182.5 131.5t-114.5 192t-40 240z" />
<glyph unicode="&#x173;" horiz-adv-x="1167" d="M97 388v674h318v-674q0 -79 35.5 -122t105.5 -43q52 0 97.5 21.5t88.5 60.5v757h318v-1062q-40 -22 -68 -54t-28 -71q0 -25 13.5 -39.5t41.5 -14.5q15 0 24.5 1t15.5 2.5t10 3t9 1.5q22 0 29 -19l47 -114q-36 -22 -89 -36.5t-114 -14.5q-110 0 -166.5 43t-56.5 109 q0 52 34.5 104.5t110.5 98.5h-10q-59 0 -78 53l-19 62q-31 -30 -63.5 -54t-70 -41t-80.5 -26.5t-94 -9.5q-87 0 -154 30t-113.5 84.5t-70 128t-23.5 161.5z" />
<glyph unicode="&#x174;" horiz-adv-x="2181" d="M4 0zM4 1492h291q45 0 75 -20.5t40 -54.5l204 -778q9 -38 18.5 -81t18.5 -90q18 96 45 171l242 778q9 29 39.5 52t73.5 23h102q45 0 72.5 -21t42.5 -54l239 -778q27 -72 45 -163q8 45 17 86t18 77l205 778q8 30 39 52.5t74 22.5h272l-461 -1492h-313l-281 925 q-15 44 -29 101q-14 -57 -30 -101l-285 -925h-313zM700 1588l250 285h289l250 -285h-229q-18 0 -45 7t-56 40l-51 80q-5 7 -9.5 13.5t-8.5 12.5l-19 -26l-51 -80q-29 -34 -55.5 -40.5t-44.5 -6.5h-220z" />
<glyph unicode="&#x175;" horiz-adv-x="1675" d="M5 0zM5 1062h254q34 0 57 -16t31 -39l107 -477q13 -54 22.5 -105t18.5 -101q14 50 29 101t32 105l133 478q8 24 30.5 39.5t53.5 15.5h141q34 0 57 -16t31 -39l127 -478q15 -54 30 -105t28 -103q8 51 19.5 102t25.5 106l113 477q8 24 30.5 39.5t52.5 15.5h242l-330 -1062 h-258q-20 0 -34.5 12.5t-22.5 40.5l-152 530q-11 36 -19.5 70.5t-15.5 69.5q-7 -36 -16 -71.5t-20 -70.5l-154 -528q-15 -53 -67 -53h-246zM449 1196l240 296h299l240 -296h-211q-18 0 -35.5 5.5t-35.5 23.5l-77 85l-12.5 12.5t-12.5 14.5q-6 -8 -13 -15t-13 -12l-79 -85 q-15 -14 -33.5 -21.5t-36.5 -7.5h-220z" />
<glyph unicode="&#x176;" horiz-adv-x="1372" d="M-28 1492h306q45 0 71 -21t43 -54l211 -434q27 -51 48 -95.5t37 -87.5q15 44 35.5 88.5t47.5 94.5l209 434q7 13 17.5 26.5t24 24.5t31.5 17.5t40 6.5h307l-541 -925v-567h-346v567zM0 0zM300 1588l250 285h289l250 -285h-229q-18 0 -45 7t-56 40l-51 80q-5 7 -9.5 13.5 t-8.5 12.5l-19 -26l-51 -80q-29 -34 -55.5 -40.5t-44.5 -6.5h-220z" />
<glyph unicode="&#x177;" horiz-adv-x="1101" d="M-8 1062h280q37 0 57 -16.5t29 -38.5l174 -458q25 -63 40 -127q10 33 22 65l24 64l158 456q9 24 33 39.5t51 15.5h256l-567 -1337q-14 -32 -34.5 -47t-65.5 -15h-238l205 430zM0 0zM186 1196l240 296h299l240 -296h-211q-18 0 -35.5 5.5t-35.5 23.5l-77 85l-12.5 12.5 t-12.5 14.5q-6 -8 -13 -15t-13 -12l-79 -85q-15 -14 -33.5 -21.5t-36.5 -7.5h-220z" />
<glyph unicode="&#x178;" horiz-adv-x="1372" d="M-28 1492h306q45 0 71 -21t43 -54l211 -434q27 -51 48 -95.5t37 -87.5q15 44 35.5 88.5t47.5 94.5l209 434q7 13 17.5 26.5t24 24.5t31.5 17.5t40 6.5h307l-541 -925v-567h-346v567zM0 0zM294 1708q0 32 13 60.5t34.5 50t49.5 34t59 12.5q34 0 63.5 -12.5t52 -34 t35.5 -50t13 -60.5q0 -33 -13 -60.5t-35.5 -48.5t-52 -33t-63.5 -12q-31 0 -59 12t-49.5 33t-34.5 48.5t-13 60.5zM765 1708q0 32 13 60.5t34.5 50t50.5 34t62 12.5t62 -12.5t50.5 -34t34.5 -50t13 -60.5q0 -33 -13 -60.5t-34.5 -48.5t-50.5 -33t-62 -12t-62 12t-50.5 33 t-34.5 48.5t-13 60.5z" />
<glyph unicode="&#x179;" horiz-adv-x="1247" d="M29 0v133q0 24 8 47t22 42l703 1004h-676v266h1116v-125q0 -27 -8.5 -52.5t-24.5 -47.5l-700 -1001h711v-266h-1151zM29 0zM450 1588l194 277q12 16 24 26t25.5 14.5t31.5 5.5t42 1h350l-331 -292q-12 -11 -23 -17.5t-23.5 -9.5t-26.5 -4t-31 -1h-232z" />
<glyph unicode="&#x17a;" horiz-adv-x="954" d="M47 0v129q0 19 10.5 49t30.5 55l448 593h-460v236h821v-127q0 -33 -11.5 -63.5t-29.5 -50.5l-443 -585h474v-236h-840zM47 0zM348 1196l139 251q17 30 41 45.5t72 15.5h307l-266 -269q-24 -24 -45.5 -33.5t-57.5 -9.5h-190z" />
<glyph unicode="&#x17b;" horiz-adv-x="1247" d="M29 0v133q0 24 8 47t22 42l703 1004h-676v266h1116v-125q0 -27 -8.5 -52.5t-24.5 -47.5l-700 -1001h711v-266h-1151zM29 0zM465 1741q0 37 14.5 69t39 56.5t57 39t68.5 14.5q38 0 72 -14.5t59 -39t40 -56.5t15 -69q0 -35 -15 -66.5t-40 -55.5t-59.5 -38t-71.5 -14 q-36 0 -68.5 14t-57 38t-39 55.5t-14.5 66.5z" />
<glyph unicode="&#x17c;" horiz-adv-x="954" d="M47 0v129q0 19 10.5 49t30.5 55l448 593h-460v236h821v-127q0 -33 -11.5 -63.5t-29.5 -50.5l-443 -585h474v-236h-840zM47 0zM311 1354q0 38 15 72t41 59t60 40t73 15q40 0 75 -15t61.5 -40t42 -59t15.5 -72t-15.5 -72t-42 -59t-62 -39.5t-74.5 -14.5t-73 14.5t-60 39.5 t-41 59t-15 72z" />
<glyph unicode="&#x17d;" horiz-adv-x="1247" d="M29 0v133q0 24 8 47t22 42l703 1004h-676v266h1116v-125q0 -27 -8.5 -52.5t-24.5 -47.5l-700 -1001h711v-266h-1151zM29 0zM248 1873h230q9 0 20.5 -0.5t24 -4t24.5 -11t22 -20.5l60 -91l19 -27q4 6 8.5 13t9.5 14l59 90q10 13 22.5 21t25 11.5t24 4t21.5 0.5h229 l-250 -285h-299z" />
<glyph unicode="&#x17e;" horiz-adv-x="954" d="M47 0v129q0 19 10.5 49t30.5 55l448 593h-460v236h821v-127q0 -33 -11.5 -63.5t-29.5 -50.5l-443 -585h474v-236h-840zM47 0zM112 1492h220q18 0 35 -5.5t26 -13.5l86 -94l27 -30q11 15 26 30l86 94q9 6 26 12.5t36 6.5h211l-240 -296h-299z" />
<glyph unicode="&#x17f;" horiz-adv-x="651" d="M37 935v125h149v60q0 91 29.5 165t84 126t133.5 81t179 29q39 0 72.5 -5t69.5 -15l-11 -160q-2 -27 -25.5 -35t-49.5 -8q-42 0 -73.5 -9.5t-51.5 -32t-29.5 -58.5t-9.5 -88v-1110h-318v844l-69 14q-36 8 -58 25.5t-22 51.5z" />
<glyph unicode="&#x192;" horiz-adv-x="741" d="M-141 -360l35 134q10 36 28 47t40 11q9 0 16.5 -1.5t15.5 -3.5t18.5 -3.5t24.5 -1.5q68 0 100.5 41t32.5 128v853l-70 14q-36 8 -58 25.5t-22 51.5v125h150v60q0 91 29 165t84 126t134 81t179 29q39 0 71.5 -5t68.5 -15l-6 -154q-1 -16 -8 -27t-19 -18t-25 -10t-27 -3 q-42 0 -74.5 -8t-54.5 -29t-33.5 -55.5t-11.5 -86.5v-50h249v-217h-239v-815q0 -93 -23.5 -172.5t-74.5 -137t-131 -90t-191 -32.5q-30 0 -56 2.5t-51 7.5t-49.5 13.5t-51.5 20.5z" />
<glyph unicode="&#x218;" horiz-adv-x="1134" d="M29 0zM29 180l102 162q12 17 32 29t44 12q31 0 62 -19.5t70.5 -43t90.5 -43t121 -19.5q94 0 146.5 41.5t52.5 131.5q0 52 -29 85t-75.5 54.5t-106 38t-122 36.5t-121.5 49t-106 76.5t-75.5 119t-28.5 175.5q0 84 34 164t99.5 142.5t160.5 99.5t218 37q69 0 134 -10.5 t123 -31.5t109 -50.5t91 -65.5l-86 -161q-15 -25 -32 -37t-44 -12q-24 0 -51 14.5t-61.5 33t-78.5 33.5t-100 15q-97 0 -144.5 -41.5t-47.5 -112.5q0 -45 28.5 -74.5t75 -51t106.5 -39.5t122.5 -40t122.5 -51.5t106.5 -76t75 -112.5t28.5 -159q0 -103 -35.5 -193 t-104 -157.5t-168 -105.5t-226.5 -38q-70 0 -142 14t-140 40.5t-127 62t-103 79.5zM403 -397l54 310h194q16 0 26.5 -4t15 -11t6 -14t1.5 -13q0 -9 -2 -24.5t-9.5 -41t-23 -62t-41.5 -87.5q-17 -34 -42.5 -43.5t-65.5 -9.5h-113z" />
<glyph unicode="&#x219;" horiz-adv-x="912" d="M33 0zM33 115l73 116q12 20 31.5 32t48.5 12q28 0 50 -12t47.5 -26.5t60 -26.5t86.5 -12q37 0 62.5 7.5t41 21t22.5 29.5t7 34q0 32 -21.5 52t-56 35t-79.5 28t-91 29.5t-90.5 39.5t-79 58t-56 86.5t-21.5 123.5q0 68 26 129t78 107t131 73t184 27q57 0 111 -10 t101 -28.5t86 -43.5t69 -55l-72 -112q-12 -19 -26 -27t-35 -8q-23 0 -45.5 9.5t-48.5 21t-58.5 21t-74.5 9.5q-60 0 -92.5 -23t-32.5 -64q0 -30 21 -49.5t55.5 -34t78.5 -28t90 -30t90.5 -38.5t79 -54t55.5 -78t21 -111q0 -79 -28.5 -145.5t-85.5 -114.5t-140.5 -74.5 t-191.5 -26.5q-54 0 -108.5 10t-105 27.5t-94 41.5t-73.5 52zM295 -397l54 310h194q16 0 26.5 -4t15 -11t6 -14t1.5 -13q0 -9 -2 -24.5t-9.5 -41t-23 -62t-41.5 -87.5q-17 -34 -42.5 -43.5t-65.5 -9.5h-113z" />
<glyph unicode="&#x21a;" horiz-adv-x="1247" d="M31 0zM31 1218v274h1186v-274h-420v-1218h-346v1218h-420zM486 -397l54 310h194q16 0 26.5 -4t15 -11t6 -14t1.5 -13q0 -9 -2 -24.5t-9.5 -41t-23 -62t-41.5 -87.5q-17 -34 -42.5 -43.5t-65.5 -9.5h-113z" />
<glyph unicode="&#x21b;" horiz-adv-x="786" d="M27 0zM27 905v124l169 33l62 259q12 49 70 49h166v-310h263v-217h-263v-528q0 -37 17.5 -61t51.5 -24q17 0 29 4t21 8.5t16.5 8t17.5 3.5q14 0 23 -6.5t18 -21.5l96 -150q-61 -46 -138 -69t-159 -23q-76 0 -133.5 22t-97 62.5t-60 97.5t-20.5 128v549h-90q-25 0 -42 15.5 t-17 46.5zM337 -397l54 310h194q16 0 26.5 -4t15 -11t6 -14t1.5 -13q0 -9 -2 -24.5t-9.5 -41t-23 -62t-41.5 -87.5q-17 -34 -42.5 -43.5t-65.5 -9.5h-113z" />
<glyph unicode="&#x237;" horiz-adv-x="548" d="M-81 -347l10 167q2 22 14.5 32t49.5 10t60.5 6t37 21.5t19.5 41.5t6 67v1064h317v-1064q0 -75 -19 -141t-62.5 -115.5t-114.5 -78.5t-177 -29q-39 0 -72 5t-69 14z" />
<glyph unicode="&#x2c6;" horiz-adv-x="819" d="M20 1196l240 296h299l240 -296h-211q-18 0 -35.5 5.5t-35.5 23.5l-77 85l-12.5 12.5t-12.5 14.5q-6 -8 -13 -15t-13 -12l-79 -85q-15 -14 -33.5 -21.5t-36.5 -7.5h-220z" />
<glyph unicode="&#x2c7;" horiz-adv-x="819" d="M20 1492h220q18 0 35 -5.5t26 -13.5l86 -94l27 -30q11 15 26 30l86 94q9 6 26 12.5t36 6.5h211l-240 -296h-299z" />
<glyph unicode="&#x2d8;" horiz-adv-x="819" d="M74 1492h221q0 -28 4.5 -49.5t17.5 -35t35 -21t58 -7.5q35 0 57 7.5t35 21t17.5 35t4.5 49.5h221q0 -62 -16 -117.5t-55 -97t-103.5 -66t-160.5 -24.5t-161 24.5t-104 66t-55 97t-16 117.5z" />
<glyph unicode="&#x2d9;" horiz-adv-x="819" d="M219 1354q0 38 15 72t41 59t60 40t73 15q40 0 75 -15t61.5 -40t42 -59t15.5 -72t-15.5 -72t-42 -59t-62 -39.5t-74.5 -14.5t-73 14.5t-60 39.5t-41 59t-15 72z" />
<glyph unicode="&#x2da;" horiz-adv-x="819" d="M160 1366q0 51 20.5 92.5t54 71.5t78.5 45.5t95 15.5t96 -15.5t81.5 -45.5t56 -71.5t20.5 -92.5q0 -50 -20.5 -90.5t-56 -69t-81.5 -44.5t-96 -16q-49 0 -94.5 16t-79 44.5t-54 69t-20.5 90.5zM330 1366q0 -36 20 -59t62 -23q37 0 58.5 23t21.5 59q0 39 -21.5 61.5 t-58.5 22.5q-42 0 -62 -22.5t-20 -61.5z" />
<glyph unicode="&#x2db;" horiz-adv-x="819" d="M203 -203q0 56 40 112t128 103l164 -12q-40 -22 -68.5 -54t-28.5 -71q0 -25 14 -39.5t42 -14.5q15 0 24 1t15.5 2.5t10.5 3t9 1.5q22 0 29 -19l47 -114q-36 -22 -89.5 -36.5t-113.5 -14.5q-110 0 -166.5 43t-56.5 109z" />
<glyph unicode="&#x2dc;" horiz-adv-x="819" d="M57 1214q0 65 18.5 116.5t50.5 88.5t75 57t92 20q38 0 71 -11.5t61 -26t51 -26.5t40 -12q25 0 40 13t15 55h193q0 -65 -18 -116.5t-49.5 -88t-74.5 -56t-94 -19.5q-38 0 -70.5 12t-60.5 26.5t-51 26t-41 11.5q-25 0 -39 -14t-14 -56h-195z" />
<glyph unicode="&#x2dd;" horiz-adv-x="819" d="M119 1196l119 251q15 30 39.5 45.5t72.5 15.5h205l-205 -269q-20 -26 -43 -34.5t-59 -8.5h-129zM426 1196l180 251q10 14 20 25.5t23 19.5t29.5 12t40.5 4h225l-266 -269q-24 -24 -45.5 -33.5t-57.5 -9.5h-149z" />
<glyph unicode="&#x394;" horiz-adv-x="1464" d="M10 0v95q0 43 10 92.5t30 99.5l508 1205h354l500 -1201q41 -97 41 -196v-95h-1443zM361 264h707l-274 715q-17 43 -36.5 101.5t-36.5 126.5q-17 -71 -36 -128.5t-37 -101.5z" />
<glyph unicode="&#x3a9;" horiz-adv-x="1684" d="M69 104v170h182q58 0 118.5 -5.5t118.5 -13.5q-88 34 -160 91t-123 132t-79.5 164.5t-28.5 188.5q0 141 56.5 265.5t156.5 215.5t236.5 143.5t296.5 52.5t296 -52.5t236 -143.5t156 -215t56 -266q0 -99 -28 -188.5t-79.5 -164.5t-123.5 -132t-160 -91q58 8 118.5 13.5 t119.5 5.5h182v-170q0 -46 -31.5 -75t-83.5 -29h-553v378q59 8 112.5 46.5t94 99t64.5 138t24 165.5q0 101 -31 175.5t-85.5 124t-127.5 73t-157 23.5q-83 0 -156.5 -23.5t-127.5 -73t-85.5 -123.5t-31.5 -176q0 -88 24 -165.5t64.5 -138t94 -99t112.5 -46.5v-378h-553 q-52 0 -83 29t-31 75z" />
<glyph unicode="&#x3bc;" horiz-adv-x="1251" d="M108 -210v1272h317v-616q0 -79 36 -127t105 -48q70 0 115.5 37.5t72.5 105.5v648h317v-729q0 -60 26 -89.5t73 -29.5h87v-122q0 -19 -13 -37.5t-37.5 -33.5t-60 -23.5t-79.5 -8.5q-43 0 -83.5 11.5t-75 36t-61 62t-42.5 88.5q-50 -80 -113 -122t-146 -42q-98 0 -165 45 q13 -46 18 -96.5t5 -94.5v-214h-157q-67 0 -103 33t-36 94z" />
<glyph unicode="&#x3c0;" horiz-adv-x="1323" d="M65 823v130q0 17 7.5 36.5t23 35t37 26t48.5 10.5h1093v-143q0 -38 -25 -66.5t-71 -28.5h-109q1 -139 4.5 -238.5t10.5 -167.5t16.5 -108t23 -61.5t29 -27.5t35.5 -6h53v-122q0 -25 -15.5 -43.5t-41 -31.5t-59.5 -19.5t-71 -6.5q-75 0 -129.5 25t-89.5 72t-52.5 112.5 t-17.5 147.5q0 46 5 94t12.5 104t15.5 123.5t13 153.5h-270q-4 -176 -16 -306t-31.5 -222.5t-47 -152t-64 -93.5t-82 -46.5t-99.5 -12.5q-19 0 -41.5 3.5t-41.5 10t-31 18t-12 26.5v205h21q35 0 63.5 30t50 98.5t35.5 177t20 264.5h-200z" />
<glyph unicode="&#x1e80;" horiz-adv-x="2181" d="M4 0zM4 1492h291q45 0 75 -20.5t40 -54.5l204 -778q9 -38 18.5 -81t18.5 -90q18 96 45 171l242 778q9 29 39.5 52t73.5 23h102q45 0 72.5 -21t42.5 -54l239 -778q27 -72 45 -163q8 45 17 86t18 77l205 778q8 30 39 52.5t74 22.5h272l-461 -1492h-313l-281 925 q-15 44 -29 101q-14 -57 -30 -101l-285 -925h-313zM605 1912h329q24 0 41.5 -1.5t31 -6t25.5 -14t25 -25.5l214 -277h-231q-18 0 -31.5 0.5t-25.5 3.5t-22.5 9t-22.5 17z" />
<glyph unicode="&#x1e81;" horiz-adv-x="1675" d="M5 0zM5 1062h254q34 0 57 -16t31 -39l107 -477q13 -54 22.5 -105t18.5 -101q14 50 29 101t32 105l133 478q8 24 30.5 39.5t53.5 15.5h141q34 0 57 -16t31 -39l127 -478q15 -54 30 -105t28 -103q8 51 19.5 102t25.5 106l113 477q8 24 30.5 39.5t52.5 15.5h242l-330 -1062 h-258q-20 0 -34.5 12.5t-22.5 40.5l-152 530q-11 36 -19.5 70.5t-15.5 69.5q-7 -36 -16 -71.5t-20 -70.5l-154 -528q-15 -53 -67 -53h-246zM462 1508h297q48 0 71.5 -15.5t40.5 -45.5l140 -251h-181q-36 0 -57 9.5t-45 33.5z" />
<glyph unicode="&#x1e82;" horiz-adv-x="2181" d="M4 0zM4 1492h291q45 0 75 -20.5t40 -54.5l204 -778q9 -38 18.5 -81t18.5 -90q18 96 45 171l242 778q9 29 39.5 52t73.5 23h102q45 0 72.5 -21t42.5 -54l239 -778q27 -72 45 -163q8 45 17 86t18 77l205 778q8 30 39 52.5t74 22.5h272l-461 -1492h-313l-281 925 q-15 44 -29 101q-14 -57 -30 -101l-285 -925h-313zM892 1588l194 277q12 16 24 26t25.5 14.5t31.5 5.5t42 1h350l-331 -292q-12 -11 -23 -17.5t-23.5 -9.5t-26.5 -4t-31 -1h-232z" />
<glyph unicode="&#x1e83;" horiz-adv-x="1675" d="M5 0zM5 1062h254q34 0 57 -16t31 -39l107 -477q13 -54 22.5 -105t18.5 -101q14 50 29 101t32 105l133 478q8 24 30.5 39.5t53.5 15.5h141q34 0 57 -16t31 -39l127 -478q15 -54 30 -105t28 -103q8 51 19.5 102t25.5 106l113 477q8 24 30.5 39.5t52.5 15.5h242l-330 -1062 h-258q-20 0 -34.5 12.5t-22.5 40.5l-152 530q-11 36 -19.5 70.5t-15.5 69.5q-7 -36 -16 -71.5t-20 -70.5l-154 -528q-15 -53 -67 -53h-246zM685 1196l139 251q17 30 41 45.5t72 15.5h307l-266 -269q-24 -24 -45.5 -33.5t-57.5 -9.5h-190z" />
<glyph unicode="&#x1e84;" horiz-adv-x="2181" d="M4 0zM4 1492h291q45 0 75 -20.5t40 -54.5l204 -778q9 -38 18.5 -81t18.5 -90q18 96 45 171l242 778q9 29 39.5 52t73.5 23h102q45 0 72.5 -21t42.5 -54l239 -778q27 -72 45 -163q8 45 17 86t18 77l205 778q8 30 39 52.5t74 22.5h272l-461 -1492h-313l-281 925 q-15 44 -29 101q-14 -57 -30 -101l-285 -925h-313zM694 1708q0 32 13 60.5t34.5 50t49.5 34t59 12.5q34 0 63.5 -12.5t52 -34t35.5 -50t13 -60.5q0 -33 -13 -60.5t-35.5 -48.5t-52 -33t-63.5 -12q-31 0 -59 12t-49.5 33t-34.5 48.5t-13 60.5zM1165 1708q0 32 13 60.5 t34.5 50t50.5 34t62 12.5t62 -12.5t50.5 -34t34.5 -50t13 -60.5q0 -33 -13 -60.5t-34.5 -48.5t-50.5 -33t-62 -12t-62 12t-50.5 33t-34.5 48.5t-13 60.5z" />
<glyph unicode="&#x1e85;" horiz-adv-x="1675" d="M5 0zM5 1062h254q34 0 57 -16t31 -39l107 -477q13 -54 22.5 -105t18.5 -101q14 50 29 101t32 105l133 478q8 24 30.5 39.5t53.5 15.5h141q34 0 57 -16t31 -39l127 -478q15 -54 30 -105t28 -103q8 51 19.5 102t25.5 106l113 477q8 24 30.5 39.5t52.5 15.5h242l-330 -1062 h-258q-20 0 -34.5 12.5t-22.5 40.5l-152 530q-11 36 -19.5 70.5t-15.5 69.5q-7 -36 -16 -71.5t-20 -70.5l-154 -528q-15 -53 -67 -53h-246zM456 1326q0 34 13 63.5t35 51.5t51.5 35t61.5 13q35 0 65.5 -13t53.5 -35t36 -51.5t13 -63.5q0 -33 -13 -61.5t-36 -49.5 t-53.5 -33.5t-65.5 -12.5q-33 0 -62 12.5t-51 33.5t-35 49.5t-13 61.5zM892 1326q0 34 12.5 63.5t35.5 51.5t52.5 35t63.5 13q35 0 65 -13t52.5 -35t35.5 -51.5t13 -63.5q0 -33 -13 -61.5t-35.5 -49.5t-52.5 -33.5t-65 -12.5q-34 0 -63.5 12.5t-52.5 33.5t-35.5 49.5 t-12.5 61.5z" />
<glyph unicode="&#x2000;" horiz-adv-x="981" />
<glyph unicode="&#x2001;" horiz-adv-x="1963" />
<glyph unicode="&#x2002;" horiz-adv-x="981" />
<glyph unicode="&#x2003;" horiz-adv-x="1963" />
<glyph unicode="&#x2004;" horiz-adv-x="654" />
<glyph unicode="&#x2005;" horiz-adv-x="490" />
<glyph unicode="&#x2006;" horiz-adv-x="327" />
<glyph unicode="&#x2007;" horiz-adv-x="327" />
<glyph unicode="&#x2008;" horiz-adv-x="245" />
<glyph unicode="&#x2009;" horiz-adv-x="392" />
<glyph unicode="&#x200a;" horiz-adv-x="109" />
<glyph unicode="&#x2010;" horiz-adv-x="765" d="M106 495v256h553v-256h-553z" />
<glyph unicode="&#x2011;" horiz-adv-x="765" d="M106 495v256h553v-256h-553z" />
<glyph unicode="&#x2012;" horiz-adv-x="765" d="M106 495v256h553v-256h-553z" />
<glyph unicode="&#x2013;" d="M174 513v217h840v-217h-840z" />
<glyph unicode="&#x2014;" horiz-adv-x="1642" d="M114 513v217h1415v-217h-1415z" />
<glyph unicode="&#x2018;" horiz-adv-x="464" d="M72 1300q17 91 69 173.5t140 150.5l100 -59q13 -8 18 -18.5t4.5 -21.5t-5 -20.5t-11.5 -16.5q-17 -18 -37 -56.5t-29.5 -90t-0.5 -112.5t50 -125q23 -36 12 -61.5t-42 -36.5l-190 -71q-55 87 -75 180.5t-3 184.5z" />
<glyph unicode="&#x2019;" horiz-adv-x="464" d="M67.5 1000q0.5 11 5 20.5t11.5 16.5q11 12 24.5 34t24.5 50.5t18 63t5 72.5t-14.5 79.5t-40.5 84.5q-23 36 -12 61.5t42 37.5l191 70q55 -88 74.5 -181t2.5 -183.5t-69 -173.5t-140 -151l-100 60q-13 7 -18 17.5t-4.5 21.5z" />
<glyph unicode="&#x201a;" horiz-adv-x="450" d="M40.5 -248.5q0.5 10.5 5 20.5t11.5 17q11 12 24.5 33.5t25 50.5t18 63t4.5 72.5t-14.5 80t-39.5 84.5q-23 36 -12 61.5t41 36.5l191 71q55 -88 74.5 -181t2.5 -184t-69 -174t-139 -150l-101 59q-13 7 -18 18t-4.5 21.5z" />
<glyph unicode="&#x201c;" horiz-adv-x="831" d="M55 935zM72 1300q17 91 69 173.5t140 150.5l100 -59q13 -8 18 -18.5t4.5 -21.5t-5 -20.5t-11.5 -16.5q-17 -18 -37 -56.5t-29.5 -90t-0.5 -112.5t50 -125q23 -36 12 -61.5t-42 -36.5l-190 -71q-55 87 -75 180.5t-3 184.5zM439 1300q17 91 69 173.5t140 150.5l100 -59 q13 -8 18 -18.5t4.5 -21.5t-5 -20.5t-11.5 -16.5q-17 -18 -37 -56.5t-29.5 -90t-0.5 -112.5t50 -125q23 -36 12 -61.5t-42 -36.5l-190 -71q-55 87 -75 180.5t-3 184.5z" />
<glyph unicode="&#x201d;" horiz-adv-x="831" d="M67 901zM67.5 999.5q0.5 10.5 5 20.5t11.5 17q11 12 24.5 33.5t25 50.5t18 63t4.5 72.5t-14.5 80t-39.5 84.5q-23 36 -12 61.5t41 36.5l191 71q55 -88 74.5 -181t2.5 -184t-69 -174t-139 -150l-101 59q-13 7 -18 18t-4.5 21.5zM433.5 999.5q0.5 10.5 5 20.5t11.5 17 q11 12 24.5 33.5t25 50.5t18 63t4.5 72.5t-14.5 80t-39.5 84.5q-23 36 -12 61.5t41 36.5l191 71q55 -88 74.5 -181t2.5 -184t-69 -174t-139 -150l-101 59q-13 7 -18 18t-4.5 21.5z" />
<glyph unicode="&#x201e;" horiz-adv-x="817" d="M40 0zM40.5 -248.5q0.5 10.5 5 20.5t11.5 17q11 12 24.5 33.5t25 50.5t18 63t4.5 72.5t-14.5 80t-39.5 84.5q-23 36 -12 61.5t41 36.5l191 71q55 -88 74.5 -181t2.5 -184t-69 -174t-139 -150l-101 59q-13 7 -18 18t-4.5 21.5zM407.5 -248.5q0.5 10.5 5 20.5t11.5 17 q11 12 24.5 33.5t25 50.5t18 63t4.5 72.5t-14.5 80t-39.5 84.5q-23 36 -12 61.5t41 36.5l191 71q55 -88 74.5 -181t2.5 -184t-69 -174t-139 -150l-101 59q-13 7 -18 18t-4.5 21.5z" />
<glyph unicode="&#x2020;" d="M49 828v103q0 26 9 49.5t26.5 41.5t45.5 29t67 11q29 0 62 -5t67.5 -13t71 -16.5t72.5 -15.5l-40 500q34 19 76 29t88 10t88 -9.5t76 -29.5l-41 -500q36 7 72 15.5t71.5 16.5t68.5 13t62 5q38 0 66 -11t46 -29t27 -42t9 -49v-103h-422v-311l41 -839q-34 -19 -76 -29 t-88 -10t-88 10t-76 29l41 839v311h-422z" />
<glyph unicode="&#x2021;" d="M49 260v101h422v467h-422v103q0 26 9 49.5t26.5 41.5t45.5 29t67 11q29 0 62 -5t67.5 -13t71 -16.5t72.5 -15.5l-40 500q34 19 76 29t88 10t88 -9.5t76 -29.5l-41 -500q36 7 72 15.5t71.5 16.5t68.5 13t62 5q38 0 66 -11t46 -29t27 -42t9 -49v-103h-422v-467h422v-101 q0 -26 -9 -50t-27 -42t-46 -29t-66 -11q-30 0 -62.5 5t-68 13t-71.5 16.5t-72 15.5l41 -500q-34 -19 -76 -29t-88 -10t-88 10t-76 29l40 500q-36 -7 -72.5 -15.5t-71 -16.5t-68 -13t-61.5 -5q-39 0 -67 11t-45.5 29t-26.5 42t-9 50z" />
<glyph unicode="&#x2022;" d="M87 606q0 102 40 192.5t108.5 158t160.5 106.5t197 39t197.5 -39t161.5 -106.5t109 -157.5t40 -193q0 -101 -40 -191t-109 -157t-161.5 -105.5t-197.5 -38.5q-104 0 -196.5 38.5t-161 105.5t-108.5 157t-40 191z" />
<glyph unicode="&#x2026;" horiz-adv-x="1619" d="M65 0zM65 161q0 37 13.5 68.5t37.5 55t57 37.5t72 14q38 0 70.5 -14t57 -37.5t38.5 -55t14 -68.5t-14 -69.5t-38.5 -56t-57 -36.5t-70.5 -13q-39 0 -72 13t-57 36.5t-37.5 56t-13.5 69.5zM630 161q0 37 13.5 68.5t37.5 55t57 37.5t72 14q38 0 70.5 -14t57 -37.5t38.5 -55 t14 -68.5t-14 -69.5t-38.5 -56t-57 -36.5t-70.5 -13q-39 0 -72 13t-57 36.5t-37.5 56t-13.5 69.5zM1195 161q0 37 13.5 68.5t37.5 55t57 37.5t72 14q38 0 70.5 -14t57 -37.5t38.5 -55t14 -68.5t-14 -69.5t-38.5 -56t-57 -36.5t-70.5 -13q-39 0 -72 13t-57 36.5t-37.5 56 t-13.5 69.5z" />
<glyph unicode="&#x202f;" horiz-adv-x="392" />
<glyph unicode="&#x2030;" horiz-adv-x="2471" d="M70 1130q0 85 26.5 154.5t74 118.5t112.5 76t143 27t144 -27t113.5 -76t74 -118.5t26.5 -154.5q0 -82 -29.5 -149.5t-78.5 -116t-114 -75t-136 -26.5q-78 0 -143 26.5t-112.5 75t-74 116.5t-26.5 149zM129 0l1124 1445q15 17 38 32t63 15h231l-1124 -1447 q-15 -19 -38.5 -32t-55.5 -13h-238zM315 1130q0 -49 8.5 -81.5t22.5 -52t34.5 -27.5t45.5 -8t46 8t36 27.5t24 52t9 81.5q0 52 -9 86.5t-24 55t-36 29t-46 8.5t-45.5 -8.5t-34.5 -29t-22.5 -54.5t-8.5 -87zM928 350q0 85 26.5 154t74 118.5t112.5 76.5t143 27t144 -27 t113.5 -76.5t74 -118.5t26.5 -154q0 -82 -29.5 -150t-78.5 -116.5t-114 -75t-136 -26.5q-78 0 -143 26.5t-112.5 75t-74 116.5t-26.5 150zM1174 350q0 -49 8 -81.5t22.5 -52t35 -28t44.5 -8.5q25 0 46 8.5t36 28t24 52t9 81.5q0 51 -9 85.5t-24 55t-36 28.5t-46 8t-45 -8 t-34.5 -28.5t-22.5 -55t-8 -85.5zM1694 350q0 85 26.5 154t74 118.5t112.5 76.5t143 27t144 -27t113.5 -76.5t74 -118.5t26.5 -154q0 -82 -29.5 -150t-78.5 -116.5t-114 -75t-136 -26.5q-78 0 -143 26.5t-112.5 75t-74 116.5t-26.5 150zM1939 350q0 -49 8.5 -81.5t23 -52 t34.5 -28t45 -8.5t46 8.5t36 28t24 52t9 81.5q0 51 -9 85.5t-24 55t-36 28.5t-46 8t-45 -8t-34.5 -28.5t-23 -55t-8.5 -85.5z" />
<glyph unicode="&#x2039;" horiz-adv-x="613" d="M83 538v40l268 411l105 -47q40 -17 46.5 -49t-14.5 -68l-122 -220q-17 -31 -37 -48q18 -16 37 -47l122 -221q20 -36 14 -67.5t-46 -48.5l-105 -47z" />
<glyph unicode="&#x203a;" horiz-adv-x="613" d="M111 221.5q-7 31.5 14 67.5l123 221q15 29 37 47q-10 9 -19.5 21.5t-17.5 26.5l-123 220q-20 36 -13.5 68t46.5 49l104 47l268 -411v-40l-268 -412l-104 47q-40 17 -47 48.5z" />
<glyph unicode="&#x2044;" horiz-adv-x="286" d="M-441 0l868 1392q31 48 70 74t94 26h135l-877 -1405q-16 -26 -33 -42.5t-36 -26.5t-40.5 -14t-45.5 -4h-135z" />
<glyph unicode="&#x205f;" horiz-adv-x="490" />
<glyph unicode="&#x20a3;" d="M59 273v169h160v1050h920v-266h-572v-318h449v-266h-449v-200h285v-169h-285v-273h-348v273h-160z" />
<glyph unicode="&#x20a4;" d="M34 482v169h188v95h-188v92q0 30 24.5 53.5t63.5 23.5h100v109q0 97 30 184.5t90.5 154.5t152.5 106t217 39q83 0 150 -21t119.5 -58t92.5 -88t70 -109l-127 -80q-43 -23 -83.5 -20t-74.5 38q-39 40 -70.5 59.5t-76.5 19.5q-83 0 -123.5 -57.5t-40.5 -166.5v-110h389 v-169h-389v-95h389v-90q0 -30 -24.5 -54.5t-63.5 -24.5h-301v-39q0 -61 -23 -110.5t-62 -92.5q46 10 92 15.5t93 5.5h514v-130q0 -23 -9.5 -46.5t-27 -42t-42.5 -30.5t-56 -12h-977v190q34 6 65 19.5t55 34t38 49.5t14 66v123h-188z" />
<glyph unicode="&#x20a7;" d="M20 895v169h123v428h363q138 0 239 -28.5t168.5 -83t104 -134.5t44.5 -182h128v-169h-131q-12 -103 -50.5 -184t-106.5 -137t-166.5 -85t-229.5 -29h-37v-460h-326v895h-123zM469 701h37q61 0 105 11.5t73.5 35.5t45.5 60.5t24 86.5h-285v-194zM469 1064h287 q-6 50 -22 86t-46 59t-75 33.5t-107 10.5h-37v-189z" />
<glyph unicode="&#x20ac;" d="M30 542v169h100v35v29t1 29h-101v169h123q26 121 79 219.5t127.5 168.5t169 107.5t201.5 37.5q145 0 251 -57.5t171 -153.5l-113 -116q-12 -14 -26.5 -25t-38.5 -11q-25 0 -42 15.5t-39.5 34t-56 34t-92.5 15.5q-96 0 -164 -68t-100 -201h471v-94q0 -13 -6 -26.5 t-17.5 -24.5t-27 -17.5t-35.5 -6.5h-406q-1 -14 -1 -28.5v-29.5v-35h395v-95q0 -13 -6 -26t-17.5 -24t-27.5 -17.5t-35 -6.5h-293q27 -148 93.5 -220t162.5 -72q43 0 74 8.5t52.5 21t36 28t27.5 27.5t25.5 21t30.5 9q14 0 24 -4.5t21 -15.5l139 -124q-71 -116 -185.5 -175.5 t-260.5 -59.5q-122 0 -219 40.5t-168 113t-116.5 175t-65.5 227.5h-115z" />
<glyph unicode="&#x2113;" horiz-adv-x="1242" d="M53 664q43 8 84.5 16.5t82.5 19.5q14 101 45 201t76.5 190t105 166.5t131 133t154.5 88t175 31.5q75 0 132 -24t95 -66.5t57 -99.5t19 -124q0 -101 -50.5 -190.5t-142.5 -166.5t-221 -142.5t-286 -119.5q0 -101 8.5 -166.5t23.5 -103.5t36.5 -52t48.5 -14q33 0 64 17.5 t57.5 46t48.5 63t37 68.5l262 -60q-32 -87 -85.5 -158.5t-123 -122.5t-153.5 -79t-177 -28q-74 0 -136 26.5t-107.5 86t-72.5 155t-31 233.5q-60 -15 -118 -27zM532 804q91 38 166.5 82.5t130 92.5t84 99t29.5 104q0 45 -21.5 72t-60.5 27q-46 0 -94.5 -37.5t-93.5 -102 t-81.5 -151.5t-58.5 -186z" />
<glyph unicode="&#x2122;" horiz-adv-x="1560" d="M78 1319v173h522v-173h-154v-455h-217v455h-151zM651 864v628h189q13 0 22.5 -1t17.5 -4.5t14.5 -10t14.5 -16.5l97 -222q19 -43 33 -86q7 22 16 43.5t20 42.5l103 222q17 20 30 26t39 6h189v-628h-191v258l15 116l-130 -275q-23 -45 -73 -45h-31q-51 0 -74 45l-123 270 l13 -111v-258h-191z" />
<glyph unicode="&#x2126;" horiz-adv-x="1704" d="M79 104v170h182q58 0 118.5 -5.5t119.5 -13.5q-88 34 -160.5 91t-123.5 132t-79 164.5t-28 188.5q0 141 56 265.5t156 215.5t236.5 143.5t296.5 52.5t296 -52.5t236 -143.5t156 -215t56 -266q0 -99 -28 -188.5t-79 -164.5t-123.5 -132t-160.5 -91q58 8 118.5 13.5 t119.5 5.5h182v-170q0 -46 -31 -75t-84 -29h-553v378q59 8 112.5 46.5t94 99t64.5 138t24 165.5q0 101 -31 175.5t-85.5 124t-127.5 73t-157 23.5q-83 0 -156 -23.5t-127.5 -73t-85.5 -123.5t-31 -176q0 -88 24 -165.5t64.5 -138t93.5 -99t112 -46.5v-378h-552 q-52 0 -83.5 29t-31.5 75z" />
<glyph unicode="&#x212e;" horiz-adv-x="1665" d="M83 734q0 108 25.5 206.5t73 184t116 156t153.5 120t184.5 76.5t211.5 27q127 0 231.5 -29.5t186.5 -82.5t142 -125.5t101 -158t62.5 -181.5t25.5 -195h-1050v-171q0 -82 26.5 -151.5t76 -120.5t121 -80t161.5 -29q62 0 120.5 12.5t112 39.5t101.5 70t90 106l170 -118 q-48 -74 -109.5 -132.5t-142.5 -99t-183.5 -61.5t-230.5 -21q-178 0 -321.5 55t-245 155t-155.5 239t-54 309zM546 923h622v47q0 81 -20 145t-58.5 108.5t-96 68t-132.5 23.5q-70 0 -128 -24.5t-99.5 -70t-64.5 -110t-23 -143.5v-44z" />
<glyph unicode="&#x2202;" horiz-adv-x="1207" d="M54 433q0 121 42 224t115.5 178t172 118t211.5 43q93 0 158.5 -27.5t111.5 -78.5v38q0 85 -16 148.5t-45.5 105t-70 62t-87.5 20.5q-34 0 -66.5 -10.5t-62 -22.5t-54 -22.5t-42.5 -10.5q-17 0 -34 10t-36 39l-69 118q43 33 87 59t92.5 44t105 27.5t124.5 9.5 q98 0 182 -39.5t145.5 -114t96.5 -181t35 -240.5q0 -217 -39.5 -392.5t-119.5 -298t-200.5 -189t-283.5 -66.5q-97 0 -180 31.5t-143.5 90t-95 141.5t-34.5 186zM382 437q0 -103 42.5 -159.5t119.5 -56.5q43 0 85.5 18t79.5 60.5t67 112.5t48 174q-9 35 -24 66t-38 55 t-56 38t-78 14q-65 0 -111.5 -23.5t-76 -66t-44 -102t-14.5 -130.5z" />
<glyph unicode="&#x2206;" horiz-adv-x="1567" d="M62 0v95q0 43 10 92.5t30 99.5l508 1205h355l499 -1201q41 -97 41 -196v-95h-1443zM414 264h706l-274 715q-17 43 -36 101.5t-37 126.5q-17 -71 -36 -128.5t-37 -101.5z" />
<glyph unicode="&#x220f;" horiz-adv-x="1470" d="M72 1235v257h1327v-257h-154v-1572h-327v1572h-365v-1572h-328v1572h-153z" />
<glyph unicode="&#x2211;" horiz-adv-x="1399" d="M71 -231q0 23 7.5 46.5t24.5 44.5l578 722l-578 712q-17 20 -24.5 45t-7.5 47v106h1245v-257h-760l475 -612v-91l-476 -613h761v-256h-1245v106z" />
<glyph unicode="&#x2212;" d="M128 574v228h932v-228h-932z" />
<glyph unicode="&#x2215;" horiz-adv-x="1061" d="M-53 0l868 1392q31 48 70 74t94 26h135l-877 -1405q-16 -26 -33 -42.5t-36 -26.5t-40.5 -14t-45.5 -4h-135zM0 0z" />
<glyph unicode="&#x221a;" horiz-adv-x="1263" d="M20 763v98h377q34 0 57 -16t31 -39l60 -237q16 -49 26.5 -99.5t17.5 -102.5q7 40 16 80t22 83l352 1157q8 24 30.5 39.5t53.5 15.5h211l-559 -1742h-269l-232 639h-75q-24 0 -45 6.5t-37.5 21.5t-26.5 38.5t-10 57.5z" />
<glyph unicode="&#x221e;" horiz-adv-x="1488" d="M74 606q0 84 28.5 155.5t77 122.5t113 79.5t136.5 28.5q55 0 101.5 -13t84.5 -36.5t70 -55t59 -66.5q27 35 59 66.5t70 55t85 36.5t102 13q72 0 136.5 -28.5t113 -79.5t77 -122.5t28.5 -155.5q0 -85 -28.5 -155.5t-77 -122.5t-113 -80.5t-136.5 -28.5q-55 0 -102 13.5 t-85 36.5t-70 54t-59 67q-28 -36 -59.5 -67t-69.5 -54t-84.5 -36.5t-101.5 -13.5q-72 0 -136.5 28.5t-113 80.5t-77 122.5t-28.5 155.5zM322 606q0 -39 10 -65.5t27 -43t38 -23.5t45 -7q26 0 49 10.5t43 29t38.5 44.5t36.5 55q-18 30 -36.5 55.5t-38.5 44t-43 29t-49 10.5 q-24 0 -45 -7t-38 -23.5t-27 -43t-10 -65.5zM880 606q18 -30 36.5 -55.5t39 -44t43 -29t49.5 -10.5q24 0 45 7t38 23.5t26.5 43t9.5 65.5t-10 65.5t-26.5 43t-38.5 23.5t-44 7q-27 0 -49.5 -10.5t-43 -29t-39 -44t-36.5 -55.5z" />
<glyph unicode="&#x222b;" horiz-adv-x="1017" d="M-5 -305l16 129q1 15 4.5 27t12.5 20t24 12t39 4q58 0 95 10.5t59.5 32t33 54.5t15.5 81l130 1195q13 108 49.5 186t92 129.5t128 76t159.5 24.5q39 0 84.5 -8.5t87.5 -29.5l-16 -129q-2 -15 -5.5 -27t-12 -20t-23.5 -12.5t-39 -4.5q-58 0 -95 -10.5t-59.5 -32t-33 -54.5 t-15.5 -79l-130 -1195q-14 -108 -50 -186.5t-91.5 -130.5t-128 -76.5t-159.5 -24.5q-39 0 -84.5 8.5t-87.5 30.5z" />
<glyph unicode="&#x2248;" d="M141 552q22 30 51 51.5t63.5 35t72 20t75.5 6.5q54 0 109 -15t107.5 -33t101.5 -33t92 -15q35 0 67 8t58.5 18.5t44.5 22t25 18.5l34 -197q-22 -28 -50 -46.5t-60.5 -31t-68.5 -18t-70 -5.5q-54 0 -109 15t-107.5 32.5t-101.5 32.5t-92 15q-36 0 -68.5 -7.5t-60 -19 t-46 -23t-24.5 -19.5zM141 931q22 31 51 52.5t63.5 35t72 19.5t75.5 6q54 0 109 -14.5t107.5 -33t101.5 -33.5t92 -15q35 0 67 8.5t58.5 19t44.5 22t25 17.5l34 -196q-22 -28 -50 -47t-60.5 -31.5t-68.5 -18t-70 -5.5q-54 0 -109 14.5t-107.5 33t-101.5 33.5t-92 15 q-36 0 -68.5 -7.5t-60 -19t-46 -23.5t-24.5 -21z" />
<glyph unicode="&#x2260;" d="M128 386v227h327l77 148h-404v228h524l111 209h225l-110 -209h182v-228h-302l-78 -148h380v-227h-499l-120 -228h-225l120 228h-208z" />
<glyph unicode="&#x2264;" d="M166 82v227h829v-227h-829zM166 775v124l829 390v-211q0 -24 -12.5 -45.5t-52.5 -37.5l-277 -119q-62 -22 -133 -37q37 -8 70.5 -18t62.5 -21l276 -124q40 -16 53 -38t13 -45v-211z" />
<glyph unicode="&#x2265;" d="M193 82v227h829v-227h-829zM193 382v211q0 24 13 45t53 38l276 124q30 11 63 20.5t69 18.5q-73 15 -132 37l-277 119q-40 15 -52.5 37.5t-12.5 45.5v211l829 -390v-124z" />
<glyph unicode="&#x25ca;" d="M61 752l422 823h222l421 -823l-421 -824h-222zM371 752l153 -351q25 -51 42 -100.5t28 -100.5q11 50 28.5 99.5t43.5 100.5l157 352l-165 364q-23 45 -38 90t-26 93q-11 -47 -26 -92t-36 -88z" />
<glyph unicode="&#x25fc;" horiz-adv-x="1059" d="M0 0v1060h1060v-1060h-1060z" />
<glyph unicode="&#xf8ff;" horiz-adv-x="1615" d="M82 443q0 158 36 316.5t106.5 303t176.5 268.5t246 212l4 -12q-87 -58 -154 -152t-116 -206.5t-82.5 -237.5t-53 -247.5t-28 -235t-8.5 -199.5t11 -148t31 -107t47 -81t58 -70l-12 -12q-60 56 -108.5 115.5t-82.5 131t-52.5 159.5t-18.5 202zM438 835v223l123 12l103 250 h264v-258h178v-252h-178v-350q0 -39 26 -61.5t80 -22.5q9 0 25.5 0.5t34.5 3.5l20 -219q-51 -20 -109.5 -31.5t-121.5 -11.5q-98 0 -164 23.5t-106 69.5t-56 113.5t-16 155.5v307zM965 -153q87 58 154 151.5t116 205.5t82 237t53.5 247t28.5 233.5t8 199.5t-11.5 150 t-31 108t-46.5 81.5t-58 70.5l12 12q60 -57 109 -116.5t82.5 -131t52 -159.5t18.5 -201q0 -158 -36 -316t-106.5 -303t-176.5 -269t-246 -212z" />
<glyph horiz-adv-x="819" d="M-54 1912h329q24 0 41.5 -1.5t31 -6t25.5 -14t25 -25.5l214 -277h-231q-18 0 -31.5 0.5t-25.5 3.5t-22.5 9t-22.5 17z" />
<glyph horiz-adv-x="819" d="M233 1588l194 277q12 16 24 26t25.5 14.5t31.5 5.5t42 1h350l-331 -292q-12 -11 -23 -17.5t-23.5 -9.5t-26.5 -4t-31 -1h-232z" />
<glyph horiz-adv-x="819" d="M20 1588l250 285h289l250 -285h-229q-18 0 -45 7t-56 40l-51 80q-5 7 -9.5 13.5t-8.5 12.5l-19 -26l-51 -80q-29 -34 -55.5 -40.5t-44.5 -6.5h-220z" />
<glyph horiz-adv-x="819" d="M10 1873h230q9 0 20.5 -0.5t24 -4t24.5 -11t22 -20.5l60 -91l19 -27q4 6 8.5 13t9.5 14l59 90q10 13 22.5 21t25 11.5t24 4t21.5 0.5h229l-250 -285h-299z" />
<glyph horiz-adv-x="819" d="M254 1164l68 371h215q16 0 26 -4t15 -11t6.5 -14t1.5 -13q0 -8 -3.5 -23.5t-15.5 -45t-34 -79.5t-58 -127q-17 -34 -42.5 -44t-65.5 -10h-113z" />
<glyph horiz-adv-x="819" d="M23 1578q0 56 15 108.5t45.5 93.5t74 65.5t100.5 24.5t98 -15.5t72 -34.5t56.5 -34.5t52.5 -15.5q23 0 38 9t24.5 23t14 29.5t4.5 30.5h193q0 -56 -15.5 -108.5t-45 -93t-73.5 -64.5t-102 -24q-57 0 -97.5 15.5t-71.5 34t-56.5 34t-52.5 15.5q-23 0 -38 -9t-24.5 -23 t-13.5 -30.5t-4 -30.5h-194z" />
<glyph horiz-adv-x="819" d="M14 1708q0 32 13 60.5t34.5 50t49.5 34t59 12.5q34 0 63.5 -12.5t52 -34t35.5 -50t13 -60.5q0 -33 -13 -60.5t-35.5 -48.5t-52 -33t-63.5 -12q-31 0 -59 12t-49.5 33t-34.5 48.5t-13 60.5zM485 1708q0 32 13 60.5t34.5 50t50.5 34t62 12.5t62 -12.5t50.5 -34t34.5 -50 t13 -60.5q0 -33 -13 -60.5t-34.5 -48.5t-50.5 -33t-62 -12t-62 12t-50.5 33t-34.5 48.5t-13 60.5z" />
<glyph horiz-adv-x="819" d="M82 1593v174h655v-174h-655z" />
<glyph horiz-adv-x="819" d="M43 1872h242q0 -50 27 -78t98 -28t98 28t27 78h241q0 -67 -27 -120t-75.5 -90.5t-115.5 -57.5t-148 -20t-148 17t-116 52.5t-76 89.5t-27 129z" />
<glyph horiz-adv-x="819" d="M179 1755q0 47 19 85.5t50.5 65.5t72 42t86.5 15q47 0 89 -15t74 -42t51 -65.5t19 -85.5q0 -45 -19 -82.5t-51 -64t-74 -41t-89 -14.5q-45 0 -86 14.5t-72.5 41t-50.5 64t-19 82.5zM329 1755q0 -36 20 -59t62 -23q37 0 58 23t21 59q0 39 -21.5 61.5t-57.5 22.5 q-42 0 -62 -22.5t-20 -61.5z" />
<glyph horiz-adv-x="819" d="M109 1588l132 223q17 29 47.5 45.5t79.5 16.5h204l-212 -241q-25 -20 -46 -32t-56 -12h-149zM446 1588l186 223q24 27 55.5 44.5t79.5 17.5h235l-273 -241q-26 -22 -51.5 -33t-61.5 -11h-170z" />
<glyph horiz-adv-x="819" d="M227 1743q0 37 14.5 69t39 56.5t57 39t68.5 14.5q38 0 72 -14.5t59 -39t40 -56.5t15 -69q0 -35 -15 -66.5t-40 -55.5t-59.5 -38t-71.5 -14q-36 0 -68.5 14t-57 38t-39 55.5t-14.5 66.5z" />
<glyph horiz-adv-x="819" d="M268 -397l54 310h194q16 0 26.5 -4t15 -11t6 -14t1.5 -13q0 -9 -2 -24.5t-9.5 -41t-23 -62t-41.5 -87.5q-17 -34 -42.5 -43.5t-65.5 -9.5h-113z" />
<glyph horiz-adv-x="819" d="M274 1202l125 291h199l-53 -291h-271z" />
<glyph horiz-adv-x="684" d="M53 564l248 204h191v-629h104v-139h-463v139h133v305l6 56l-51 -38q-15 -11 -30.5 -14t-29 0.5t-23.5 10t-15 13.5z" />
<glyph horiz-adv-x="684" d="M43 0v71q0 20 8 43.5t29 43.5l203 198q20 20 38 44.5t31.5 48.5t21 47t7.5 43q0 25 -10.5 43.5t-36.5 18.5q-22 0 -34.5 -10t-25.5 -33q-8 -13 -17 -22.5t-21 -15t-27.5 -6.5t-38.5 3l-127 20q9 62 34.5 107t65 74.5t91.5 43.5t112 14q66 0 115.5 -18.5t83 -50t49.5 -73 t16 -87.5q0 -42 -12.5 -77t-33.5 -66.5t-49 -61.5l-56 -60l-104 -106q34 10 67 16.5t59 6.5h70q36 0 56 -19t20 -51v-129h-584z" />
<glyph horiz-adv-x="684" d="M41 204l98 39q39 14 71 7t44 -31q14 -27 33.5 -37t38.5 -10q31 0 48 18t17 48q0 26 -5.5 41t-20.5 23t-40 10.5t-63 2.5v144q41 0 66 5t39 14t18 23.5t4 33.5q0 27 -10 44.5t-43 17.5q-25 0 -37.5 -9t-22.5 -28q-8 -15 -16.5 -25.5t-19.5 -15.5t-26 -5.5t-38 3.5l-117 20 q9 62 35 107t64 74.5t86.5 43.5t103.5 14q63 0 112 -18t81 -47t48.5 -65t16.5 -72q0 -63 -24 -107.5t-80 -71.5q58 -19 87 -55t29 -94q0 -68 -25 -116t-65 -79t-90 -45t-100 -14q-53 0 -97.5 8.5t-81.5 32.5t-66.5 65t-51.5 106z" />
<glyph horiz-adv-x="684" d="M2 292l336 476h219v-466h82v-109q0 -15 -11.5 -27.5t-29.5 -12.5h-41v-153h-188v153h-281q-30 0 -46 12.5t-22 32.5zM206 302h163v112q0 27 1.5 58.5t5.5 65.5z" />
<glyph horiz-adv-x="819" d="M57 1326q0 34 13.5 63.5t35.5 51.5t51 35t62 13q35 0 65 -13t53 -35t36.5 -51.5t13.5 -63.5q0 -33 -13.5 -61.5t-36.5 -49.5t-53 -33.5t-65 -12.5q-33 0 -62 12.5t-51 33.5t-35.5 49.5t-13.5 61.5zM432 1326q0 34 13 63.5t35.5 51.5t52 35t63.5 13q35 0 65 -13t52.5 -35 t35.5 -51.5t13 -63.5q0 -33 -13 -61.5t-35.5 -49.5t-52.5 -33.5t-65 -12.5q-34 0 -63.5 12.5t-52 33.5t-35.5 49.5t-13 61.5z" />
<glyph horiz-adv-x="819" d="M219 1354q0 38 15 72t41 59t60 40t73 15q40 0 75 -15t61.5 -40t42 -59t15.5 -72t-15.5 -72t-42 -59t-62 -39.5t-74.5 -14.5t-73 14.5t-60 39.5t-41 59t-15 72z" />
<glyph horiz-adv-x="0" d="M0 0z" />
</font>
</defs>
</svg>
